# MagicaVoxel @ Ephtracy

# material
mtllib fantasma3D.mtl
usemtl palette

# normals
vn -1 0 0
vn 1 0 0
vn 0 0 1
vn 0 0 -1
vn 0 -1 0
vn 0 1 0

# texcoords
vt 0.0136719 0.5
vt 0.0175781 0.5
vt 0.0214844 0.5
vt 0.0488281 0.5

# verts
v -3 7 -0
v -3 7 -4
v -3 8 1
v -3 8 -0
v -3 8 -4
v -3 8 -5
v -3 9 -1
v -3 9 -3
v -3 10 -1
v -3 10 -2
v -3 11 -1
v -3 11 -2
v -3 11 -3
v -3 12 1
v -3 12 -0
v -3 12 -4
v -3 12 -5
v -3 13 -0
v -3 13 -4
v -2 7 1
v -2 7 -0
v -2 7 -4
v -2 7 -5
v -2 8 1
v -2 8 -0
v -2 8 -4
v -2 8 -5
v -2 12 1
v -2 12 -0
v -2 12 -4
v -2 12 -5
v -2 13 1
v -2 13 -0
v -2 13 -4
v -2 13 -5
v 2 7 1
v 2 7 -0
v 2 7 -4
v 2 7 -5
v 2 8 1
v 2 8 -0
v 2 8 -4
v 2 8 -5
v 2 12 1
v 2 12 -0
v 2 12 -4
v 2 12 -5
v 2 13 1
v 2 13 -0
v 2 13 -4
v 2 13 -5
v 3 7 -0
v 3 7 -4
v 3 8 1
v 3 8 -0
v 3 8 -4
v 3 8 -5
v 3 12 1
v 3 12 -0
v 3 12 -4
v 3 12 -5
v 3 13 -0
v 3 13 -4
v -3 8 1
v -3 12 1
v -2 7 1
v -2 8 1
v -2 12 1
v -2 13 1
v 2 7 1
v 2 8 1
v 2 12 1
v 2 13 1
v 3 8 1
v 3 12 1
v -3 7 -0
v -3 8 -0
v -3 12 -0
v -3 13 -0
v -2 7 -0
v -2 8 -0
v -2 12 -0
v -2 13 -0
v 2 7 -0
v 2 8 -0
v 2 12 -0
v 2 13 -0
v 3 7 -0
v 3 8 -0
v 3 12 -0
v 3 13 -0
v -3 7 -4
v -3 8 -4
v -3 12 -4
v -3 13 -4
v -2 7 -4
v -2 8 -4
v -2 12 -4
v -2 13 -4
v 2 7 -4
v 2 8 -4
v 2 12 -4
v 2 13 -4
v 3 7 -4
v 3 8 -4
v 3 12 -4
v 3 13 -4
v -3 8 -5
v -3 12 -5
v -2 7 -5
v -2 8 -5
v -2 12 -5
v -2 13 -5
v 2 7 -5
v 2 8 -5
v 2 12 -5
v 2 13 -5
v 3 8 -5
v 3 12 -5
v -2 7 1
v 2 7 1
v -3 7 -0
v -2 7 -0
v 2 7 -0
v 3 7 -0
v -3 7 -4
v -2 7 -4
v 2 7 -4
v 3 7 -4
v -2 7 -5
v 2 7 -5
v -3 8 1
v -2 8 1
v 2 8 1
v 3 8 1
v -3 8 -0
v -2 8 -0
v 2 8 -0
v 3 8 -0
v -3 8 -4
v -2 8 -4
v 2 8 -4
v 3 8 -4
v -3 8 -5
v -2 8 -5
v 2 8 -5
v 3 8 -5
v -3 12 1
v -2 12 1
v 2 12 1
v 3 12 1
v -3 12 -0
v -2 12 -0
v 2 12 -0
v 3 12 -0
v -3 12 -4
v -2 12 -4
v 2 12 -4
v 3 12 -4
v -3 12 -5
v -2 12 -5
v 2 12 -5
v 3 12 -5
v -2 13 1
v 2 13 1
v -3 13 -0
v -2 13 -0
v 2 13 -0
v 3 13 -0
v -3 13 -4
v -2 13 -4
v 2 13 -4
v 3 13 -4
v -2 13 -5
v 2 13 -5

# faces
f 4/4/1 2/4/1 1/4/1
f 5/4/1 2/4/1 4/4/1
f 7/1/1 5/1/1 4/1/1
f 8/1/1 5/1/1 7/1/1
f 9/1/1 7/1/1 4/1/1
f 9/2/1 8/2/1 7/2/1
f 10/2/1 8/2/1 9/2/1
f 11/1/1 9/1/1 4/1/1
f 11/3/1 10/3/1 9/3/1
f 12/2/1 8/2/1 10/2/1
f 12/3/1 10/3/1 11/3/1
f 13/1/1 5/1/1 8/1/1
f 13/2/1 8/2/1 12/2/1
f 14/4/1 4/4/1 3/4/1
f 15/1/1 12/1/1 11/1/1
f 15/4/1 4/4/1 14/4/1
f 15/1/1 11/1/1 4/1/1
f 15/1/1 13/1/1 12/1/1
f 16/1/1 5/1/1 13/1/1
f 16/1/1 13/1/1 15/1/1
f 16/4/1 6/4/1 5/4/1
f 17/4/1 6/4/1 16/4/1
f 18/4/1 16/4/1 15/4/1
f 19/4/1 16/4/1 18/4/1
f 24/4/1 21/4/1 20/4/1
f 25/4/1 21/4/1 24/4/1
f 26/4/1 23/4/1 22/4/1
f 27/4/1 23/4/1 26/4/1
f 32/4/1 29/4/1 28/4/1
f 33/4/1 29/4/1 32/4/1
f 34/4/1 31/4/1 30/4/1
f 35/4/1 31/4/1 34/4/1
f 36/4/2 37/4/2 40/4/2
f 40/4/2 37/4/2 41/4/2
f 38/4/2 39/4/2 42/4/2
f 42/4/2 39/4/2 43/4/2
f 44/4/2 45/4/2 48/4/2
f 48/4/2 45/4/2 49/4/2
f 46/4/2 47/4/2 50/4/2
f 50/4/2 47/4/2 51/4/2
f 52/4/2 53/4/2 55/4/2
f 55/4/2 53/4/2 56/4/2
f 54/4/2 55/4/2 58/4/2
f 56/4/2 57/4/2 58/4/2
f 55/4/2 56/4/2 58/4/2
f 58/4/2 57/4/2 59/4/2
f 59/4/2 57/4/2 60/4/2
f 60/4/2 57/4/2 61/4/2
f 59/4/2 60/4/2 62/4/2
f 62/4/2 60/4/2 63/4/2
f 67/4/3 65/4/3 64/4/3
f 68/4/3 65/4/3 67/4/3
f 70/4/3 67/4/3 66/4/3
f 70/4/3 69/4/3 68/4/3
f 70/4/3 68/4/3 67/4/3
f 71/4/3 69/4/3 70/4/3
f 72/4/3 69/4/3 71/4/3
f 73/4/3 69/4/3 72/4/3
f 74/4/3 72/4/3 71/4/3
f 75/4/3 72/4/3 74/4/3
f 80/4/3 77/4/3 76/4/3
f 81/4/3 77/4/3 80/4/3
f 82/4/3 79/4/3 78/4/3
f 83/4/3 79/4/3 82/4/3
f 88/4/3 85/4/3 84/4/3
f 89/4/3 85/4/3 88/4/3
f 90/4/3 87/4/3 86/4/3
f 91/4/3 87/4/3 90/4/3
f 92/4/4 93/4/4 96/4/4
f 96/4/4 93/4/4 97/4/4
f 94/4/4 95/4/4 98/4/4
f 98/4/4 95/4/4 99/4/4
f 100/4/4 101/4/4 104/4/4
f 104/4/4 101/4/4 105/4/4
f 102/4/4 103/4/4 106/4/4
f 106/4/4 103/4/4 107/4/4
f 108/4/4 109/4/4 111/4/4
f 111/4/4 109/4/4 112/4/4
f 110/4/4 111/4/4 114/4/4
f 112/4/4 113/4/4 114/4/4
f 111/4/4 112/4/4 114/4/4
f 114/4/4 113/4/4 115/4/4
f 115/4/4 113/4/4 116/4/4
f 116/4/4 113/4/4 117/4/4
f 115/4/4 116/4/4 118/4/4
f 118/4/4 116/4/4 119/4/4
f 123/4/5 121/4/5 120/4/5
f 124/4/5 121/4/5 123/4/5
f 126/4/5 123/4/5 122/4/5
f 126/4/5 125/4/5 124/4/5
f 126/4/5 124/4/5 123/4/5
f 127/4/5 125/4/5 126/4/5
f 128/4/5 125/4/5 127/4/5
f 129/4/5 125/4/5 128/4/5
f 130/4/5 128/4/5 127/4/5
f 131/4/5 128/4/5 130/4/5
f 136/4/5 133/4/5 132/4/5
f 137/4/5 133/4/5 136/4/5
f 138/4/5 135/4/5 134/4/5
f 139/4/5 135/4/5 138/4/5
f 144/4/5 141/4/5 140/4/5
f 145/4/5 141/4/5 144/4/5
f 146/4/5 143/4/5 142/4/5
f 147/4/5 143/4/5 146/4/5
f 148/4/6 149/4/6 152/4/6
f 152/4/6 149/4/6 153/4/6
f 150/4/6 151/4/6 154/4/6
f 154/4/6 151/4/6 155/4/6
f 156/4/6 157/4/6 160/4/6
f 160/4/6 157/4/6 161/4/6
f 158/4/6 159/4/6 162/4/6
f 162/4/6 159/4/6 163/4/6
f 164/4/6 165/4/6 167/4/6
f 167/4/6 165/4/6 168/4/6
f 166/4/6 167/4/6 170/4/6
f 168/4/6 169/4/6 170/4/6
f 167/4/6 168/4/6 170/4/6
f 170/4/6 169/4/6 171/4/6
f 171/4/6 169/4/6 172/4/6
f 172/4/6 169/4/6 173/4/6
f 171/4/6 172/4/6 174/4/6
f 174/4/6 172/4/6 175/4/6
