# MagicaVoxel @ Ephtracy

# material
mtllib lancero.mtl
usemtl palette

# normals
vn -1 0 0
vn 1 0 0
vn 0 0 1
vn 0 0 -1
vn 0 -1 0
vn 0 1 0

# texcoords
vt 0.00195313 0.5
vt 0.0175781 0.5
vt 0.0214844 0.5
vt 0.0449219 0.5
vt 0.0488281 0.5

# verts
v -3 11 2
v -3 11 -4
v -3 12 3
v -3 12 2
v -3 12 -4
v -3 12 -5
v -3 18 3
v -3 18 2
v -3 18 -4
v -3 18 -5
v -3 19 2
v -3 19 -4
v -2 5 -0
v -2 5 -2
v -2 7 1
v -2 7 -0
v -2 7 -2
v -2 7 -3
v -2 8 1
v -2 8 -0
v -2 8 -2
v -2 8 -3
v -2 9 1
v -2 9 -0
v -2 9 -2
v -2 9 -3
v -2 10 2
v -2 10 -4
v -2 11 3
v -2 11 2
v -2 11 -4
v -2 11 -5
v -2 12 3
v -2 12 2
v -2 12 -4
v -2 12 -5
v -2 18 3
v -2 18 2
v -2 18 -4
v -2 18 -5
v -2 19 3
v -2 19 2
v -2 19 -4
v -2 19 -5
v -1 9 1
v -1 9 -0
v -1 9 -2
v -1 9 -3
v -1 10 1
v -1 10 -0
v -1 10 -2
v -1 10 -3
v 2 5 -0
v 2 5 -2
v 2 6 -0
v 2 6 -2
v 2 7 -0
v 2 7 -2
v 0 5 -0
v 0 5 -2
v 0 6 -0
v 0 6 -2
v 0 7 -0
v 0 7 -2
v 3 9 1
v 3 9 -0
v 3 9 -2
v 3 9 -3
v 3 10 1
v 3 10 -0
v 3 10 -2
v 3 10 -3
v 4 5 -0
v 4 5 -2
v 4 7 1
v 4 7 -0
v 4 7 -2
v 4 7 -3
v 4 8 1
v 4 8 -0
v 4 8 -2
v 4 8 -3
v 4 9 1
v 4 9 -0
v 4 9 -2
v 4 9 -3
v 4 10 2
v 4 10 -4
v 4 11 3
v 4 11 2
v 4 11 -4
v 4 11 -5
v 4 12 3
v 4 12 2
v 4 12 -4
v 4 12 -5
v 4 18 3
v 4 18 2
v 4 18 -4
v 4 18 -5
v 4 19 3
v 4 19 2
v 4 19 -4
v 4 19 -5
v 5 11 2
v 5 11 -4
v 5 12 3
v 5 12 2
v 5 12 -4
v 5 12 -5
v 5 18 3
v 5 18 2
v 5 18 -4
v 5 18 -5
v 5 19 2
v 5 19 -4
v -3 12 3
v -3 18 3
v -2 11 3
v -2 12 3
v -2 18 3
v -2 19 3
v 4 11 3
v 4 12 3
v 4 18 3
v 4 19 3
v 5 12 3
v 5 18 3
v -3 11 2
v -3 12 2
v -3 18 2
v -3 19 2
v -2 10 2
v -2 11 2
v -2 12 2
v -2 18 2
v -2 19 2
v 4 10 2
v 4 11 2
v 4 12 2
v 4 18 2
v 4 19 2
v 5 11 2
v 5 12 2
v 5 18 2
v 5 19 2
v -2 7 1
v -2 8 1
v -2 9 1
v -1 9 1
v -1 10 1
v 0 8 1
v 0 10 1
v 2 8 1
v 2 10 1
v 3 9 1
v 3 10 1
v 4 7 1
v 4 8 1
v 4 9 1
v -2 5 -0
v -2 7 -0
v -1 5 -0
v -1 6 -0
v 0 5 -0
v 0 6 -0
v 0 7 -0
v 2 5 -0
v 2 6 -0
v 2 7 -0
v 3 5 -0
v 3 6 -0
v 4 5 -0
v 4 7 -0
v -2 5 -2
v -2 7 -2
v -1 5 -2
v -1 6 -2
v 0 5 -2
v 0 6 -2
v 0 7 -2
v 2 5 -2
v 2 6 -2
v 2 7 -2
v 3 5 -2
v 3 6 -2
v 4 5 -2
v 4 7 -2
v -2 7 -3
v -2 8 -3
v -2 9 -3
v -1 9 -3
v -1 10 -3
v 0 8 -3
v 0 10 -3
v 2 8 -3
v 2 10 -3
v 3 9 -3
v 3 10 -3
v 4 7 -3
v 4 8 -3
v 4 9 -3
v -3 11 -4
v -3 12 -4
v -3 18 -4
v -3 19 -4
v -2 10 -4
v -2 11 -4
v -2 12 -4
v -2 18 -4
v -2 19 -4
v 4 10 -4
v 4 11 -4
v 4 12 -4
v 4 18 -4
v 4 19 -4
v 5 11 -4
v 5 12 -4
v 5 18 -4
v 5 19 -4
v -3 12 -5
v -3 18 -5
v -2 11 -5
v -2 12 -5
v -2 18 -5
v -2 19 -5
v -1 13 -5
v -1 17 -5
v 0 14 -5
v 0 16 -5
v 2 14 -5
v 2 16 -5
v 3 13 -5
v 3 17 -5
v 4 11 -5
v 4 12 -5
v 4 18 -5
v 4 19 -5
v 5 12 -5
v 5 18 -5
v -2 5 -0
v -1 5 -0
v 0 5 -0
v 2 5 -0
v 3 5 -0
v 4 5 -0
v -2 5 -2
v -1 5 -2
v 0 5 -2
v 2 5 -2
v 3 5 -2
v 4 5 -2
v -2 7 1
v 4 7 1
v -2 7 -0
v 0 7 -0
v 2 7 -0
v 4 7 -0
v -2 7 -2
v 0 7 -2
v 2 7 -2
v 4 7 -2
v -2 7 -3
v 4 7 -3
v -2 10 2
v 4 10 2
v -1 10 1
v 0 10 1
v 2 10 1
v 3 10 1
v -1 10 -0
v 3 10 -0
v -1 10 -2
v 3 10 -2
v -1 10 -3
v 0 10 -3
v 2 10 -3
v 3 10 -3
v -2 10 -4
v 4 10 -4
v -2 11 3
v 4 11 3
v -3 11 2
v -2 11 2
v 4 11 2
v 5 11 2
v -3 11 -4
v -2 11 -4
v 4 11 -4
v 5 11 -4
v -2 11 -5
v 4 11 -5
v -3 12 3
v -2 12 3
v 4 12 3
v 5 12 3
v -3 12 2
v -2 12 2
v 4 12 2
v 5 12 2
v -3 12 -4
v -2 12 -4
v 4 12 -4
v 5 12 -4
v -3 12 -5
v -2 12 -5
v 4 12 -5
v 5 12 -5
v -2 9 1
v -1 9 1
v 3 9 1
v 4 9 1
v -2 9 -0
v -1 9 -0
v 3 9 -0
v 4 9 -0
v -2 9 -2
v -1 9 -2
v 3 9 -2
v 4 9 -2
v -2 9 -3
v -1 9 -3
v 3 9 -3
v 4 9 -3
v -3 18 3
v -2 18 3
v 4 18 3
v 5 18 3
v -3 18 2
v -2 18 2
v 4 18 2
v 5 18 2
v -3 18 -4
v -2 18 -4
v 4 18 -4
v 5 18 -4
v -3 18 -5
v -2 18 -5
v 4 18 -5
v 5 18 -5
v -2 19 3
v 4 19 3
v -3 19 2
v -2 19 2
v 4 19 2
v 5 19 2
v -3 19 -4
v -2 19 -4
v 4 19 -4
v 5 19 -4
v -2 19 -5
v 4 19 -5

# faces
f 4/5/1 2/5/1 1/5/1
f 5/5/1 2/5/1 4/5/1
f 7/5/1 4/5/1 3/5/1
f 7/5/1 6/5/1 5/5/1
f 7/5/1 5/5/1 4/5/1
f 8/5/1 6/5/1 7/5/1
f 9/5/1 6/5/1 8/5/1
f 10/5/1 6/5/1 9/5/1
f 11/5/1 9/5/1 8/5/1
f 12/5/1 9/5/1 11/5/1
f 16/5/1 14/5/1 13/5/1
f 17/5/1 14/5/1 16/5/1
f 19/1/1 16/1/1 15/1/1
f 19/1/1 18/1/1 17/1/1
f 19/1/1 17/1/1 16/1/1
f 20/1/1 18/1/1 19/1/1
f 21/1/1 18/1/1 20/1/1
f 22/1/1 18/1/1 21/1/1
f 23/5/1 20/5/1 19/5/1
f 24/1/1 21/1/1 20/1/1
f 24/5/1 20/5/1 23/5/1
f 25/5/1 22/5/1 21/5/1
f 25/1/1 21/1/1 24/1/1
f 26/5/1 22/5/1 25/5/1
f 30/1/1 28/1/1 27/1/1
f 31/1/1 28/1/1 30/1/1
f 33/5/1 30/5/1 29/5/1
f 34/5/1 30/5/1 33/5/1
f 35/5/1 32/5/1 31/5/1
f 36/5/1 32/5/1 35/5/1
f 41/5/1 38/5/1 37/5/1
f 42/5/1 38/5/1 41/5/1
f 43/5/1 40/5/1 39/5/1
f 44/5/1 40/5/1 43/5/1
f 49/5/1 46/5/1 45/5/1
f 50/1/1 47/1/1 46/1/1
f 50/5/1 46/5/1 49/5/1
f 51/5/1 48/5/1 47/5/1
f 51/1/1 47/1/1 50/1/1
f 52/5/1 48/5/1 51/5/1
f 55/4/1 54/4/1 53/4/1
f 56/4/1 54/4/1 55/4/1
f 57/5/1 56/5/1 55/5/1
f 58/5/1 56/5/1 57/5/1
f 59/4/2 60/4/2 61/4/2
f 61/4/2 60/4/2 62/4/2
f 61/5/2 62/5/2 63/5/2
f 63/5/2 62/5/2 64/5/2
f 65/5/2 66/5/2 69/5/2
f 66/1/2 67/1/2 70/1/2
f 69/5/2 66/5/2 70/5/2
f 67/5/2 68/5/2 71/5/2
f 70/1/2 67/1/2 71/1/2
f 71/5/2 68/5/2 72/5/2
f 73/5/2 74/5/2 76/5/2
f 76/5/2 74/5/2 77/5/2
f 75/1/2 76/1/2 79/1/2
f 77/1/2 78/1/2 79/1/2
f 76/1/2 77/1/2 79/1/2
f 79/1/2 78/1/2 80/1/2
f 80/1/2 78/1/2 81/1/2
f 81/1/2 78/1/2 82/1/2
f 79/5/2 80/5/2 83/5/2
f 80/1/2 81/1/2 84/1/2
f 83/5/2 80/5/2 84/5/2
f 81/5/2 82/5/2 85/5/2
f 84/1/2 81/1/2 85/1/2
f 85/5/2 82/5/2 86/5/2
f 87/1/2 88/1/2 90/1/2
f 90/1/2 88/1/2 91/1/2
f 89/5/2 90/5/2 93/5/2
f 93/5/2 90/5/2 94/5/2
f 91/5/2 92/5/2 95/5/2
f 95/5/2 92/5/2 96/5/2
f 97/5/2 98/5/2 101/5/2
f 101/5/2 98/5/2 102/5/2
f 99/5/2 100/5/2 103/5/2
f 103/5/2 100/5/2 104/5/2
f 105/5/2 106/5/2 108/5/2
f 108/5/2 106/5/2 109/5/2
f 107/5/2 108/5/2 111/5/2
f 109/5/2 110/5/2 111/5/2
f 108/5/2 109/5/2 111/5/2
f 111/5/2 110/5/2 112/5/2
f 112/5/2 110/5/2 113/5/2
f 113/5/2 110/5/2 114/5/2
f 112/5/2 113/5/2 115/5/2
f 115/5/2 113/5/2 116/5/2
f 120/5/3 118/5/3 117/5/3
f 121/5/3 118/5/3 120/5/3
f 123/5/3 120/5/3 119/5/3
f 123/5/3 122/5/3 121/5/3
f 123/5/3 121/5/3 120/5/3
f 124/5/3 122/5/3 123/5/3
f 125/5/3 122/5/3 124/5/3
f 126/5/3 122/5/3 125/5/3
f 127/5/3 125/5/3 124/5/3
f 128/5/3 125/5/3 127/5/3
f 134/5/3 130/5/3 129/5/3
f 135/5/3 130/5/3 134/5/3
f 136/5/3 132/5/3 131/5/3
f 137/5/3 132/5/3 136/5/3
f 138/1/3 134/1/3 133/1/3
f 139/1/3 134/1/3 138/1/3
f 143/5/3 140/5/3 139/5/3
f 144/5/3 140/5/3 143/5/3
f 145/5/3 142/5/3 141/5/3
f 146/5/3 142/5/3 145/5/3
f 150/5/3 149/5/3 148/5/3
f 152/1/3 148/1/3 147/1/3
f 152/5/3 151/5/3 150/5/3
f 152/5/3 150/5/3 148/5/3
f 153/5/3 151/5/3 152/5/3
f 154/1/3 152/1/3 147/1/3
f 154/1/3 153/1/3 152/1/3
f 155/1/3 153/1/3 154/1/3
f 156/5/3 155/5/3 154/5/3
f 157/5/3 155/5/3 156/5/3
f 158/1/3 154/1/3 147/1/3
f 159/5/3 156/5/3 154/5/3
f 159/1/3 154/1/3 158/1/3
f 160/5/3 156/5/3 159/5/3
f 163/5/3 162/5/3 161/5/3
f 164/5/3 162/5/3 163/5/3
f 165/4/3 164/4/3 163/4/3
f 166/5/3 162/5/3 164/5/3
f 166/4/3 164/4/3 165/4/3
f 167/5/3 162/5/3 166/5/3
f 171/4/3 169/4/3 168/4/3
f 172/5/3 170/5/3 169/5/3
f 172/4/3 169/4/3 171/4/3
f 173/5/3 172/5/3 171/5/3
f 174/5/3 170/5/3 172/5/3
f 174/5/3 172/5/3 173/5/3
f 175/5/4 176/5/4 177/5/4
f 177/5/4 176/5/4 178/5/4
f 177/4/4 178/4/4 179/4/4
f 178/5/4 176/5/4 180/5/4
f 179/4/4 178/4/4 180/4/4
f 180/5/4 176/5/4 181/5/4
f 182/4/4 183/4/4 185/4/4
f 183/5/4 184/5/4 186/5/4
f 185/4/4 183/4/4 186/4/4
f 185/5/4 186/5/4 187/5/4
f 186/5/4 184/5/4 188/5/4
f 187/5/4 186/5/4 188/5/4
f 190/5/4 191/5/4 192/5/4
f 189/1/4 190/1/4 194/1/4
f 192/5/4 193/5/4 194/5/4
f 190/5/4 192/5/4 194/5/4
f 194/5/4 193/5/4 195/5/4
f 189/1/4 194/1/4 196/1/4
f 194/1/4 195/1/4 196/1/4
f 196/1/4 195/1/4 197/1/4
f 196/5/4 197/5/4 198/5/4
f 198/5/4 197/5/4 199/5/4
f 189/1/4 196/1/4 200/1/4
f 196/5/4 198/5/4 201/5/4
f 200/1/4 196/1/4 201/1/4
f 201/5/4 198/5/4 202/5/4
f 203/5/4 204/5/4 208/5/4
f 208/5/4 204/5/4 209/5/4
f 205/5/4 206/5/4 210/5/4
f 210/5/4 206/5/4 211/5/4
f 207/1/4 208/1/4 212/1/4
f 212/1/4 208/1/4 213/1/4
f 213/5/4 214/5/4 217/5/4
f 217/5/4 214/5/4 218/5/4
f 215/5/4 216/5/4 219/5/4
f 219/5/4 216/5/4 220/5/4
f 221/5/4 222/5/4 224/5/4
f 224/5/4 222/5/4 225/5/4
f 223/5/4 224/5/4 227/5/4
f 225/5/4 226/5/4 227/5/4
f 224/5/4 225/5/4 227/5/4
f 227/5/4 226/5/4 228/5/4
f 227/2/4 228/2/4 229/2/4
f 229/2/4 228/2/4 230/2/4
f 227/2/4 229/2/4 231/2/4
f 229/3/4 230/3/4 231/3/4
f 230/2/4 228/2/4 232/2/4
f 231/3/4 230/3/4 232/3/4
f 223/5/4 227/5/4 233/5/4
f 227/2/4 231/2/4 233/2/4
f 231/2/4 232/2/4 233/2/4
f 232/2/4 228/2/4 234/2/4
f 233/2/4 232/2/4 234/2/4
f 228/5/4 226/5/4 234/5/4
f 223/5/4 233/5/4 235/5/4
f 233/5/4 234/5/4 235/5/4
f 235/5/4 234/5/4 236/5/4
f 234/5/4 226/5/4 237/5/4
f 236/5/4 234/5/4 237/5/4
f 237/5/4 226/5/4 238/5/4
f 236/5/4 237/5/4 239/5/4
f 239/5/4 237/5/4 240/5/4
f 247/5/5 242/5/5 241/5/5
f 248/4/5 243/4/5 242/4/5
f 248/5/5 242/5/5 247/5/5
f 249/4/5 243/4/5 248/4/5
f 250/4/5 245/4/5 244/4/5
f 251/5/5 246/5/5 245/5/5
f 251/4/5 245/4/5 250/4/5
f 252/5/5 246/5/5 251/5/5
f 255/1/5 254/1/5 253/1/5
f 256/1/5 254/1/5 255/1/5
f 257/1/5 254/1/5 256/1/5
f 258/1/5 254/1/5 257/1/5
f 260/4/5 257/4/5 256/4/5
f 261/4/5 257/4/5 260/4/5
f 263/1/5 260/1/5 259/1/5
f 263/1/5 262/1/5 261/1/5
f 263/1/5 261/1/5 260/1/5
f 264/1/5 262/1/5 263/1/5
f 267/1/5 266/1/5 265/1/5
f 268/1/5 266/1/5 267/1/5
f 269/1/5 266/1/5 268/1/5
f 270/1/5 266/1/5 269/1/5
f 271/1/5 267/1/5 265/1/5
f 272/1/5 266/1/5 270/1/5
f 273/1/5 271/1/5 265/1/5
f 274/1/5 266/1/5 272/1/5
f 275/1/5 273/1/5 265/1/5
f 278/1/5 266/1/5 274/1/5
f 279/1/5 277/1/5 276/1/5
f 279/1/5 278/1/5 277/1/5
f 279/1/5 275/1/5 265/1/5
f 279/1/5 276/1/5 275/1/5
f 280/1/5 266/1/5 278/1/5
f 280/1/5 278/1/5 279/1/5
f 284/5/5 282/5/5 281/5/5
f 285/5/5 282/5/5 284/5/5
f 287/5/5 284/5/5 283/5/5
f 288/5/5 284/5/5 287/5/5
f 289/5/5 286/5/5 285/5/5
f 290/5/5 286/5/5 289/5/5
f 291/5/5 289/5/5 288/5/5
f 292/5/5 289/5/5 291/5/5
f 297/5/5 294/5/5 293/5/5
f 298/5/5 294/5/5 297/5/5
f 299/5/5 296/5/5 295/5/5
f 300/5/5 296/5/5 299/5/5
f 305/5/5 302/5/5 301/5/5
f 306/5/5 302/5/5 305/5/5
f 307/5/5 304/5/5 303/5/5
f 308/5/5 304/5/5 307/5/5
f 309/5/6 310/5/6 313/5/6
f 313/5/6 310/5/6 314/5/6
f 311/5/6 312/5/6 315/5/6
f 315/5/6 312/5/6 316/5/6
f 313/1/6 314/1/6 317/1/6
f 317/1/6 314/1/6 318/1/6
f 315/1/6 316/1/6 319/1/6
f 319/1/6 316/1/6 320/1/6
f 317/5/6 318/5/6 321/5/6
f 321/5/6 318/5/6 322/5/6
f 319/5/6 320/5/6 323/5/6
f 323/5/6 320/5/6 324/5/6
f 325/5/6 326/5/6 329/5/6
f 329/5/6 326/5/6 330/5/6
f 327/5/6 328/5/6 331/5/6
f 331/5/6 328/5/6 332/5/6
f 333/5/6 334/5/6 337/5/6
f 337/5/6 334/5/6 338/5/6
f 335/5/6 336/5/6 339/5/6
f 339/5/6 336/5/6 340/5/6
f 341/5/6 342/5/6 344/5/6
f 344/5/6 342/5/6 345/5/6
f 343/5/6 344/5/6 347/5/6
f 345/5/6 346/5/6 347/5/6
f 344/5/6 345/5/6 347/5/6
f 347/5/6 346/5/6 348/5/6
f 348/5/6 346/5/6 349/5/6
f 349/5/6 346/5/6 350/5/6
f 348/5/6 349/5/6 351/5/6
f 351/5/6 349/5/6 352/5/6
