# MagicaVoxel @ Ephtracy

# material
mtllib cofre.mtl
usemtl palette

# normals
vn -1 0 0
vn 1 0 0
vn 0 0 1
vn 0 0 -1
vn 0 -1 0
vn 0 1 0

# texcoords
vt 0.00195313 0.5
vt 0.00585938 0.5
vt 0.0449219 0.5
vt 0.0761719 0.5

# verts
v 0 5 -3
v 0 5 -11
v 0 10 -3
v 0 10 -11
v 0 11 -3
v 0 11 -11
v 0 12 -3
v 0 12 -4
v 0 12 -10
v 0 12 -11
v 0 13 -4
v 0 13 -10
v 1 12 -3
v 1 12 -4
v 1 12 -10
v 1 12 -11
v 1 13 -3
v 1 13 -4
v 1 13 -10
v 1 13 -11
v 2 7 -3
v 2 7 -4
v 2 10 -3
v 2 10 -4
v 2 11 -3
v 2 11 -4
v 2 12 -5
v 2 12 -9
v 2 13 -5
v 2 13 -9
v 5 12 -6
v 5 12 -8
v 5 13 -6
v 5 13 -8
v 8 12 -6
v 8 12 -8
v 8 13 -6
v 8 13 -8
v 11 12 -6
v 11 12 -8
v 11 13 -6
v 11 13 -8
v 12 12 -4
v 12 12 -5
v 12 12 -9
v 12 12 -10
v 12 13 -4
v 12 13 -5
v 12 13 -9
v 12 13 -10
v 13 6 -3
v 13 6 -4
v 13 10 -3
v 13 10 -4
v 13 11 -3
v 13 11 -4
v 13 12 -5
v 13 12 -9
v 13 13 -5
v 13 13 -9
v 1 6 -3
v 1 6 -4
v 1 10 -3
v 1 10 -4
v 1 11 -3
v 1 11 -4
v 1 12 -5
v 1 12 -9
v 1 13 -5
v 1 13 -9
v 2 12 -4
v 2 12 -5
v 2 12 -9
v 2 12 -10
v 2 13 -4
v 2 13 -5
v 2 13 -9
v 2 13 -10
v 3 12 -6
v 3 12 -8
v 3 13 -6
v 3 13 -8
v 6 12 -6
v 6 12 -8
v 6 13 -6
v 6 13 -8
v 9 12 -6
v 9 12 -8
v 9 13 -6
v 9 13 -8
v 12 7 -3
v 12 7 -4
v 12 10 -3
v 12 10 -4
v 12 11 -3
v 12 11 -4
v 12 12 -5
v 12 12 -9
v 12 13 -5
v 12 13 -9
v 13 12 -3
v 13 12 -4
v 13 12 -10
v 13 12 -11
v 13 13 -3
v 13 13 -4
v 13 13 -10
v 13 13 -11
v 14 5 -3
v 14 5 -11
v 14 10 -3
v 14 10 -11
v 14 11 -3
v 14 11 -11
v 14 12 -3
v 14 12 -4
v 14 12 -10
v 14 12 -11
v 14 13 -4
v 14 13 -10
v 0 5 -3
v 0 10 -3
v 0 11 -3
v 0 12 -3
v 1 6 -3
v 1 10 -3
v 1 11 -3
v 1 12 -3
v 1 13 -3
v 2 7 -3
v 2 10 -3
v 2 11 -3
v 6 9 -3
v 6 10 -3
v 6 11 -3
v 8 9 -3
v 8 10 -3
v 8 11 -3
v 12 7 -3
v 12 10 -3
v 12 11 -3
v 13 6 -3
v 13 10 -3
v 13 11 -3
v 13 12 -3
v 13 13 -3
v 14 5 -3
v 14 10 -3
v 14 11 -3
v 14 12 -3
v 0 12 -4
v 0 13 -4
v 1 6 -4
v 1 10 -4
v 1 11 -4
v 1 12 -4
v 1 13 -4
v 2 7 -4
v 2 10 -4
v 2 11 -4
v 12 7 -4
v 12 10 -4
v 12 11 -4
v 13 6 -4
v 13 10 -4
v 13 11 -4
v 13 12 -4
v 13 13 -4
v 14 12 -4
v 14 13 -4
v 2 12 -5
v 2 13 -5
v 12 12 -5
v 12 13 -5
v 3 12 -8
v 3 13 -8
v 5 12 -8
v 5 13 -8
v 6 12 -8
v 6 13 -8
v 8 12 -8
v 8 13 -8
v 9 12 -8
v 9 13 -8
v 11 12 -8
v 11 13 -8
v 1 12 -9
v 1 13 -9
v 2 12 -9
v 2 13 -9
v 12 12 -9
v 12 13 -9
v 13 12 -9
v 13 13 -9
v 2 12 -10
v 2 13 -10
v 12 12 -10
v 12 13 -10
v 2 12 -4
v 2 13 -4
v 12 12 -4
v 12 13 -4
v 1 12 -5
v 1 13 -5
v 2 12 -5
v 2 13 -5
v 12 12 -5
v 12 13 -5
v 13 12 -5
v 13 13 -5
v 3 12 -6
v 3 13 -6
v 5 12 -6
v 5 13 -6
v 6 12 -6
v 6 13 -6
v 8 12 -6
v 8 13 -6
v 9 12 -6
v 9 13 -6
v 11 12 -6
v 11 13 -6
v 2 12 -9
v 2 13 -9
v 12 12 -9
v 12 13 -9
v 0 12 -10
v 0 13 -10
v 1 12 -10
v 1 13 -10
v 13 12 -10
v 13 13 -10
v 14 12 -10
v 14 13 -10
v 0 5 -11
v 0 10 -11
v 0 11 -11
v 0 12 -11
v 1 12 -11
v 1 13 -11
v 13 12 -11
v 13 13 -11
v 14 5 -11
v 14 10 -11
v 14 11 -11
v 14 12 -11
v 0 5 -3
v 14 5 -3
v 0 5 -11
v 14 5 -11
v 2 7 -3
v 12 7 -3
v 2 7 -4
v 12 7 -4
v 1 11 -3
v 2 11 -3
v 12 11 -3
v 13 11 -3
v 1 11 -4
v 2 11 -4
v 12 11 -4
v 13 11 -4
v 1 6 -3
v 13 6 -3
v 1 6 -4
v 13 6 -4
v 0 12 -3
v 1 12 -3
v 13 12 -3
v 14 12 -3
v 0 12 -4
v 1 12 -4
v 2 12 -4
v 12 12 -4
v 13 12 -4
v 14 12 -4
v 1 12 -5
v 2 12 -5
v 12 12 -5
v 13 12 -5
v 3 12 -6
v 5 12 -6
v 6 12 -6
v 8 12 -6
v 9 12 -6
v 11 12 -6
v 3 12 -8
v 5 12 -8
v 6 12 -8
v 8 12 -8
v 9 12 -8
v 11 12 -8
v 1 12 -9
v 2 12 -9
v 12 12 -9
v 13 12 -9
v 0 12 -10
v 1 12 -10
v 2 12 -10
v 12 12 -10
v 13 12 -10
v 14 12 -10
v 0 12 -11
v 1 12 -11
v 13 12 -11
v 14 12 -11
v 1 13 -3
v 13 13 -3
v 0 13 -4
v 1 13 -4
v 2 13 -4
v 12 13 -4
v 13 13 -4
v 14 13 -4
v 1 13 -5
v 2 13 -5
v 12 13 -5
v 13 13 -5
v 3 13 -6
v 5 13 -6
v 6 13 -6
v 8 13 -6
v 9 13 -6
v 11 13 -6
v 3 13 -8
v 5 13 -8
v 6 13 -8
v 8 13 -8
v 9 13 -8
v 11 13 -8
v 1 13 -9
v 2 13 -9
v 12 13 -9
v 13 13 -9
v 0 13 -10
v 1 13 -10
v 2 13 -10
v 12 13 -10
v 13 13 -10
v 14 13 -10
v 1 13 -11
v 13 13 -11

# faces
f 3/3/1 2/3/1 1/3/1
f 4/3/1 2/3/1 3/3/1
f 5/1/1 4/1/1 3/1/1
f 6/1/1 4/1/1 5/1/1
f 7/3/1 6/3/1 5/3/1
f 8/3/1 6/3/1 7/3/1
f 9/3/1 6/3/1 8/3/1
f 10/3/1 6/3/1 9/3/1
f 11/3/1 9/3/1 8/3/1
f 12/3/1 9/3/1 11/3/1
f 17/3/1 14/3/1 13/3/1
f 18/3/1 14/3/1 17/3/1
f 19/3/1 16/3/1 15/3/1
f 20/3/1 16/3/1 19/3/1
f 23/3/1 22/3/1 21/3/1
f 24/3/1 22/3/1 23/3/1
f 25/1/1 24/1/1 23/1/1
f 26/1/1 24/1/1 25/1/1
f 29/3/1 28/3/1 27/3/1
f 30/3/1 28/3/1 29/3/1
f 33/3/1 32/3/1 31/3/1
f 34/3/1 32/3/1 33/3/1
f 37/3/1 36/3/1 35/3/1
f 38/3/1 36/3/1 37/3/1
f 41/3/1 40/3/1 39/3/1
f 42/3/1 40/3/1 41/3/1
f 47/3/1 44/3/1 43/3/1
f 48/3/1 44/3/1 47/3/1
f 49/3/1 46/3/1 45/3/1
f 50/3/1 46/3/1 49/3/1
f 53/3/1 52/3/1 51/3/1
f 54/3/1 52/3/1 53/3/1
f 55/1/1 54/1/1 53/1/1
f 56/1/1 54/1/1 55/1/1
f 59/3/1 58/3/1 57/3/1
f 60/3/1 58/3/1 59/3/1
f 61/3/2 62/3/2 63/3/2
f 63/3/2 62/3/2 64/3/2
f 63/1/2 64/1/2 65/1/2
f 65/1/2 64/1/2 66/1/2
f 67/3/2 68/3/2 69/3/2
f 69/3/2 68/3/2 70/3/2
f 71/3/2 72/3/2 75/3/2
f 75/3/2 72/3/2 76/3/2
f 73/3/2 74/3/2 77/3/2
f 77/3/2 74/3/2 78/3/2
f 79/3/2 80/3/2 81/3/2
f 81/3/2 80/3/2 82/3/2
f 83/3/2 84/3/2 85/3/2
f 85/3/2 84/3/2 86/3/2
f 87/3/2 88/3/2 89/3/2
f 89/3/2 88/3/2 90/3/2
f 91/3/2 92/3/2 93/3/2
f 93/3/2 92/3/2 94/3/2
f 93/1/2 94/1/2 95/1/2
f 95/1/2 94/1/2 96/1/2
f 97/3/2 98/3/2 99/3/2
f 99/3/2 98/3/2 100/3/2
f 101/3/2 102/3/2 105/3/2
f 105/3/2 102/3/2 106/3/2
f 103/3/2 104/3/2 107/3/2
f 107/3/2 104/3/2 108/3/2
f 109/3/2 110/3/2 111/3/2
f 111/3/2 110/3/2 112/3/2
f 111/1/2 112/1/2 113/1/2
f 113/1/2 112/1/2 114/1/2
f 113/3/2 114/3/2 115/3/2
f 115/3/2 114/3/2 116/3/2
f 116/3/2 114/3/2 117/3/2
f 117/3/2 114/3/2 118/3/2
f 116/3/2 117/3/2 119/3/2
f 119/3/2 117/3/2 120/3/2
f 125/3/3 122/3/3 121/3/3
f 126/1/3 123/1/3 122/1/3
f 126/3/3 122/3/3 125/3/3
f 127/3/3 124/3/3 123/3/3
f 127/1/3 123/1/3 126/1/3
f 128/3/3 124/3/3 127/3/3
f 132/3/3 129/3/3 128/3/3
f 132/3/3 128/3/3 127/3/3
f 133/3/3 131/3/3 130/3/3
f 134/1/3 132/1/3 131/1/3
f 134/3/3 131/3/3 133/3/3
f 135/3/3 129/3/3 132/3/3
f 135/1/3 132/1/3 134/1/3
f 136/3/3 133/3/3 130/3/3
f 136/4/3 134/4/3 133/4/3
f 136/4/3 135/4/3 134/4/3
f 137/4/3 135/4/3 136/4/3
f 138/3/3 129/3/3 135/3/3
f 138/4/3 135/4/3 137/4/3
f 139/3/3 137/3/3 136/3/3
f 139/3/3 136/3/3 130/3/3
f 140/1/3 138/1/3 137/1/3
f 140/3/3 137/3/3 139/3/3
f 141/3/3 129/3/3 138/3/3
f 141/1/3 138/1/3 140/1/3
f 142/3/3 125/3/3 121/3/3
f 144/3/3 129/3/3 141/3/3
f 145/3/3 129/3/3 144/3/3
f 146/3/3 129/3/3 145/3/3
f 147/3/3 143/3/3 142/3/3
f 147/3/3 142/3/3 121/3/3
f 148/1/3 144/1/3 143/1/3
f 148/3/3 143/3/3 147/3/3
f 149/3/3 145/3/3 144/3/3
f 149/1/3 144/1/3 148/1/3
f 150/3/3 145/3/3 149/3/3
f 156/3/3 152/3/3 151/3/3
f 157/3/3 152/3/3 156/3/3
f 158/2/3 155/2/3 154/2/3
f 158/2/3 154/2/3 153/2/3
f 159/2/3 155/2/3 158/2/3
f 160/2/3 155/2/3 159/2/3
f 161/2/3 158/2/3 153/2/3
f 164/2/3 161/2/3 153/2/3
f 164/2/3 163/2/3 162/2/3
f 164/2/3 162/2/3 161/2/3
f 165/2/3 163/2/3 164/2/3
f 166/2/3 163/2/3 165/2/3
f 169/3/3 168/3/3 167/3/3
f 170/3/3 168/3/3 169/3/3
f 173/3/3 172/3/3 171/3/3
f 174/3/3 172/3/3 173/3/3
f 177/3/3 176/3/3 175/3/3
f 178/3/3 176/3/3 177/3/3
f 181/3/3 180/3/3 179/3/3
f 182/3/3 180/3/3 181/3/3
f 185/3/3 184/3/3 183/3/3
f 186/3/3 184/3/3 185/3/3
f 189/3/3 188/3/3 187/3/3
f 190/3/3 188/3/3 189/3/3
f 193/3/3 192/3/3 191/3/3
f 194/3/3 192/3/3 193/3/3
f 197/3/3 196/3/3 195/3/3
f 198/3/3 196/3/3 197/3/3
f 199/3/4 200/3/4 201/3/4
f 201/3/4 200/3/4 202/3/4
f 203/3/4 204/3/4 205/3/4
f 205/3/4 204/3/4 206/3/4
f 207/3/4 208/3/4 209/3/4
f 209/3/4 208/3/4 210/3/4
f 211/3/4 212/3/4 213/3/4
f 213/3/4 212/3/4 214/3/4
f 215/3/4 216/3/4 217/3/4
f 217/3/4 216/3/4 218/3/4
f 219/3/4 220/3/4 221/3/4
f 221/3/4 220/3/4 222/3/4
f 223/3/4 224/3/4 225/3/4
f 225/3/4 224/3/4 226/3/4
f 227/3/4 228/3/4 229/3/4
f 229/3/4 228/3/4 230/3/4
f 231/3/4 232/3/4 233/3/4
f 233/3/4 232/3/4 234/3/4
f 237/3/4 238/3/4 239/3/4
f 237/3/4 239/3/4 241/3/4
f 239/3/4 240/3/4 241/3/4
f 241/3/4 240/3/4 242/3/4
f 235/3/4 236/3/4 243/3/4
f 236/1/4 237/1/4 244/1/4
f 243/3/4 236/3/4 244/3/4
f 237/3/4 241/3/4 245/3/4
f 244/1/4 237/1/4 245/1/4
f 245/3/4 241/3/4 246/3/4
f 249/3/5 248/3/5 247/3/5
f 250/3/5 248/3/5 249/3/5
f 253/3/5 252/3/5 251/3/5
f 254/3/5 252/3/5 253/3/5
f 259/3/5 256/3/5 255/3/5
f 260/3/5 256/3/5 259/3/5
f 261/3/5 258/3/5 257/3/5
f 262/3/5 258/3/5 261/3/5
f 263/3/6 264/3/6 265/3/6
f 265/3/6 264/3/6 266/3/6
f 267/3/6 268/3/6 271/3/6
f 271/3/6 268/3/6 272/3/6
f 269/3/6 270/3/6 275/3/6
f 275/3/6 270/3/6 276/3/6
f 273/2/6 274/2/6 278/2/6
f 278/2/6 274/2/6 279/2/6
f 281/2/6 282/2/6 287/2/6
f 287/2/6 282/2/6 288/2/6
f 283/2/6 284/2/6 289/2/6
f 289/2/6 284/2/6 290/2/6
f 285/2/6 286/2/6 291/2/6
f 291/2/6 286/2/6 292/2/6
f 277/2/6 278/2/6 293/2/6
f 293/2/6 278/2/6 294/2/6
f 279/2/6 280/2/6 295/2/6
f 295/2/6 280/2/6 296/2/6
f 294/2/6 295/2/6 299/2/6
f 299/2/6 295/2/6 300/2/6
f 297/3/6 298/3/6 303/3/6
f 303/3/6 298/3/6 304/3/6
f 301/3/6 302/3/6 305/3/6
f 305/3/6 302/3/6 306/3/6
f 307/3/6 308/3/6 310/3/6
f 310/3/6 308/3/6 311/3/6
f 311/3/6 308/3/6 312/3/6
f 312/3/6 308/3/6 313/3/6
f 309/3/6 310/3/6 315/3/6
f 310/3/6 311/3/6 315/3/6
f 315/3/6 311/3/6 316/3/6
f 313/3/6 314/3/6 317/3/6
f 312/3/6 313/3/6 317/3/6
f 317/3/6 314/3/6 318/3/6
f 316/3/6 317/3/6 319/3/6
f 319/3/6 317/3/6 320/3/6
f 320/3/6 317/3/6 321/3/6
f 321/3/6 317/3/6 322/3/6
f 322/3/6 317/3/6 323/3/6
f 323/3/6 317/3/6 324/3/6
f 316/3/6 319/3/6 325/3/6
f 320/3/6 321/3/6 326/3/6
f 326/3/6 321/3/6 327/3/6
f 322/3/6 323/3/6 328/3/6
f 328/3/6 323/3/6 329/3/6
f 324/3/6 317/3/6 330/3/6
f 309/3/6 315/3/6 331/3/6
f 329/3/6 330/3/6 332/3/6
f 328/3/6 329/3/6 332/3/6
f 326/3/6 327/3/6 332/3/6
f 316/3/6 325/3/6 332/3/6
f 327/3/6 328/3/6 332/3/6
f 325/3/6 326/3/6 332/3/6
f 330/3/6 317/3/6 333/3/6
f 332/3/6 330/3/6 333/3/6
f 318/3/6 314/3/6 334/3/6
f 309/3/6 331/3/6 335/3/6
f 331/3/6 332/3/6 335/3/6
f 335/3/6 332/3/6 336/3/6
f 336/3/6 332/3/6 337/3/6
f 333/3/6 334/3/6 338/3/6
f 334/3/6 314/3/6 339/3/6
f 338/3/6 334/3/6 339/3/6
f 339/3/6 314/3/6 340/3/6
f 336/3/6 337/3/6 341/3/6
f 337/3/6 338/3/6 341/3/6
f 338/3/6 339/3/6 341/3/6
f 341/3/6 339/3/6 342/3/6
