# MagicaVoxel @ Ephtracy

# material
mtllib manueleth.mtl
usemtl palette

# normals
vn -1 0 0
vn 1 0 0
vn 0 0 1
vn 0 0 -1
vn 0 -1 0
vn 0 1 0

# texcoords
vt 0.00585938 0.5
vt 0.0371094 0.5
vt 0.0644531 0.5
vt 0.0878906 0.5
vt 0.0917969 0.5
vt 0.123047 0.5

# verts
v -6 16 6
v -6 16 -0
v -6 19 7
v -6 19 6
v -6 23 7
v -6 23 -0
v -5 20 8
v -5 20 7
v -5 20 -0
v -5 20 -1
v -5 22 8
v -5 22 7
v -5 22 -0
v -5 22 -1
v -5 23 7
v -5 23 -0
v -5 24 7
v -5 24 -0
v -4 7 8
v -4 7 -1
v -4 8 8
v -4 8 -1
v -4 17 6
v -4 17 -0
v -4 19 7
v -4 19 6
v -4 20 8
v -4 20 7
v -4 20 -0
v -4 20 -1
v -4 22 8
v -4 22 7
v -4 22 -0
v -4 22 -1
v -4 23 8
v -4 23 7
v -4 23 -0
v -4 23 -1
v -4 24 7
v -4 24 -0
v -4 25 7
v -4 25 -0
v -3 13 10
v -3 13 8
v -3 13 -1
v -3 13 -3
v -3 14 11
v -3 14 10
v -3 14 -3
v -3 14 -4
v -3 17 11
v -3 17 8
v -3 17 -1
v -3 17 -4
v -3 23 8
v -3 23 7
v -3 23 -0
v -3 23 -1
v -3 24 8
v -3 24 7
v -3 24 -0
v -3 24 -1
v -1 0 8
v -1 0 7
v -1 7 8
v -1 7 7
v 0 11 10
v 0 11 9
v 0 11 -2
v 0 11 -3
v 0 12 11
v 0 12 10
v 0 12 9
v 0 12 8
v 0 12 -1
v 0 12 -2
v 0 12 -3
v 0 12 -4
v 0 13 12
v 0 13 11
v 0 13 10
v 0 13 8
v 0 13 -1
v 0 13 -3
v 0 13 -4
v 0 13 -5
v 0 14 11
v 0 14 10
v 0 14 -3
v 0 14 -4
v 0 17 12
v 0 17 11
v 0 17 -4
v 0 17 -5
v -5 16 6
v -5 16 -0
v -5 17 6
v -5 17 -0
v 0 0 8
v 0 0 7
v 0 7 8
v 0 7 7
v 0 24 7
v 0 24 -0
v 0 25 7
v 0 25 -0
v 1 7 8
v 1 7 -1
v 1 8 8
v 1 8 4
v 1 8 3
v 1 8 -1
v 1 12 8
v 1 12 -1
v 1 13 8
v 1 13 7
v 1 13 -0
v 1 13 -1
v 1 15 7
v 1 15 4
v 1 15 3
v 1 15 -0
v 1 17 8
v 1 17 7
v 1 17 -0
v 1 17 -1
v 1 18 6
v 1 18 5
v 1 18 4
v 1 18 3
v 1 18 2
v 1 18 1
v 1 19 6
v 1 19 5
v 1 19 4
v 1 19 3
v 1 19 2
v 1 19 1
v 1 20 6
v 1 20 5
v 1 20 2
v 1 20 1
v 1 21 7
v 1 21 6
v 1 21 1
v 1 21 -0
v 1 24 8
v 1 24 -1
v 2 11 10
v 2 11 9
v 2 11 -2
v 2 11 -3
v 2 12 11
v 2 12 10
v 2 12 9
v 2 12 8
v 2 12 -1
v 2 12 -2
v 2 12 -3
v 2 12 -4
v 2 13 12
v 2 13 11
v 2 13 8
v 2 13 7
v 2 13 -0
v 2 13 -1
v 2 13 -4
v 2 13 -5
v 2 14 11
v 2 14 9
v 2 14 -2
v 2 14 -4
v 2 16 11
v 2 16 9
v 2 16 8
v 2 16 -1
v 2 16 -2
v 2 16 -4
v 2 17 12
v 2 17 7
v 2 17 -0
v 2 17 -5
v 3 14 11
v 3 14 9
v 3 14 -2
v 3 14 -4
v 3 16 11
v 3 16 9
v 3 16 -2
v 3 16 -4
v 0 13 12
v 0 17 12
v 1 13 12
v 1 17 12
v 2 13 12
v 2 17 12
v -3 14 11
v -3 17 11
v 0 12 11
v 0 13 11
v 0 14 11
v 0 17 11
v 1 12 11
v 1 13 11
v 2 12 11
v 2 13 11
v 2 14 11
v 2 16 11
v 3 14 11
v 3 16 11
v -3 13 10
v -3 14 10
v 0 11 10
v 0 12 10
v 0 13 10
v 0 14 10
v 1 11 10
v 1 12 10
v 2 11 10
v 2 12 10
v -5 20 8
v -5 22 8
v -4 7 8
v -4 8 8
v -4 20 8
v -4 22 8
v -4 23 8
v -3 13 8
v -3 17 8
v -3 23 8
v -3 24 8
v -1 0 8
v -1 7 8
v 0 0 8
v 0 7 8
v 0 12 8
v 0 13 8
v 1 7 8
v 1 8 8
v 1 12 8
v 1 17 8
v 1 24 8
v -6 19 7
v -6 23 7
v -5 20 7
v -5 22 7
v -5 23 7
v -5 24 7
v -4 19 7
v -4 20 7
v -4 22 7
v -4 23 7
v -4 24 7
v -4 25 7
v -3 23 7
v -3 24 7
v 0 24 7
v 0 25 7
v -6 16 6
v -6 19 6
v -5 16 6
v -5 17 6
v -4 17 6
v -4 19 6
v 1 13 -0
v 1 15 -0
v 1 17 -0
v 2 13 -0
v 2 17 -0
v 1 12 -1
v 1 13 -1
v 2 12 -1
v 2 13 -1
v 0 11 -2
v 0 12 -2
v 1 11 -2
v 1 12 -2
v 2 11 -2
v 2 12 -2
v 2 14 -2
v 2 16 -2
v 3 14 -2
v 3 16 -2
v 0 11 9
v 0 12 9
v 1 11 9
v 1 12 9
v 2 11 9
v 2 12 9
v 2 14 9
v 2 16 9
v 3 14 9
v 3 16 9
v 1 12 8
v 1 13 8
v 2 12 8
v 2 13 8
v -1 0 7
v -1 7 7
v 0 0 7
v 0 7 7
v 1 13 7
v 1 15 7
v 1 17 7
v 2 13 7
v 2 17 7
v -6 16 -0
v -6 23 -0
v -5 16 -0
v -5 17 -0
v -5 20 -0
v -5 22 -0
v -5 23 -0
v -5 24 -0
v -4 17 -0
v -4 20 -0
v -4 22 -0
v -4 23 -0
v -4 24 -0
v -4 25 -0
v -3 23 -0
v -3 24 -0
v 0 24 -0
v 0 25 -0
v -5 20 -1
v -5 22 -1
v -4 7 -1
v -4 8 -1
v -4 20 -1
v -4 22 -1
v -4 23 -1
v -3 13 -1
v -3 17 -1
v -3 23 -1
v -3 24 -1
v 0 12 -1
v 0 13 -1
v 1 7 -1
v 1 8 -1
v 1 12 -1
v 1 17 -1
v 1 24 -1
v -3 13 -3
v -3 14 -3
v 0 11 -3
v 0 12 -3
v 0 13 -3
v 0 14 -3
v 1 11 -3
v 1 12 -3
v 2 11 -3
v 2 12 -3
v -3 14 -4
v -3 17 -4
v 0 12 -4
v 0 13 -4
v 0 14 -4
v 0 17 -4
v 1 12 -4
v 1 13 -4
v 2 12 -4
v 2 13 -4
v 2 14 -4
v 2 16 -4
v 3 14 -4
v 3 16 -4
v 0 13 -5
v 0 17 -5
v 1 13 -5
v 1 17 -5
v 2 13 -5
v 2 17 -5
v -1 0 8
v 0 0 8
v -1 0 7
v 0 0 7
v -4 7 8
v -1 7 8
v 0 7 8
v 1 7 8
v -1 7 7
v 0 7 7
v -4 7 -1
v 1 7 -1
v 0 11 10
v 1 11 10
v 2 11 10
v 0 11 9
v 1 11 9
v 2 11 9
v 0 11 -2
v 1 11 -2
v 2 11 -2
v 0 11 -3
v 1 11 -3
v 2 11 -3
v 0 12 11
v 1 12 11
v 2 12 11
v 0 12 10
v 1 12 10
v 2 12 10
v 0 12 9
v 1 12 9
v 2 12 9
v 0 12 8
v 1 12 8
v 2 12 8
v 0 12 -1
v 1 12 -1
v 2 12 -1
v 0 12 -2
v 1 12 -2
v 2 12 -2
v 0 12 -3
v 1 12 -3
v 2 12 -3
v 0 12 -4
v 1 12 -4
v 2 12 -4
v 0 13 12
v 1 13 12
v 2 13 12
v 0 13 11
v 1 13 11
v 2 13 11
v -3 13 10
v 0 13 10
v -3 13 8
v 0 13 8
v 1 13 8
v 2 13 8
v 1 13 7
v 2 13 7
v 1 13 -0
v 2 13 -0
v -3 13 -1
v 0 13 -1
v 1 13 -1
v 2 13 -1
v -3 13 -3
v 0 13 -3
v 0 13 -4
v 1 13 -4
v 2 13 -4
v 0 13 -5
v 1 13 -5
v 2 13 -5
v -3 14 11
v 0 14 11
v 2 14 11
v 3 14 11
v -3 14 10
v 0 14 10
v 2 14 9
v 3 14 9
v 2 14 -2
v 3 14 -2
v -3 14 -3
v 0 14 -3
v -3 14 -4
v 0 14 -4
v 2 14 -4
v 3 14 -4
v -6 16 6
v -5 16 6
v -6 16 -0
v -5 16 -0
v -5 17 6
v -4 17 6
v -5 17 -0
v -4 17 -0
v -6 19 7
v -4 19 7
v -6 19 6
v -4 19 6
v -5 20 8
v -4 20 8
v -5 20 7
v -4 20 7
v -5 20 -0
v -4 20 -0
v -5 20 -1
v -4 20 -1
v 2 16 11
v 3 16 11
v 2 16 9
v 3 16 9
v 2 16 -2
v 3 16 -2
v 2 16 -4
v 3 16 -4
v 0 17 12
v 1 17 12
v 2 17 12
v -3 17 11
v 0 17 11
v -3 17 8
v 1 17 8
v 1 17 7
v 2 17 7
v 1 17 -0
v 2 17 -0
v -3 17 -1
v 1 17 -1
v -3 17 -4
v 0 17 -4
v 0 17 -5
v 1 17 -5
v 2 17 -5
v -5 22 8
v -4 22 8
v -5 22 7
v -4 22 7
v -5 22 -0
v -4 22 -0
v -5 22 -1
v -4 22 -1
v -4 23 8
v -3 23 8
v -6 23 7
v -5 23 7
v -4 23 7
v -3 23 7
v -6 23 -0
v -5 23 -0
v -4 23 -0
v -3 23 -0
v -4 23 -1
v -3 23 -1
v -3 24 8
v 1 24 8
v -5 24 7
v -4 24 7
v -3 24 7
v 0 24 7
v -5 24 -0
v -4 24 -0
v -3 24 -0
v 0 24 -0
v -3 24 -1
v 1 24 -1
v -4 25 7
v 0 25 7
v -4 25 -0
v 0 25 -0

# faces
f 4/1/1 2/1/1 1/1/1
f 5/1/1 4/1/1 3/1/1
f 6/1/1 2/1/1 4/1/1
f 6/1/1 4/1/1 5/1/1
f 11/1/1 8/1/1 7/1/1
f 12/1/1 8/1/1 11/1/1
f 13/1/1 10/1/1 9/1/1
f 14/1/1 10/1/1 13/1/1
f 17/1/1 16/1/1 15/1/1
f 18/1/1 16/1/1 17/1/1
f 21/2/1 20/2/1 19/2/1
f 22/2/1 20/2/1 21/2/1
f 23/1/1 22/1/1 21/1/1
f 24/1/1 22/1/1 23/1/1
f 25/1/1 23/1/1 21/1/1
f 26/1/1 23/1/1 25/1/1
f 27/1/1 25/1/1 21/1/1
f 28/1/1 25/1/1 27/1/1
f 29/1/1 22/1/1 24/1/1
f 30/1/1 22/1/1 29/1/1
f 35/1/1 32/1/1 31/1/1
f 36/1/1 32/1/1 35/1/1
f 37/1/1 34/1/1 33/1/1
f 38/1/1 34/1/1 37/1/1
f 41/1/1 40/1/1 39/1/1
f 42/1/1 40/1/1 41/1/1
f 48/1/1 44/1/1 43/1/1
f 49/1/1 46/1/1 45/1/1
f 51/1/1 48/1/1 47/1/1
f 52/1/1 44/1/1 48/1/1
f 52/1/1 48/1/1 51/1/1
f 53/1/1 50/1/1 49/1/1
f 53/1/1 49/1/1 45/1/1
f 54/1/1 50/1/1 53/1/1
f 59/1/1 56/1/1 55/1/1
f 60/1/1 56/1/1 59/1/1
f 61/1/1 58/1/1 57/1/1
f 62/1/1 58/1/1 61/1/1
f 65/3/1 64/3/1 63/3/1
f 66/3/1 64/3/1 65/3/1
f 72/1/1 68/1/1 67/1/1
f 73/1/1 68/1/1 72/1/1
f 76/1/1 70/1/1 69/1/1
f 77/1/1 70/1/1 76/1/1
f 80/1/1 74/1/1 73/1/1
f 80/1/1 72/1/1 71/1/1
f 80/1/1 73/1/1 72/1/1
f 81/1/1 74/1/1 80/1/1
f 82/1/1 74/1/1 81/1/1
f 83/1/1 78/1/1 77/1/1
f 83/1/1 77/1/1 76/1/1
f 83/1/1 76/1/1 75/1/1
f 84/1/1 78/1/1 83/1/1
f 85/1/1 78/1/1 84/1/1
f 87/1/1 81/1/1 80/1/1
f 87/1/1 80/1/1 79/1/1
f 88/1/1 81/1/1 87/1/1
f 89/1/1 86/1/1 85/1/1
f 89/1/1 85/1/1 84/1/1
f 90/1/1 86/1/1 89/1/1
f 91/1/1 87/1/1 79/1/1
f 92/1/1 87/1/1 91/1/1
f 93/1/1 86/1/1 90/1/1
f 94/1/1 86/1/1 93/1/1
f 95/1/2 96/1/2 97/1/2
f 97/1/2 96/1/2 98/1/2
f 99/3/2 100/3/2 101/3/2
f 101/3/2 100/3/2 102/3/2
f 103/1/2 104/1/2 105/1/2
f 105/1/2 104/1/2 106/1/2
f 107/2/2 108/2/2 109/2/2
f 109/2/2 108/2/2 110/2/2
f 110/2/2 108/2/2 111/2/2
f 111/2/2 108/2/2 112/2/2
f 109/1/2 110/1/2 113/1/2
f 111/1/2 112/1/2 114/1/2
f 113/1/2 110/1/2 115/1/2
f 115/1/2 110/1/2 116/1/2
f 111/1/2 114/1/2 117/1/2
f 117/1/2 114/1/2 118/1/2
f 116/1/2 110/1/2 119/1/2
f 110/2/2 111/2/2 120/2/2
f 119/1/2 110/1/2 120/1/2
f 111/1/2 117/1/2 121/1/2
f 120/2/2 111/2/2 121/2/2
f 121/1/2 117/1/2 122/1/2
f 119/4/2 120/4/2 124/4/2
f 120/4/2 121/4/2 124/4/2
f 121/4/2 122/4/2 124/4/2
f 124/4/2 122/4/2 125/4/2
f 124/4/2 125/4/2 127/4/2
f 127/4/2 125/4/2 128/4/2
f 128/4/2 125/4/2 129/4/2
f 129/4/2 125/4/2 130/4/2
f 130/4/2 125/4/2 131/4/2
f 131/4/2 125/4/2 132/4/2
f 124/4/2 127/4/2 133/4/2
f 127/5/2 128/5/2 133/5/2
f 128/4/2 129/4/2 134/4/2
f 133/5/2 128/5/2 134/5/2
f 129/1/2 130/1/2 135/1/2
f 134/4/2 129/4/2 135/4/2
f 130/4/2 131/4/2 136/4/2
f 135/1/2 130/1/2 136/1/2
f 131/5/2 132/5/2 137/5/2
f 136/4/2 131/4/2 137/4/2
f 132/4/2 125/4/2 138/4/2
f 137/5/2 132/5/2 138/5/2
f 124/4/2 133/4/2 139/4/2
f 133/4/2 134/4/2 139/4/2
f 136/1/2 137/1/2 140/1/2
f 139/4/2 134/4/2 140/4/2
f 135/1/2 136/1/2 140/1/2
f 134/1/2 135/1/2 140/1/2
f 137/4/2 138/4/2 141/4/2
f 140/1/2 137/1/2 141/1/2
f 138/4/2 125/4/2 142/4/2
f 141/4/2 138/4/2 142/4/2
f 123/1/2 124/1/2 143/1/2
f 124/4/2 139/4/2 143/4/2
f 141/1/2 142/1/2 144/1/2
f 143/4/2 139/4/2 144/4/2
f 139/1/2 140/1/2 144/1/2
f 140/1/2 141/1/2 144/1/2
f 142/4/2 125/4/2 145/4/2
f 144/1/2 142/1/2 145/1/2
f 125/1/2 126/1/2 146/1/2
f 145/4/2 125/4/2 146/4/2
f 144/1/2 145/1/2 147/1/2
f 143/1/2 144/1/2 147/1/2
f 145/1/2 146/1/2 147/1/2
f 123/1/2 143/1/2 147/1/2
f 146/1/2 126/1/2 148/1/2
f 147/1/2 146/1/2 148/1/2
f 149/2/2 150/2/2 154/2/2
f 154/2/2 150/2/2 155/2/2
f 151/2/2 152/2/2 158/2/2
f 158/2/2 152/2/2 159/2/2
f 155/2/2 156/2/2 162/2/2
f 153/2/2 154/2/2 162/2/2
f 154/2/2 155/2/2 162/2/2
f 162/2/2 156/2/2 163/2/2
f 159/2/2 160/2/2 166/2/2
f 158/2/2 159/2/2 166/2/2
f 157/2/2 158/2/2 166/2/2
f 166/2/2 160/2/2 167/2/2
f 162/4/2 163/4/2 169/4/2
f 161/2/2 162/2/2 169/2/2
f 169/4/2 163/4/2 170/4/2
f 166/4/2 167/4/2 171/4/2
f 167/2/2 168/2/2 172/2/2
f 171/4/2 167/4/2 172/4/2
f 161/2/2 169/2/2 173/2/2
f 170/4/2 163/4/2 174/4/2
f 163/2/2 164/2/2 175/2/2
f 174/4/2 163/4/2 175/4/2
f 166/4/2 171/4/2 176/4/2
f 165/2/2 166/2/2 176/2/2
f 176/4/2 171/4/2 177/4/2
f 172/2/2 168/2/2 178/2/2
f 173/2/2 174/2/2 179/2/2
f 161/2/2 173/2/2 179/2/2
f 174/2/2 175/2/2 179/2/2
f 175/2/2 164/2/2 180/2/2
f 179/2/2 175/2/2 180/2/2
f 177/2/2 178/2/2 181/2/2
f 176/2/2 177/2/2 181/2/2
f 165/2/2 176/2/2 181/2/2
f 178/2/2 168/2/2 182/2/2
f 181/2/2 178/2/2 182/2/2
f 183/6/2 184/6/2 187/6/2
f 187/6/2 184/6/2 188/6/2
f 185/6/2 186/6/2 189/6/2
f 189/6/2 186/6/2 190/6/2
f 193/1/3 192/1/3 191/1/3
f 194/1/3 192/1/3 193/1/3
f 195/2/3 194/2/3 193/2/3
f 196/2/3 194/2/3 195/2/3
f 201/1/3 198/1/3 197/1/3
f 202/1/3 198/1/3 201/1/3
f 203/1/3 200/1/3 199/1/3
f 204/1/3 200/1/3 203/1/3
f 205/2/3 204/2/3 203/2/3
f 206/2/3 204/2/3 205/2/3
f 209/6/3 208/6/3 207/6/3
f 210/6/3 208/6/3 209/6/3
f 215/1/3 212/1/3 211/1/3
f 216/1/3 212/1/3 215/1/3
f 217/1/3 214/1/3 213/1/3
f 218/1/3 214/1/3 217/1/3
f 219/2/3 218/2/3 217/2/3
f 220/2/3 218/2/3 219/2/3
f 225/1/3 222/1/3 221/1/3
f 226/1/3 222/1/3 225/1/3
f 228/1/3 225/1/3 224/1/3
f 228/1/3 227/1/3 226/1/3
f 228/1/3 226/1/3 225/1/3
f 229/1/3 227/1/3 228/1/3
f 230/1/3 227/1/3 229/1/3
f 233/2/3 224/2/3 223/2/3
f 234/3/3 233/3/3 232/3/3
f 235/2/3 224/2/3 233/2/3
f 235/3/3 233/3/3 234/3/3
f 236/1/3 228/1/3 224/1/3
f 237/1/3 228/1/3 236/1/3
f 238/2/3 224/2/3 235/2/3
f 239/1/3 236/1/3 224/1/3
f 239/2/3 224/2/3 238/2/3
f 240/1/3 236/1/3 239/1/3
f 241/1/3 230/1/3 229/1/3
f 241/1/3 231/1/3 230/1/3
f 242/1/3 231/1/3 241/1/3
f 245/1/3 244/1/3 243/1/3
f 246/1/3 244/1/3 245/1/3
f 247/1/3 244/1/3 246/1/3
f 249/1/3 245/1/3 243/1/3
f 250/1/3 245/1/3 249/1/3
f 251/1/3 248/1/3 247/1/3
f 251/1/3 247/1/3 246/1/3
f 252/1/3 248/1/3 251/1/3
f 253/1/3 248/1/3 252/1/3
f 255/1/3 254/1/3 253/1/3
f 255/1/3 253/1/3 252/1/3
f 256/1/3 254/1/3 255/1/3
f 257/1/3 254/1/3 256/1/3
f 258/1/3 254/1/3 257/1/3
f 261/1/3 260/1/3 259/1/3
f 262/1/3 260/1/3 261/1/3
f 263/1/3 260/1/3 262/1/3
f 264/1/3 260/1/3 263/1/3
f 268/2/3 266/2/3 265/2/3
f 268/2/3 267/2/3 266/2/3
f 269/2/3 267/2/3 268/2/3
f 272/2/3 271/2/3 270/2/3
f 273/2/3 271/2/3 272/2/3
f 276/1/3 275/1/3 274/1/3
f 277/1/3 275/1/3 276/1/3
f 278/2/3 277/2/3 276/2/3
f 279/2/3 277/2/3 278/2/3
f 282/6/3 281/6/3 280/6/3
f 283/6/3 281/6/3 282/6/3
f 284/1/4 285/1/4 286/1/4
f 286/1/4 285/1/4 287/1/4
f 286/2/4 287/2/4 288/2/4
f 288/2/4 287/2/4 289/2/4
f 290/6/4 291/6/4 292/6/4
f 292/6/4 291/6/4 293/6/4
f 294/2/4 295/2/4 296/2/4
f 296/2/4 295/2/4 297/2/4
f 298/3/4 299/3/4 300/3/4
f 300/3/4 299/3/4 301/3/4
f 302/2/4 303/2/4 305/2/4
f 303/2/4 304/2/4 305/2/4
f 305/2/4 304/2/4 306/2/4
f 307/1/4 308/1/4 309/1/4
f 309/1/4 308/1/4 310/1/4
f 310/1/4 308/1/4 311/1/4
f 311/1/4 308/1/4 312/1/4
f 312/1/4 308/1/4 313/1/4
f 310/1/4 311/1/4 315/1/4
f 315/1/4 311/1/4 316/1/4
f 313/1/4 314/1/4 317/1/4
f 312/1/4 313/1/4 317/1/4
f 317/1/4 314/1/4 318/1/4
f 318/1/4 314/1/4 319/1/4
f 319/1/4 320/1/4 321/1/4
f 318/1/4 319/1/4 321/1/4
f 321/1/4 320/1/4 322/1/4
f 322/1/4 320/1/4 323/1/4
f 323/1/4 320/1/4 324/1/4
f 325/1/4 326/1/4 329/1/4
f 329/1/4 326/1/4 330/1/4
f 328/1/4 329/1/4 332/1/4
f 330/1/4 331/1/4 332/1/4
f 329/1/4 330/1/4 332/1/4
f 332/1/4 331/1/4 333/1/4
f 333/1/4 331/1/4 334/1/4
f 328/1/4 332/1/4 336/1/4
f 336/1/4 332/1/4 337/1/4
f 327/2/4 328/2/4 338/2/4
f 328/1/4 336/1/4 339/1/4
f 338/2/4 328/2/4 339/2/4
f 339/1/4 336/1/4 340/1/4
f 334/1/4 335/1/4 341/1/4
f 333/1/4 334/1/4 341/1/4
f 341/1/4 335/1/4 342/1/4
f 343/1/4 344/1/4 347/1/4
f 347/1/4 344/1/4 348/1/4
f 345/1/4 346/1/4 349/1/4
f 349/1/4 346/1/4 350/1/4
f 349/2/4 350/2/4 351/2/4
f 351/2/4 350/2/4 352/2/4
f 353/1/4 354/1/4 357/1/4
f 357/1/4 354/1/4 358/1/4
f 355/1/4 356/1/4 359/1/4
f 359/1/4 356/1/4 360/1/4
f 359/2/4 360/2/4 361/2/4
f 361/2/4 360/2/4 362/2/4
f 363/6/4 364/6/4 365/6/4
f 365/6/4 364/6/4 366/6/4
f 367/1/4 368/1/4 369/1/4
f 369/1/4 368/1/4 370/1/4
f 369/2/4 370/2/4 371/2/4
f 371/2/4 370/2/4 372/2/4
f 375/3/5 374/3/5 373/3/5
f 376/3/5 374/3/5 375/3/5
f 381/2/5 378/2/5 377/2/5
f 382/2/5 380/2/5 379/2/5
f 383/2/5 381/2/5 377/2/5
f 383/2/5 382/2/5 381/2/5
f 384/2/5 380/2/5 382/2/5
f 384/2/5 382/2/5 383/2/5
f 388/1/5 386/1/5 385/1/5
f 389/2/5 387/2/5 386/2/5
f 389/1/5 386/1/5 388/1/5
f 390/2/5 387/2/5 389/2/5
f 394/1/5 392/1/5 391/1/5
f 395/2/5 393/2/5 392/2/5
f 395/1/5 392/1/5 394/1/5
f 396/2/5 393/2/5 395/2/5
f 400/1/5 398/1/5 397/1/5
f 401/2/5 399/2/5 398/2/5
f 401/1/5 398/1/5 400/1/5
f 402/2/5 399/2/5 401/2/5
f 406/1/5 404/1/5 403/1/5
f 407/2/5 405/2/5 404/2/5
f 407/1/5 404/1/5 406/1/5
f 408/2/5 405/2/5 407/2/5
f 412/1/5 410/1/5 409/1/5
f 413/2/5 411/2/5 410/2/5
f 413/1/5 410/1/5 412/1/5
f 414/2/5 411/2/5 413/2/5
f 418/1/5 416/1/5 415/1/5
f 419/2/5 417/2/5 416/2/5
f 419/1/5 416/1/5 418/1/5
f 420/2/5 417/2/5 419/2/5
f 424/1/5 422/1/5 421/1/5
f 425/2/5 423/2/5 422/2/5
f 425/1/5 422/1/5 424/1/5
f 426/2/5 423/2/5 425/2/5
f 429/1/5 428/1/5 427/1/5
f 430/1/5 428/1/5 429/1/5
f 433/2/5 432/2/5 431/2/5
f 434/2/5 432/2/5 433/2/5
f 439/2/5 436/2/5 435/2/5
f 440/2/5 436/2/5 439/2/5
f 441/1/5 438/1/5 437/1/5
f 442/1/5 438/1/5 441/1/5
f 446/1/5 444/1/5 443/1/5
f 447/2/5 445/2/5 444/2/5
f 447/1/5 444/1/5 446/1/5
f 448/2/5 445/2/5 447/2/5
f 453/1/5 450/1/5 449/1/5
f 454/1/5 450/1/5 453/1/5
f 455/6/5 452/6/5 451/6/5
f 456/6/5 452/6/5 455/6/5
f 461/1/5 460/1/5 459/1/5
f 462/1/5 460/1/5 461/1/5
f 463/6/5 458/6/5 457/6/5
f 464/6/5 458/6/5 463/6/5
f 467/1/5 466/1/5 465/1/5
f 468/1/5 466/1/5 467/1/5
f 471/1/5 470/1/5 469/1/5
f 472/1/5 470/1/5 471/1/5
f 475/1/5 474/1/5 473/1/5
f 476/1/5 474/1/5 475/1/5
f 479/1/5 478/1/5 477/1/5
f 480/1/5 478/1/5 479/1/5
f 483/1/5 482/1/5 481/1/5
f 484/1/5 482/1/5 483/1/5
f 485/6/6 486/6/6 487/6/6
f 487/6/6 486/6/6 488/6/6
f 489/6/6 490/6/6 491/6/6
f 491/6/6 490/6/6 492/6/6
f 493/1/6 494/1/6 497/1/6
f 496/1/6 497/1/6 498/1/6
f 494/2/6 495/2/6 499/2/6
f 498/1/6 497/1/6 499/1/6
f 497/1/6 494/1/6 499/1/6
f 499/2/6 495/2/6 500/2/6
f 500/2/6 495/2/6 501/2/6
f 502/2/6 503/2/6 505/2/6
f 504/1/6 505/1/6 506/1/6
f 506/1/6 505/1/6 507/1/6
f 507/1/6 505/1/6 508/1/6
f 505/2/6 503/2/6 509/2/6
f 508/1/6 505/1/6 509/1/6
f 509/2/6 503/2/6 510/2/6
f 511/1/6 512/1/6 513/1/6
f 513/1/6 512/1/6 514/1/6
f 515/1/6 516/1/6 517/1/6
f 517/1/6 516/1/6 518/1/6
f 519/1/6 520/1/6 523/1/6
f 523/1/6 520/1/6 524/1/6
f 521/1/6 522/1/6 525/1/6
f 525/1/6 522/1/6 526/1/6
f 527/1/6 528/1/6 529/1/6
f 529/1/6 528/1/6 530/1/6
f 531/1/6 532/1/6 535/1/6
f 535/1/6 532/1/6 536/1/6
f 533/1/6 534/1/6 537/1/6
f 537/1/6 534/1/6 538/1/6
f 536/1/6 532/1/6 540/1/6
f 539/1/6 540/1/6 541/1/6
f 540/1/6 532/1/6 542/1/6
f 541/1/6 540/1/6 542/1/6
f 543/1/6 544/1/6 545/1/6
f 545/1/6 544/1/6 546/1/6
