# MagicaVoxel @ Ephtracy

# material
mtllib masiatrix.mtl
usemtl palette

# normals
vn -1 0 0
vn 1 0 0
vn 0 0 1
vn 0 0 -1
vn 0 -1 0
vn 0 1 0

# texcoords
vt 0.00195313 0.5
vt 0.00585938 0.5
vt 0.0253906 0.5
vt 0.0449219 0.5
vt 0.0527344 0.5
vt 0.0566406 0.5
vt 0.0605469 0.5
vt 0.0878906 0.5
vt 0.123047 0.5

# verts
v -6 17 10
v -6 17 1
v -6 24 10
v -6 24 1
v -5 10 12
v -5 10 11
v -5 10 10
v -5 10 9
v -5 10 7
v -5 10 5
v -5 11 10
v -5 11 9
v -5 11 7
v -5 11 6
v -5 11 5
v -5 11 4
v -5 12 12
v -5 12 11
v -5 12 6
v -5 12 5
v -5 12 4
v -5 12 3
v -5 13 12
v -5 13 11
v -5 13 10
v -5 13 9
v -5 13 8
v -5 13 7
v -5 13 6
v -5 13 5
v -5 13 4
v -5 13 3
v -5 13 2
v -5 14 12
v -5 14 11
v -5 14 9
v -5 14 8
v -5 14 7
v -5 14 6
v -5 14 4
v -5 14 3
v -5 14 2
v -5 15 11
v -5 15 10
v -5 15 9
v -5 15 8
v -5 15 7
v -5 15 4
v -5 15 3
v -5 16 11
v -5 16 10
v -5 16 8
v -5 16 7
v -5 16 2
v -5 16 1
v -5 17 11
v -5 17 10
v -5 17 1
v -5 17 -0
v -5 24 11
v -5 24 10
v -5 24 1
v -5 24 -0
v -5 25 10
v -5 25 1
v -4 10 5
v -4 10 2
v -4 10 1
v -4 11 5
v -4 11 4
v -4 11 2
v -4 12 4
v -4 12 3
v -4 12 2
v -4 13 3
v -4 13 2
v -4 13 1
v -4 14 2
v -4 16 2
v -4 16 1
v -4 25 9
v -4 25 2
v -4 26 9
v -4 26 2
v -3 8 9
v -3 8 7
v -3 8 6
v -3 8 5
v -3 8 4
v -3 8 2
v -3 9 8
v -3 9 7
v -3 9 4
v -3 9 3
v -3 10 9
v -3 10 8
v -3 10 6
v -3 10 5
v -3 10 3
v -3 10 2
v -3 10 1
v -3 10 -1
v -3 11 1
v -3 11 -1
v -3 12 1
v -3 12 -1
v -3 13 1
v -3 14 -0
v -3 14 -1
v -3 15 1
v -3 15 -0
v -1 8 9
v -1 8 7
v -1 8 6
v -1 8 5
v -1 8 4
v -1 8 2
v -1 9 8
v -1 9 7
v -1 9 4
v -1 9 3
v -1 10 9
v -1 10 8
v -1 10 6
v -1 10 5
v -1 10 3
v -1 10 2
v -1 10 1
v -1 10 -1
v -1 11 1
v -1 11 -1
v -1 12 1
v -1 12 -1
v -1 13 1
v -1 14 -0
v -1 14 -1
v -1 15 1
v -1 15 -0
v 0 10 12
v 0 10 11
v 0 10 10
v 0 10 9
v 0 10 6
v 0 10 5
v 0 10 2
v 0 10 1
v 0 11 10
v 0 11 9
v 0 11 6
v 0 11 5
v 0 11 2
v 0 12 12
v 0 12 11
v 0 12 10
v 0 12 9
v 0 12 8
v 0 12 6
v 0 12 5
v 0 12 3
v 0 12 2
v 0 13 11
v 0 13 9
v 0 13 8
v 0 13 7
v 0 13 4
v 0 13 3
v 0 13 2
v 0 13 1
v 0 14 12
v 0 14 11
v 0 14 10
v 0 14 8
v 0 14 7
v 0 14 6
v 0 14 5
v 0 14 4
v 0 14 3
v 0 15 10
v 0 15 9
v 0 15 8
v 0 15 7
v 0 15 4
v 0 15 3
v 0 15 2
v 0 16 11
v 0 16 10
v 0 16 9
v 0 16 3
v 0 16 1
v 0 17 11
v 0 17 10
v 0 17 4
v 0 17 3
v 0 18 11
v 0 18 10
v 0 18 4
v 0 25 9
v 0 25 2
v 0 26 9
v 0 26 2
v 1 16 3
v 1 16 1
v 1 17 4
v 1 17 3
v 1 17 2
v 1 17 1
v 1 17 -0
v 1 18 11
v 1 18 10
v 1 18 4
v 1 19 10
v 1 19 9
v 1 19 8
v 1 19 3
v 1 19 2
v 1 19 1
v 1 20 9
v 1 20 8
v 1 20 7
v 1 20 4
v 1 20 2
v 1 20 1
v 1 21 10
v 1 21 9
v 1 21 4
v 1 21 3
v 1 21 2
v 1 22 9
v 1 22 8
v 1 22 7
v 1 22 6
v 1 22 3
v 1 22 1
v 1 23 8
v 1 23 7
v 1 23 6
v 1 23 1
v 1 24 11
v 1 24 10
v 1 24 1
v 1 24 -0
v 1 25 10
v 1 25 1
v 2 19 9
v 2 19 8
v 2 20 9
v 2 20 8
v 2 20 7
v 2 22 8
v 2 22 7
v 2 22 6
v 2 23 7
v 2 23 6
v -5 10 12
v -5 12 12
v -5 13 12
v -5 14 12
v -4 10 12
v -4 12 12
v -4 13 12
v -4 14 12
v -3 10 12
v -3 12 12
v -3 13 12
v -2 10 12
v -2 11 12
v -2 12 12
v -1 11 12
v -1 12 12
v -1 13 12
v 0 10 12
v 0 12 12
v 0 14 12
v -5 14 11
v -5 15 11
v -5 16 11
v -5 17 11
v -5 24 11
v -4 14 11
v -4 15 11
v -4 16 11
v -3 14 11
v -3 16 11
v -2 14 11
v -2 15 11
v -1 15 11
v -1 16 11
v 0 14 11
v 0 16 11
v 0 17 11
v 0 18 11
v 1 18 11
v 1 24 11
v -6 17 10
v -6 24 10
v -5 16 10
v -5 17 10
v -5 24 10
v -5 25 10
v -4 16 10
v -4 17 10
v -3 16 10
v -1 16 10
v 0 16 10
v 0 17 10
v 1 24 10
v 1 25 10
v -4 25 9
v -4 26 9
v -3 8 9
v -3 10 9
v -1 8 9
v -1 10 9
v 0 25 9
v 0 26 9
v 1 19 9
v 1 20 9
v 2 19 9
v 2 20 9
v 1 20 8
v 1 22 8
v 2 20 8
v 2 22 8
v 1 22 7
v 1 23 7
v 2 22 7
v 2 23 7
v -3 8 5
v -3 10 5
v -1 8 5
v -1 10 5
v 0 17 4
v 0 18 4
v 1 17 4
v 1 18 4
v 0 16 3
v 0 17 3
v 1 16 3
v 1 17 3
v 1 19 8
v 1 20 8
v 2 19 8
v 2 20 8
v 1 20 7
v 1 22 7
v 2 20 7
v 2 22 7
v -3 8 6
v -3 10 6
v -1 8 6
v -1 10 6
v 1 22 6
v 1 23 6
v 2 22 6
v 2 23 6
v -5 10 5
v -5 11 5
v -4 10 5
v -4 11 5
v -5 11 4
v -5 12 4
v -4 11 4
v -4 12 4
v -5 12 3
v -5 13 3
v -4 12 3
v -4 13 3
v -5 13 2
v -5 14 2
v -5 16 2
v -4 13 2
v -4 14 2
v -4 16 2
v -4 25 2
v -4 26 2
v -3 8 2
v -3 10 2
v -1 8 2
v -1 10 2
v 0 25 2
v 0 26 2
v -6 17 1
v -6 24 1
v -5 16 1
v -5 17 1
v -5 24 1
v -5 25 1
v -4 10 1
v -4 13 1
v -4 16 1
v -4 17 1
v -3 10 1
v -3 11 1
v -3 12 1
v -3 13 1
v -3 15 1
v -1 10 1
v -1 11 1
v -1 12 1
v -1 13 1
v -1 15 1
v 0 10 1
v 0 13 1
v 0 16 1
v 1 16 1
v 1 17 1
v 1 24 1
v 1 25 1
v -5 17 -0
v -5 24 -0
v -3 14 -0
v -3 15 -0
v -1 14 -0
v -1 15 -0
v 1 17 -0
v 1 24 -0
v -3 10 -1
v -3 11 -1
v -3 12 -1
v -3 14 -1
v -1 10 -1
v -1 11 -1
v -1 12 -1
v -1 14 -1
v -3 8 9
v -1 8 9
v -3 8 7
v -1 8 7
v -3 8 6
v -1 8 6
v -3 8 5
v -1 8 5
v -3 8 4
v -1 8 4
v -3 8 2
v -1 8 2
v -5 10 12
v -4 10 12
v -3 10 12
v -2 10 12
v 0 10 12
v -5 10 11
v -4 10 11
v -3 10 11
v -2 10 11
v 0 10 11
v -5 10 10
v -4 10 10
v -1 10 10
v 0 10 10
v -5 10 9
v -4 10 9
v -3 10 9
v -1 10 9
v 0 10 9
v -3 10 8
v -1 10 8
v -5 10 7
v -4 10 7
v -4 10 6
v -3 10 6
v -1 10 6
v 0 10 6
v -5 10 5
v -4 10 5
v -3 10 5
v -1 10 5
v 0 10 5
v -3 10 3
v -1 10 3
v -4 10 2
v -3 10 2
v -1 10 2
v 0 10 2
v -4 10 1
v -3 10 1
v -1 10 1
v 0 10 1
v -3 10 -1
v -1 10 -1
v -5 11 5
v -4 11 5
v -5 11 4
v -4 11 4
v -5 12 4
v -4 12 4
v -5 12 3
v -4 12 3
v -5 13 3
v -4 13 3
v -5 13 2
v -4 13 2
v 0 16 3
v 1 16 3
v -5 16 2
v -4 16 2
v -5 16 1
v -4 16 1
v 0 16 1
v 1 16 1
v -5 17 11
v 0 17 11
v -6 17 10
v -5 17 10
v -4 17 10
v 0 17 10
v 0 17 4
v 1 17 4
v 0 17 3
v 1 17 3
v -6 17 1
v -5 17 1
v -4 17 1
v 1 17 1
v -5 17 -0
v 1 17 -0
v 0 18 11
v 1 18 11
v 0 18 10
v 1 18 10
v 0 18 4
v 1 18 4
v 1 19 9
v 2 19 9
v 1 19 8
v 2 19 8
v 1 20 8
v 2 20 8
v 1 20 7
v 2 20 7
v 1 22 7
v 2 22 7
v 1 22 6
v 2 22 6
v -5 14 12
v -4 14 12
v 0 14 12
v -5 14 11
v -4 14 11
v -3 14 11
v -2 14 11
v 0 14 11
v -3 14 -0
v -1 14 -0
v -3 14 -1
v -1 14 -1
v -3 15 1
v -1 15 1
v -3 15 -0
v -1 15 -0
v -5 16 11
v -4 16 11
v -3 16 11
v -1 16 11
v 0 16 11
v -5 16 10
v -4 16 10
v -3 16 10
v -1 16 10
v 0 16 10
v 1 20 9
v 2 20 9
v 1 20 8
v 2 20 8
v 1 22 8
v 2 22 8
v 1 22 7
v 2 22 7
v 1 23 7
v 2 23 7
v 1 23 6
v 2 23 6
v -5 24 11
v 1 24 11
v -6 24 10
v -5 24 10
v 1 24 10
v -6 24 1
v -5 24 1
v 1 24 1
v -5 24 -0
v 1 24 -0
v -5 25 10
v 1 25 10
v -4 25 9
v 0 25 9
v -4 25 2
v 0 25 2
v -5 25 1
v 1 25 1
v -4 26 9
v 0 26 9
v -4 26 2
v 0 26 2

# faces
f 3/3/1 2/3/1 1/3/1
f 4/3/1 2/3/1 3/3/1
f 11/5/1 7/5/1 6/5/1
f 11/7/1 8/7/1 7/7/1
f 12/5/1 9/5/1 8/5/1
f 12/7/1 8/7/1 11/7/1
f 13/6/1 10/6/1 9/6/1
f 13/5/1 9/5/1 12/5/1
f 14/6/1 10/6/1 13/6/1
f 15/6/1 10/6/1 14/6/1
f 17/7/1 6/7/1 5/7/1
f 18/5/1 12/5/1 11/5/1
f 18/7/1 6/7/1 17/7/1
f 18/5/1 11/5/1 6/5/1
f 19/6/1 16/6/1 15/6/1
f 19/6/1 15/6/1 14/6/1
f 19/5/1 14/5/1 13/5/1
f 20/6/1 16/6/1 19/6/1
f 21/6/1 16/6/1 20/6/1
f 23/6/1 18/6/1 17/6/1
f 24/5/1 12/5/1 18/5/1
f 24/6/1 18/6/1 23/6/1
f 25/5/1 12/5/1 24/5/1
f 26/6/1 13/6/1 12/6/1
f 26/5/1 12/5/1 25/5/1
f 27/6/1 13/6/1 26/6/1
f 28/5/1 19/5/1 13/5/1
f 28/6/1 13/6/1 27/6/1
f 28/5/1 20/5/1 19/5/1
f 29/5/1 20/5/1 28/5/1
f 30/6/1 21/6/1 20/6/1
f 30/5/1 20/5/1 29/5/1
f 31/5/1 22/5/1 21/5/1
f 31/6/1 21/6/1 30/6/1
f 32/5/1 22/5/1 31/5/1
f 34/7/1 24/7/1 23/7/1
f 35/5/1 25/5/1 24/5/1
f 35/7/1 24/7/1 34/7/1
f 36/5/1 27/5/1 26/5/1
f 36/6/1 26/6/1 25/6/1
f 37/6/1 29/6/1 28/6/1
f 37/5/1 27/5/1 36/5/1
f 37/6/1 28/6/1 27/6/1
f 38/6/1 29/6/1 37/6/1
f 39/5/1 30/5/1 29/5/1
f 39/6/1 29/6/1 38/6/1
f 39/5/1 31/5/1 30/5/1
f 40/7/1 32/7/1 31/7/1
f 40/5/1 31/5/1 39/5/1
f 41/5/1 33/5/1 32/5/1
f 41/7/1 32/7/1 40/7/1
f 42/5/1 33/5/1 41/5/1
f 43/5/1 25/5/1 35/5/1
f 44/6/1 36/6/1 25/6/1
f 44/5/1 25/5/1 43/5/1
f 45/7/1 37/7/1 36/7/1
f 45/6/1 36/6/1 44/6/1
f 46/5/1 38/5/1 37/5/1
f 46/7/1 37/7/1 45/7/1
f 47/7/1 40/7/1 39/7/1
f 47/5/1 38/5/1 46/5/1
f 47/7/1 39/7/1 38/7/1
f 48/5/1 41/5/1 40/5/1
f 48/7/1 40/7/1 47/7/1
f 49/6/1 42/6/1 41/6/1
f 49/5/1 41/5/1 48/5/1
f 50/7/1 44/7/1 43/7/1
f 51/6/1 45/6/1 44/6/1
f 51/7/1 44/7/1 50/7/1
f 51/6/1 46/6/1 45/6/1
f 52/5/1 47/5/1 46/5/1
f 52/6/1 46/6/1 51/6/1
f 53/6/1 48/6/1 47/6/1
f 53/5/1 47/5/1 52/5/1
f 53/6/1 49/6/1 48/6/1
f 54/6/1 42/6/1 49/6/1
f 54/6/1 49/6/1 53/6/1
f 57/3/1 54/3/1 53/3/1
f 57/3/1 55/3/1 54/3/1
f 57/3/1 53/3/1 52/3/1
f 57/3/1 52/3/1 51/3/1
f 58/3/1 55/3/1 57/3/1
f 60/3/1 57/3/1 56/3/1
f 61/3/1 57/3/1 60/3/1
f 62/3/1 59/3/1 58/3/1
f 63/3/1 59/3/1 62/3/1
f 64/3/1 62/3/1 61/3/1
f 65/3/1 62/3/1 64/3/1
f 69/1/1 67/1/1 66/1/1
f 70/1/1 67/1/1 69/1/1
f 71/4/1 68/4/1 67/4/1
f 71/1/1 67/1/1 70/1/1
f 72/2/1 71/2/1 70/2/1
f 73/2/1 71/2/1 72/2/1
f 74/4/1 68/4/1 71/4/1
f 74/2/1 71/2/1 73/2/1
f 75/4/1 74/4/1 73/4/1
f 76/4/1 68/4/1 74/4/1
f 76/4/1 74/4/1 75/4/1
f 77/4/1 68/4/1 76/4/1
f 78/1/1 77/1/1 76/1/1
f 79/1/1 77/1/1 78/1/1
f 80/1/1 77/1/1 79/1/1
f 83/3/1 82/3/1 81/3/1
f 84/3/1 82/3/1 83/3/1
f 91/1/1 86/1/1 85/1/1
f 92/2/1 87/2/1 86/2/1
f 92/1/1 86/1/1 91/1/1
f 93/1/1 90/1/1 89/1/1
f 93/2/1 89/2/1 88/2/1
f 94/1/1 90/1/1 93/1/1
f 95/1/1 91/1/1 85/1/1
f 96/2/1 92/2/1 91/2/1
f 96/1/1 91/1/1 95/1/1
f 97/2/1 87/2/1 92/2/1
f 97/2/1 92/2/1 96/2/1
f 98/2/1 93/2/1 88/2/1
f 98/2/1 94/2/1 93/2/1
f 99/1/1 90/1/1 94/1/1
f 99/2/1 94/2/1 98/2/1
f 100/1/1 90/1/1 99/1/1
f 103/9/1 102/9/1 101/9/1
f 104/9/1 102/9/1 103/9/1
f 105/5/1 104/5/1 103/5/1
f 106/5/1 104/5/1 105/5/1
f 107/2/1 106/2/1 105/2/1
f 108/2/1 106/2/1 107/2/1
f 109/2/1 106/2/1 108/2/1
f 110/2/1 108/2/1 107/2/1
f 111/2/1 108/2/1 110/2/1
f 112/1/2 113/1/2 118/1/2
f 113/2/2 114/2/2 119/2/2
f 118/1/2 113/1/2 119/1/2
f 116/1/2 117/1/2 120/1/2
f 115/2/2 116/2/2 120/2/2
f 120/1/2 117/1/2 121/1/2
f 112/1/2 118/1/2 122/1/2
f 118/2/2 119/2/2 123/2/2
f 122/1/2 118/1/2 123/1/2
f 119/2/2 114/2/2 124/2/2
f 123/2/2 119/2/2 124/2/2
f 115/2/2 120/2/2 125/2/2
f 120/2/2 121/2/2 125/2/2
f 121/1/2 117/1/2 126/1/2
f 125/2/2 121/2/2 126/2/2
f 126/1/2 117/1/2 127/1/2
f 128/9/2 129/9/2 130/9/2
f 130/9/2 129/9/2 131/9/2
f 130/5/2 131/5/2 132/5/2
f 132/5/2 131/5/2 133/5/2
f 132/2/2 133/2/2 134/2/2
f 134/2/2 133/2/2 135/2/2
f 135/2/2 133/2/2 136/2/2
f 134/2/2 135/2/2 137/2/2
f 137/2/2 135/2/2 138/2/2
f 140/5/2 141/5/2 147/5/2
f 141/7/2 142/7/2 147/7/2
f 142/1/2 143/1/2 148/1/2
f 147/7/2 142/7/2 148/7/2
f 143/2/2 144/2/2 149/2/2
f 148/1/2 143/1/2 149/1/2
f 144/1/2 145/1/2 150/1/2
f 149/2/2 144/2/2 150/2/2
f 145/4/2 146/4/2 151/4/2
f 150/1/2 145/1/2 151/1/2
f 139/6/2 140/6/2 152/6/2
f 140/5/2 147/5/2 153/5/2
f 152/6/2 140/6/2 153/6/2
f 147/6/2 148/6/2 154/6/2
f 153/5/2 147/5/2 154/5/2
f 149/2/2 150/2/2 155/2/2
f 154/6/2 148/6/2 155/6/2
f 148/2/2 149/2/2 155/2/2
f 150/2/2 151/2/2 155/2/2
f 155/2/2 151/2/2 156/2/2
f 156/2/2 151/2/2 157/2/2
f 157/2/2 151/2/2 158/2/2
f 158/2/2 151/2/2 159/2/2
f 151/4/2 146/4/2 160/4/2
f 159/2/2 151/2/2 160/2/2
f 153/5/2 154/5/2 161/5/2
f 152/5/2 153/5/2 161/5/2
f 154/5/2 155/5/2 161/5/2
f 155/4/2 156/4/2 162/4/2
f 161/5/2 155/5/2 162/5/2
f 156/2/2 157/2/2 163/2/2
f 162/4/2 156/4/2 163/4/2
f 163/2/2 157/2/2 164/2/2
f 158/2/2 159/2/2 165/2/2
f 159/4/2 160/4/2 166/4/2
f 165/2/2 159/2/2 166/2/2
f 160/4/2 146/4/2 167/4/2
f 166/4/2 160/4/2 167/4/2
f 167/4/2 146/4/2 168/4/2
f 152/5/2 161/5/2 169/5/2
f 161/6/2 162/6/2 170/6/2
f 169/5/2 161/5/2 170/5/2
f 170/6/2 162/6/2 171/6/2
f 162/4/2 163/4/2 172/4/2
f 163/4/2 164/4/2 172/4/2
f 164/2/2 157/2/2 173/2/2
f 172/4/2 164/4/2 173/4/2
f 157/4/2 158/4/2 174/4/2
f 173/2/2 157/2/2 174/2/2
f 158/2/2 165/2/2 175/2/2
f 174/4/2 158/4/2 175/4/2
f 165/4/2 166/4/2 176/4/2
f 175/2/2 165/2/2 176/2/2
f 166/4/2 167/4/2 176/4/2
f 176/4/2 167/4/2 177/4/2
f 171/6/2 162/6/2 178/6/2
f 170/7/2 171/7/2 178/7/2
f 162/4/2 172/4/2 179/4/2
f 178/6/2 162/6/2 179/6/2
f 172/5/2 173/5/2 180/5/2
f 179/4/2 172/4/2 180/4/2
f 174/4/2 175/4/2 181/4/2
f 180/5/2 173/5/2 181/5/2
f 173/4/2 174/4/2 181/4/2
f 175/4/2 176/4/2 181/4/2
f 176/5/2 177/5/2 182/5/2
f 181/4/2 176/4/2 182/4/2
f 177/4/2 167/4/2 183/4/2
f 182/5/2 177/5/2 183/5/2
f 167/1/2 168/1/2 184/1/2
f 183/4/2 167/4/2 184/4/2
f 170/7/2 178/7/2 185/7/2
f 178/5/2 179/5/2 186/5/2
f 185/7/2 178/7/2 186/7/2
f 179/1/2 180/1/2 187/1/2
f 186/5/2 179/5/2 187/5/2
f 182/1/2 183/1/2 187/1/2
f 183/1/2 184/1/2 187/1/2
f 180/1/2 181/1/2 187/1/2
f 181/1/2 182/1/2 187/1/2
f 187/1/2 184/1/2 188/1/2
f 184/1/2 168/1/2 189/1/2
f 188/1/2 184/1/2 189/1/2
f 187/9/2 188/9/2 191/9/2
f 186/9/2 187/9/2 191/9/2
f 191/9/2 188/9/2 192/9/2
f 192/9/2 188/9/2 193/9/2
f 190/3/2 191/3/2 194/3/2
f 191/9/2 192/9/2 195/9/2
f 194/3/2 191/3/2 195/3/2
f 195/9/2 192/9/2 196/9/2
f 197/3/2 198/3/2 199/3/2
f 199/3/2 198/3/2 200/3/2
f 201/2/2 202/2/2 204/2/2
f 204/2/2 202/2/2 205/2/2
f 205/2/2 202/2/2 206/2/2
f 203/2/2 204/2/2 210/2/2
f 208/3/2 209/3/2 211/3/2
f 209/2/2 210/2/2 211/2/2
f 211/2/2 210/2/2 212/2/2
f 212/2/2 210/2/2 213/2/2
f 210/2/2 204/2/2 214/2/2
f 213/2/2 210/2/2 214/2/2
f 204/4/2 205/4/2 214/4/2
f 205/2/2 206/2/2 215/2/2
f 214/4/2 205/4/2 215/4/2
f 206/3/2 207/3/2 216/3/2
f 215/2/2 206/2/2 216/2/2
f 211/4/2 212/4/2 217/4/2
f 215/4/2 216/4/2 218/4/2
f 213/4/2 214/4/2 218/4/2
f 214/4/2 215/4/2 218/4/2
f 218/4/2 216/4/2 219/4/2
f 219/4/2 216/4/2 220/4/2
f 220/4/2 216/4/2 221/4/2
f 216/3/2 207/3/2 222/3/2
f 221/4/2 216/4/2 222/4/2
f 211/4/2 217/4/2 223/4/2
f 208/3/2 211/3/2 223/3/2
f 217/4/2 218/4/2 223/4/2
f 223/4/2 218/4/2 224/4/2
f 220/8/2 221/8/2 225/8/2
f 219/4/2 220/4/2 225/4/2
f 225/8/2 221/8/2 226/8/2
f 221/5/2 222/5/2 227/5/2
f 226/8/2 221/8/2 227/8/2
f 224/4/2 218/4/2 228/4/2
f 223/3/2 224/3/2 228/3/2
f 228/4/2 218/4/2 229/4/2
f 225/4/2 226/4/2 230/4/2
f 219/4/2 225/4/2 230/4/2
f 230/4/2 226/4/2 231/4/2
f 226/5/2 227/5/2 232/5/2
f 231/4/2 226/4/2 232/4/2
f 227/5/2 222/5/2 233/5/2
f 232/5/2 227/5/2 233/5/2
f 222/3/2 207/3/2 233/3/2
f 229/2/2 230/2/2 234/2/2
f 228/3/2 229/3/2 234/3/2
f 234/2/2 230/2/2 235/2/2
f 231/2/2 232/2/2 236/2/2
f 232/2/2 233/2/2 236/2/2
f 233/3/2 207/3/2 237/3/2
f 236/2/2 233/2/2 237/2/2
f 234/3/2 235/3/2 238/3/2
f 235/3/2 236/3/2 238/3/2
f 236/3/2 237/3/2 238/3/2
f 228/3/2 234/3/2 238/3/2
f 223/3/2 228/3/2 238/3/2
f 208/3/2 223/3/2 238/3/2
f 238/3/2 237/3/2 239/3/2
f 237/3/2 207/3/2 240/3/2
f 239/3/2 237/3/2 240/3/2
f 240/3/2 207/3/2 241/3/2
f 239/3/2 240/3/2 242/3/2
f 242/3/2 240/3/2 243/3/2
f 244/3/2 245/3/2 246/3/2
f 246/3/2 245/3/2 247/3/2
f 247/3/2 248/3/2 249/3/2
f 249/3/2 248/3/2 250/3/2
f 250/3/2 251/3/2 252/3/2
f 252/3/2 251/3/2 253/3/2
f 258/7/3 255/7/3 254/7/3
f 259/6/3 256/6/3 255/6/3
f 259/7/3 255/7/3 258/7/3
f 260/7/3 257/7/3 256/7/3
f 260/6/3 256/6/3 259/6/3
f 261/7/3 257/7/3 260/7/3
f 262/6/3 259/6/3 258/6/3
f 262/6/3 260/6/3 259/6/3
f 263/6/3 260/6/3 262/6/3
f 264/5/3 261/5/3 260/5/3
f 264/6/3 260/6/3 263/6/3
f 265/5/3 263/5/3 262/5/3
f 266/5/3 263/5/3 265/5/3
f 267/7/3 264/7/3 263/7/3
f 267/5/3 263/5/3 266/5/3
f 268/6/3 266/6/3 265/6/3
f 268/7/3 267/7/3 266/7/3
f 269/7/3 264/7/3 267/7/3
f 269/7/3 267/7/3 268/7/3
f 270/5/3 261/5/3 264/5/3
f 270/7/3 264/7/3 269/7/3
f 271/6/3 269/6/3 268/6/3
f 271/6/3 268/6/3 265/6/3
f 272/5/3 270/5/3 269/5/3
f 272/6/3 269/6/3 271/6/3
f 273/5/3 261/5/3 270/5/3
f 273/5/3 270/5/3 272/5/3
f 279/5/3 275/5/3 274/5/3
f 280/7/3 276/7/3 275/7/3
f 280/5/3 275/5/3 279/5/3
f 281/7/3 276/7/3 280/7/3
f 282/6/3 280/6/3 279/6/3
f 282/6/3 281/6/3 280/6/3
f 283/6/3 281/6/3 282/6/3
f 284/5/3 283/5/3 282/5/3
f 285/5/3 283/5/3 284/5/3
f 286/7/3 285/7/3 284/7/3
f 286/5/3 283/5/3 285/5/3
f 287/5/3 283/5/3 286/5/3
f 288/7/3 286/7/3 284/7/3
f 288/7/3 287/7/3 286/7/3
f 289/7/3 287/7/3 288/7/3
f 290/3/3 278/3/3 277/3/3
f 291/3/3 278/3/3 290/3/3
f 292/3/3 278/3/3 291/3/3
f 293/3/3 278/3/3 292/3/3
f 297/3/3 295/3/3 294/3/3
f 298/3/3 295/3/3 297/3/3
f 300/3/3 297/3/3 296/3/3
f 301/3/3 297/3/3 300/3/3
f 302/9/3 301/9/3 300/9/3
f 303/9/3 301/9/3 302/9/3
f 304/9/3 301/9/3 303/9/3
f 305/9/3 301/9/3 304/9/3
f 306/3/3 299/3/3 298/3/3
f 307/3/3 299/3/3 306/3/3
f 312/1/3 311/1/3 310/1/3
f 313/1/3 311/1/3 312/1/3
f 314/3/3 309/3/3 308/3/3
f 315/3/3 309/3/3 314/3/3
f 318/3/3 317/3/3 316/3/3
f 319/3/3 317/3/3 318/3/3
f 322/3/3 321/3/3 320/3/3
f 323/3/3 321/3/3 322/3/3
f 326/3/3 325/3/3 324/3/3
f 327/3/3 325/3/3 326/3/3
f 330/2/3 329/2/3 328/2/3
f 331/2/3 329/2/3 330/2/3
f 334/2/3 333/2/3 332/2/3
f 335/2/3 333/2/3 334/2/3
f 338/2/3 337/2/3 336/2/3
f 339/2/3 337/2/3 338/2/3
f 340/3/4 341/3/4 342/3/4
f 342/3/4 341/3/4 343/3/4
f 344/3/4 345/3/4 346/3/4
f 346/3/4 345/3/4 347/3/4
f 348/2/4 349/2/4 350/2/4
f 350/2/4 349/2/4 351/2/4
f 352/3/4 353/3/4 354/3/4
f 354/3/4 353/3/4 355/3/4
f 356/6/4 357/6/4 358/6/4
f 358/6/4 357/6/4 359/6/4
f 360/6/4 361/6/4 362/6/4
f 362/6/4 361/6/4 363/6/4
f 364/5/4 365/5/4 366/5/4
f 366/5/4 365/5/4 367/5/4
f 368/5/4 369/5/4 371/5/4
f 369/6/4 370/6/4 372/6/4
f 371/5/4 369/5/4 372/5/4
f 372/6/4 370/6/4 373/6/4
f 376/1/4 377/1/4 378/1/4
f 378/1/4 377/1/4 379/1/4
f 374/3/4 375/3/4 380/3/4
f 380/3/4 375/3/4 381/3/4
f 382/3/4 383/3/4 385/3/4
f 385/3/4 383/3/4 386/3/4
f 384/3/4 385/3/4 390/3/4
f 390/3/4 385/3/4 391/3/4
f 388/4/4 389/4/4 392/4/4
f 392/4/4 389/4/4 393/4/4
f 393/4/4 389/4/4 394/4/4
f 389/1/4 390/1/4 395/1/4
f 394/4/4 389/4/4 395/4/4
f 395/1/4 390/1/4 396/1/4
f 396/1/4 390/1/4 401/1/4
f 399/4/4 400/4/4 402/4/4
f 397/4/4 398/4/4 402/4/4
f 398/4/4 399/4/4 402/4/4
f 400/1/4 401/1/4 403/1/4
f 402/4/4 400/4/4 403/4/4
f 390/2/4 391/2/4 404/2/4
f 403/1/4 401/1/4 404/1/4
f 401/1/4 390/1/4 404/1/4
f 404/2/4 391/2/4 405/2/4
f 405/2/4 391/2/4 406/2/4
f 386/3/4 387/3/4 407/3/4
f 407/3/4 387/3/4 408/3/4
f 411/2/4 412/2/4 413/2/4
f 413/2/4 412/2/4 414/2/4
f 409/3/4 410/3/4 415/3/4
f 415/3/4 410/3/4 416/3/4
f 417/9/4 418/9/4 421/9/4
f 418/5/4 419/5/4 422/5/4
f 421/9/4 418/9/4 422/9/4
f 419/2/4 420/2/4 423/2/4
f 422/5/4 419/5/4 423/5/4
f 423/2/4 420/2/4 424/2/4
f 427/1/5 426/1/5 425/1/5
f 428/1/5 426/1/5 427/1/5
f 429/2/5 428/2/5 427/2/5
f 430/2/5 428/2/5 429/2/5
f 433/2/5 432/2/5 431/2/5
f 434/2/5 432/2/5 433/2/5
f 435/1/5 434/1/5 433/1/5
f 436/1/5 434/1/5 435/1/5
f 442/7/5 438/7/5 437/7/5
f 443/6/5 439/6/5 438/6/5
f 443/7/5 438/7/5 442/7/5
f 444/5/5 440/5/5 439/5/5
f 444/6/5 439/6/5 443/6/5
f 445/6/5 441/6/5 440/6/5
f 445/5/5 440/5/5 444/5/5
f 446/6/5 441/6/5 445/6/5
f 447/5/5 444/5/5 443/5/5
f 447/5/5 443/5/5 442/5/5
f 447/5/5 446/5/5 445/5/5
f 447/5/5 445/5/5 444/5/5
f 448/5/5 446/5/5 447/5/5
f 449/5/5 446/5/5 448/5/5
f 450/5/5 446/5/5 449/5/5
f 451/7/5 448/7/5 447/7/5
f 452/4/5 449/4/5 448/4/5
f 452/7/5 448/7/5 451/7/5
f 453/4/5 449/4/5 452/4/5
f 454/7/5 450/7/5 449/7/5
f 454/4/5 449/4/5 453/4/5
f 455/7/5 450/7/5 454/7/5
f 456/1/5 453/1/5 452/1/5
f 457/1/5 455/1/5 454/1/5
f 458/5/5 452/5/5 451/5/5
f 459/1/5 456/1/5 452/1/5
f 459/5/5 452/5/5 458/5/5
f 460/6/5 459/6/5 458/6/5
f 460/1/5 456/1/5 459/1/5
f 461/1/5 456/1/5 460/1/5
f 462/1/5 455/1/5 457/1/5
f 463/1/5 455/1/5 462/1/5
f 464/6/5 460/6/5 458/6/5
f 465/2/5 461/2/5 460/2/5
f 465/6/5 460/6/5 464/6/5
f 465/2/5 462/2/5 461/2/5
f 465/2/5 463/2/5 462/2/5
f 466/2/5 463/2/5 465/2/5
f 467/2/5 463/2/5 466/2/5
f 468/2/5 463/2/5 467/2/5
f 469/1/5 466/1/5 465/1/5
f 470/1/5 468/1/5 467/1/5
f 471/1/5 469/1/5 465/1/5
f 472/1/5 469/1/5 471/1/5
f 473/1/5 468/1/5 470/1/5
f 474/1/5 468/1/5 473/1/5
f 475/4/5 472/4/5 471/4/5
f 475/4/5 473/4/5 472/4/5
f 475/4/5 474/4/5 473/4/5
f 476/4/5 474/4/5 475/4/5
f 477/4/5 474/4/5 476/4/5
f 478/4/5 474/4/5 477/4/5
f 479/9/5 477/9/5 476/9/5
f 480/9/5 477/9/5 479/9/5
f 483/6/5 482/6/5 481/6/5
f 484/6/5 482/6/5 483/6/5
f 487/5/5 486/5/5 485/5/5
f 488/5/5 486/5/5 487/5/5
f 491/5/5 490/5/5 489/5/5
f 492/5/5 490/5/5 491/5/5
f 497/3/5 496/3/5 495/3/5
f 498/3/5 496/3/5 497/3/5
f 499/2/5 494/2/5 493/2/5
f 500/2/5 494/2/5 499/2/5
f 504/3/5 502/3/5 501/3/5
f 505/3/5 502/3/5 504/3/5
f 506/3/5 502/3/5 505/3/5
f 509/2/5 508/2/5 507/2/5
f 510/2/5 508/2/5 509/2/5
f 511/3/5 504/3/5 503/3/5
f 512/3/5 504/3/5 511/3/5
f 515/3/5 514/3/5 513/3/5
f 515/3/5 513/3/5 512/3/5
f 516/3/5 514/3/5 515/3/5
f 519/3/5 518/3/5 517/3/5
f 520/3/5 518/3/5 519/3/5
f 521/2/5 520/2/5 519/2/5
f 522/2/5 520/2/5 521/2/5
f 525/3/5 524/3/5 523/3/5
f 526/3/5 524/3/5 525/3/5
f 529/3/5 528/3/5 527/3/5
f 530/3/5 528/3/5 529/3/5
f 533/3/5 532/3/5 531/3/5
f 534/3/5 532/3/5 533/3/5
f 535/7/6 536/7/6 538/7/6
f 536/5/6 537/5/6 539/5/6
f 538/7/6 536/7/6 539/7/6
f 539/5/6 537/5/6 540/5/6
f 540/5/6 537/5/6 541/5/6
f 541/5/6 537/5/6 542/5/6
f 543/2/6 544/2/6 545/2/6
f 545/2/6 544/2/6 546/2/6
f 547/2/6 548/2/6 549/2/6
f 549/2/6 548/2/6 550/2/6
f 551/7/6 552/7/6 556/7/6
f 552/6/6 553/6/6 557/6/6
f 556/7/6 552/7/6 557/7/6
f 553/5/6 554/5/6 558/5/6
f 557/6/6 553/6/6 558/6/6
f 554/7/6 555/7/6 559/7/6
f 558/5/6 554/5/6 559/5/6
f 559/7/6 555/7/6 560/7/6
f 561/3/6 562/3/6 563/3/6
f 563/3/6 562/3/6 564/3/6
f 565/3/6 566/3/6 567/3/6
f 567/3/6 566/3/6 568/3/6
f 569/3/6 570/3/6 571/3/6
f 571/3/6 570/3/6 572/3/6
f 573/3/6 574/3/6 576/3/6
f 576/3/6 574/3/6 577/3/6
f 575/3/6 576/3/6 578/3/6
f 578/3/6 576/3/6 579/3/6
f 579/3/6 580/3/6 581/3/6
f 581/3/6 580/3/6 582/3/6
f 583/3/6 584/3/6 585/3/6
f 585/3/6 584/3/6 586/3/6
f 583/3/6 585/3/6 587/3/6
f 586/3/6 584/3/6 588/3/6
f 583/3/6 587/3/6 589/3/6
f 587/3/6 588/3/6 589/3/6
f 588/3/6 584/3/6 590/3/6
f 589/3/6 588/3/6 590/3/6
f 591/3/6 592/3/6 593/3/6
f 593/3/6 592/3/6 594/3/6
