# MagicaVoxel @ Ephtracy

# material
mtllib mago.mtl
usemtl palette

# normals
vn -1 0 0
vn 1 0 0
vn 0 0 1
vn 0 0 -1
vn 0 -1 0
vn 0 1 0

# texcoords
vt 0.00195313 0.5
vt 0.00585938 0.5
vt 0.0214844 0.5
vt 0.0371094 0.5
vt 0.0449219 0.5
vt 0.0488281 0.5
vt 0.0527344 0.5
vt 0.0644531 0.5
vt 0.0839844 0.5
vt 0.0878906 0.5

# verts
v -8 8 -3
v -8 8 -5
v -8 12 -3
v -8 12 -5
v -7 5 -3
v -7 5 -5
v -7 6 -1
v -7 6 -2
v -7 7 -2
v -7 7 -3
v -7 7 -5
v -7 7 -6
v -7 8 -3
v -7 8 -5
v -7 9 -1
v -7 9 -2
v -7 9 -3
v -7 9 -5
v -7 9 -6
v -7 12 -3
v -7 12 -5
v -7 13 -2
v -7 13 -6
v -7 18 -2
v -7 18 -6
v -6 9 -1
v -6 9 -2
v -6 10 -1
v -6 10 -2
v -6 17 -1
v -6 17 -2
v -6 18 -2
v -6 18 -6
v -6 19 -1
v -6 19 -6
v -5 10 -1
v -5 10 -2
v -5 11 -2
v -5 12 -1
v -5 12 -2
v -5 15 -0
v -5 15 -1
v -5 16 -1
v -5 16 -2
v -5 17 -1
v -5 17 -2
v -5 19 -0
v -5 19 -1
v -1 5 -3
v -1 5 -5
v -1 6 -3
v -1 6 -5
v -1 7 -3
v -1 7 -5
v 2 6 -3
v 2 6 -5
v 2 8 -3
v 2 8 -5
v 2 12 -3
v 2 12 -5
v 2 15 -3
v 2 15 -5
v 2 19 -3
v 2 19 -5
v -5 5 -3
v -5 5 -5
v -5 6 -3
v -5 6 -5
v -5 7 -3
v -5 7 -5
v -1 10 -1
v -1 10 -2
v -1 11 -2
v -1 12 -1
v -1 12 -2
v -1 15 -0
v -1 15 -1
v -1 16 -1
v -1 16 -2
v -1 17 -1
v -1 17 -2
v -1 19 -0
v -1 19 -1
v 0 9 -1
v 0 9 -2
v 0 10 -1
v 0 10 -2
v 0 17 -1
v 0 17 -2
v 0 18 -2
v 0 18 -6
v 0 19 -1
v 0 19 -6
v 1 5 -3
v 1 5 -5
v 1 6 -1
v 1 6 -2
v 1 7 -2
v 1 7 -3
v 1 7 -5
v 1 7 -6
v 1 8 -3
v 1 8 -5
v 1 9 -1
v 1 9 -2
v 1 9 -3
v 1 9 -5
v 1 9 -6
v 1 12 -3
v 1 12 -5
v 1 13 -2
v 1 13 -6
v 1 18 -2
v 1 18 -6
v 3 16 -3
v 3 16 -5
v 3 18 -3
v 3 18 -5
v 4 6 -3
v 4 6 -5
v 4 15 -3
v 4 15 -5
v 5 15 -3
v 5 15 -5
v 5 16 -3
v 5 16 -5
v 5 18 -3
v 5 18 -5
v 5 19 -3
v 5 19 -5
v -5 15 -0
v -5 19 -0
v -1 15 -0
v -1 19 -0
v -7 6 -1
v -7 9 -1
v -6 9 -1
v -6 10 -1
v -6 17 -1
v -6 19 -1
v -5 10 -1
v -5 12 -1
v -5 17 -1
v -5 19 -1
v -1 10 -1
v -1 12 -1
v -1 17 -1
v -1 19 -1
v 0 9 -1
v 0 10 -1
v 0 17 -1
v 0 19 -1
v 1 6 -1
v 1 9 -1
v -7 9 -2
v -7 13 -2
v -7 18 -2
v -6 9 -2
v -6 10 -2
v -6 11 -2
v -6 12 -2
v -6 13 -2
v -6 17 -2
v -6 18 -2
v -5 10 -2
v -5 11 -2
v -5 12 -2
v -5 16 -2
v -5 17 -2
v -1 10 -2
v -1 11 -2
v -1 12 -2
v -1 16 -2
v -1 17 -2
v 0 9 -2
v 0 10 -2
v 0 11 -2
v 0 12 -2
v 0 13 -2
v 0 17 -2
v 0 18 -2
v 1 9 -2
v 1 13 -2
v 1 18 -2
v -8 8 -3
v -8 12 -3
v -7 5 -3
v -7 7 -3
v -7 8 -3
v -7 9 -3
v -7 12 -3
v -6 6 -3
v -6 7 -3
v -5 5 -3
v -5 6 -3
v -5 7 -3
v -1 5 -3
v -1 6 -3
v -1 7 -3
v 0 6 -3
v 0 7 -3
v 1 5 -3
v 1 7 -3
v 1 8 -3
v 1 9 -3
v 1 12 -3
v 2 6 -3
v 2 8 -3
v 2 12 -3
v 2 15 -3
v 2 19 -3
v 3 16 -3
v 3 18 -3
v 4 6 -3
v 4 15 -3
v 5 15 -3
v 5 16 -3
v 5 18 -3
v 5 19 -3
v -5 15 -1
v -5 16 -1
v -1 15 -1
v -1 16 -1
v -7 6 -2
v -7 7 -2
v -6 7 -2
v -5 7 -2
v -4 7 -2
v -2 7 -2
v -1 7 -2
v 0 7 -2
v 1 6 -2
v 1 7 -2
v -8 8 -5
v -8 12 -5
v -7 5 -5
v -7 7 -5
v -7 8 -5
v -7 9 -5
v -7 12 -5
v -6 6 -5
v -6 7 -5
v -5 5 -5
v -5 6 -5
v -5 7 -5
v -1 5 -5
v -1 6 -5
v -1 7 -5
v 0 6 -5
v 0 7 -5
v 1 5 -5
v 1 7 -5
v 1 8 -5
v 1 9 -5
v 1 12 -5
v 2 6 -5
v 2 8 -5
v 2 12 -5
v 2 15 -5
v 2 19 -5
v 3 16 -5
v 3 18 -5
v 4 6 -5
v 4 15 -5
v 5 15 -5
v 5 16 -5
v 5 18 -5
v 5 19 -5
v -7 7 -6
v -7 9 -6
v -7 13 -6
v -7 18 -6
v -6 7 -6
v -6 8 -6
v -6 9 -6
v -6 11 -6
v -6 12 -6
v -6 13 -6
v -6 16 -6
v -6 18 -6
v -6 19 -6
v -5 7 -6
v -5 8 -6
v -5 10 -6
v -5 11 -6
v -5 14 -6
v -5 15 -6
v -4 7 -6
v -4 8 -6
v -4 9 -6
v -4 10 -6
v -4 11 -6
v -4 14 -6
v -4 15 -6
v -4 16 -6
v -2 7 -6
v -2 8 -6
v -2 9 -6
v -2 10 -6
v -2 11 -6
v -2 14 -6
v -2 15 -6
v -2 16 -6
v -1 7 -6
v -1 8 -6
v -1 10 -6
v -1 11 -6
v -1 14 -6
v -1 15 -6
v 0 7 -6
v 0 8 -6
v 0 9 -6
v 0 11 -6
v 0 12 -6
v 0 13 -6
v 0 16 -6
v 0 18 -6
v 0 19 -6
v 1 7 -6
v 1 9 -6
v 1 13 -6
v 1 18 -6
v -7 5 -3
v -5 5 -3
v -1 5 -3
v 1 5 -3
v -7 5 -5
v -5 5 -5
v -1 5 -5
v 1 5 -5
v -7 6 -1
v 1 6 -1
v -7 6 -2
v 1 6 -2
v 2 6 -3
v 4 6 -3
v 2 6 -5
v 4 6 -5
v -7 7 -2
v -6 7 -2
v -5 7 -2
v -4 7 -2
v -2 7 -2
v -1 7 -2
v 0 7 -2
v 1 7 -2
v -7 7 -3
v -6 7 -3
v -5 7 -3
v -4 7 -3
v -2 7 -3
v -1 7 -3
v 0 7 -3
v 1 7 -3
v -7 7 -5
v -6 7 -5
v -5 7 -5
v -4 7 -5
v -2 7 -5
v -1 7 -5
v 0 7 -5
v 1 7 -5
v -7 7 -6
v -6 7 -6
v -5 7 -6
v -4 7 -6
v -2 7 -6
v -1 7 -6
v 0 7 -6
v 1 7 -6
v -8 8 -3
v -7 8 -3
v 1 8 -3
v 2 8 -3
v -8 8 -5
v -7 8 -5
v 1 8 -5
v 2 8 -5
v -5 15 -0
v -1 15 -0
v -5 15 -1
v -1 15 -1
v 4 15 -3
v 5 15 -3
v 4 15 -5
v 5 15 -5
v -5 16 -1
v -1 16 -1
v -5 16 -2
v -1 16 -2
v -6 17 -1
v -5 17 -1
v -1 17 -1
v 0 17 -1
v -6 17 -2
v -5 17 -2
v -1 17 -2
v 0 17 -2
v 3 18 -3
v 5 18 -3
v 3 18 -5
v 5 18 -5
v -7 9 -1
v -6 9 -1
v 0 9 -1
v 1 9 -1
v -7 9 -2
v -6 9 -2
v 0 9 -2
v 1 9 -2
v -6 10 -1
v -5 10 -1
v -1 10 -1
v 0 10 -1
v -6 10 -2
v -5 10 -2
v -1 10 -2
v 0 10 -2
v -5 12 -1
v -1 12 -1
v -5 12 -2
v -1 12 -2
v -8 12 -3
v -7 12 -3
v 1 12 -3
v 2 12 -3
v -8 12 -5
v -7 12 -5
v 1 12 -5
v 2 12 -5
v 3 16 -3
v 5 16 -3
v 3 16 -5
v 5 16 -5
v -7 18 -2
v -6 18 -2
v 0 18 -2
v 1 18 -2
v -7 18 -6
v -6 18 -6
v 0 18 -6
v 1 18 -6
v -5 19 -0
v -1 19 -0
v -6 19 -1
v -5 19 -1
v -1 19 -1
v 0 19 -1
v 2 19 -3
v 5 19 -3
v 2 19 -5
v 5 19 -5
v -6 19 -6
v 0 19 -6

# faces
f 3/5/1 2/5/1 1/5/1
f 4/5/1 2/5/1 3/5/1
f 9/4/1 8/4/1 7/4/1
f 10/5/1 6/5/1 5/5/1
f 11/5/1 6/5/1 10/5/1
f 13/5/1 10/5/1 9/5/1
f 13/2/1 11/2/1 10/2/1
f 14/5/1 12/5/1 11/5/1
f 14/2/1 11/2/1 13/2/1
f 15/4/1 9/4/1 7/4/1
f 16/5/1 13/5/1 9/5/1
f 16/4/1 9/4/1 15/4/1
f 17/5/1 13/5/1 16/5/1
f 18/5/1 12/5/1 14/5/1
f 19/5/1 12/5/1 18/5/1
f 20/2/1 17/2/1 16/2/1
f 21/2/1 19/2/1 18/2/1
f 22/2/1 20/2/1 16/2/1
f 22/2/1 21/2/1 20/2/1
f 23/2/1 19/2/1 21/2/1
f 23/2/1 21/2/1 22/2/1
f 24/4/1 23/4/1 22/4/1
f 25/4/1 23/4/1 24/4/1
f 28/4/1 27/4/1 26/4/1
f 29/4/1 27/4/1 28/4/1
f 32/4/1 31/4/1 30/4/1
f 34/4/1 32/4/1 30/4/1
f 34/4/1 33/4/1 32/4/1
f 35/4/1 33/4/1 34/4/1
f 38/4/1 37/4/1 36/4/1
f 39/4/1 38/4/1 36/4/1
f 40/4/1 38/4/1 39/4/1
f 43/4/1 42/4/1 41/4/1
f 45/4/1 43/4/1 41/4/1
f 45/4/1 44/4/1 43/4/1
f 46/4/1 44/4/1 45/4/1
f 47/4/1 45/4/1 41/4/1
f 48/4/1 45/4/1 47/4/1
f 51/5/1 50/5/1 49/5/1
f 52/5/1 50/5/1 51/5/1
f 53/6/1 52/6/1 51/6/1
f 54/6/1 52/6/1 53/6/1
f 57/8/1 56/8/1 55/8/1
f 58/8/1 56/8/1 57/8/1
f 61/8/1 60/8/1 59/8/1
f 62/8/1 60/8/1 61/8/1
f 63/3/1 62/3/1 61/3/1
f 64/3/1 62/3/1 63/3/1
f 65/5/2 66/5/2 67/5/2
f 67/5/2 66/5/2 68/5/2
f 67/6/2 68/6/2 69/6/2
f 69/6/2 68/6/2 70/6/2
f 71/4/2 72/4/2 73/4/2
f 71/4/2 73/4/2 74/4/2
f 74/4/2 73/4/2 75/4/2
f 76/4/2 77/4/2 78/4/2
f 76/4/2 78/4/2 80/4/2
f 78/4/2 79/4/2 80/4/2
f 80/4/2 79/4/2 81/4/2
f 76/4/2 80/4/2 82/4/2
f 82/4/2 80/4/2 83/4/2
f 84/4/2 85/4/2 86/4/2
f 86/4/2 85/4/2 87/4/2
f 88/4/2 89/4/2 90/4/2
f 88/4/2 90/4/2 92/4/2
f 90/4/2 91/4/2 92/4/2
f 92/4/2 91/4/2 93/4/2
f 96/4/2 97/4/2 98/4/2
f 94/5/2 95/5/2 99/5/2
f 99/5/2 95/5/2 100/5/2
f 98/5/2 99/5/2 102/5/2
f 99/2/2 100/2/2 102/2/2
f 100/5/2 101/5/2 103/5/2
f 102/2/2 100/2/2 103/2/2
f 96/4/2 98/4/2 104/4/2
f 98/5/2 102/5/2 105/5/2
f 104/4/2 98/4/2 105/4/2
f 105/5/2 102/5/2 106/5/2
f 103/5/2 101/5/2 107/5/2
f 107/5/2 101/5/2 108/5/2
f 105/2/2 106/2/2 109/2/2
f 107/2/2 108/2/2 110/2/2
f 105/2/2 109/2/2 111/2/2
f 109/2/2 110/2/2 111/2/2
f 110/2/2 108/2/2 112/2/2
f 111/2/2 110/2/2 112/2/2
f 111/4/2 112/4/2 113/4/2
f 113/4/2 112/4/2 114/4/2
f 115/3/2 116/3/2 117/3/2
f 117/3/2 116/3/2 118/3/2
f 119/8/2 120/8/2 121/8/2
f 121/8/2 120/8/2 122/8/2
f 123/3/2 124/3/2 125/3/2
f 125/3/2 124/3/2 126/3/2
f 127/3/2 128/3/2 129/3/2
f 129/3/2 128/3/2 130/3/2
f 133/4/3 132/4/3 131/4/3
f 134/4/3 132/4/3 133/4/3
f 137/4/3 136/4/3 135/4/3
f 141/4/3 138/4/3 137/4/3
f 143/4/3 140/4/3 139/4/3
f 144/4/3 140/4/3 143/4/3
f 145/4/3 142/4/3 141/4/3
f 145/4/3 141/4/3 137/4/3
f 146/4/3 142/4/3 145/4/3
f 149/4/3 137/4/3 135/4/3
f 149/4/3 145/4/3 137/4/3
f 150/4/3 145/4/3 149/4/3
f 151/4/3 148/4/3 147/4/3
f 152/4/3 148/4/3 151/4/3
f 153/4/3 149/4/3 135/4/3
f 154/4/3 149/4/3 153/4/3
f 158/2/3 156/2/3 155/2/3
f 159/2/3 156/2/3 158/2/3
f 160/2/3 156/2/3 159/2/3
f 161/2/3 156/2/3 160/2/3
f 162/4/3 157/4/3 156/4/3
f 162/2/3 156/2/3 161/2/3
f 163/4/3 157/4/3 162/4/3
f 164/4/3 157/4/3 163/4/3
f 165/6/3 160/6/3 159/6/3
f 166/2/3 161/2/3 160/2/3
f 166/6/3 160/6/3 165/6/3
f 167/4/3 163/4/3 162/4/3
f 167/2/3 161/2/3 166/2/3
f 167/4/3 162/4/3 161/4/3
f 168/4/3 163/4/3 167/4/3
f 169/4/3 163/4/3 168/4/3
f 172/4/3 168/4/3 167/4/3
f 173/4/3 168/4/3 172/4/3
f 176/6/3 171/6/3 170/6/3
f 177/2/3 172/2/3 171/2/3
f 177/6/3 171/6/3 176/6/3
f 178/4/3 174/4/3 173/4/3
f 178/2/3 172/2/3 177/2/3
f 178/4/3 173/4/3 172/4/3
f 179/4/3 174/4/3 178/4/3
f 180/4/3 174/4/3 179/4/3
f 182/2/3 177/2/3 176/2/3
f 182/2/3 176/2/3 175/2/3
f 182/2/3 179/2/3 178/2/3
f 182/2/3 178/2/3 177/2/3
f 183/4/3 180/4/3 179/4/3
f 183/2/3 179/2/3 182/2/3
f 183/4/3 181/4/3 180/4/3
f 184/4/3 181/4/3 183/4/3
f 189/5/3 186/5/3 185/5/3
f 190/5/3 186/5/3 189/5/3
f 191/5/3 186/5/3 190/5/3
f 192/5/3 188/5/3 187/5/3
f 193/5/3 188/5/3 192/5/3
f 194/5/3 192/5/3 187/5/3
f 195/6/3 193/6/3 192/6/3
f 195/5/3 192/5/3 194/5/3
f 196/6/3 193/6/3 195/6/3
f 200/5/3 198/5/3 197/5/3
f 200/6/3 199/6/3 198/6/3
f 201/6/3 199/6/3 200/6/3
f 202/5/3 200/5/3 197/5/3
f 202/5/3 201/5/3 200/5/3
f 203/5/3 201/5/3 202/5/3
f 208/5/3 206/5/3 205/5/3
f 208/5/3 205/5/3 204/5/3
f 209/5/3 206/5/3 208/5/3
f 212/3/3 211/3/3 210/3/3
f 213/3/3 211/3/3 212/3/3
f 214/8/3 209/8/3 208/8/3
f 214/8/3 208/8/3 207/8/3
f 214/8/3 210/8/3 209/8/3
f 215/3/3 212/3/3 210/3/3
f 215/8/3 210/8/3 214/8/3
f 216/3/3 212/3/3 215/3/3
f 217/3/3 212/3/3 216/3/3
f 218/3/3 211/3/3 213/3/3
f 219/3/3 211/3/3 218/3/3
f 220/4/4 221/4/4 222/4/4
f 222/4/4 221/4/4 223/4/4
f 224/4/4 225/4/4 226/4/4
f 224/4/4 226/4/4 227/4/4
f 224/4/4 227/4/4 228/4/4
f 224/4/4 228/4/4 229/4/4
f 224/4/4 229/4/4 230/4/4
f 224/4/4 230/4/4 231/4/4
f 224/4/4 231/4/4 232/4/4
f 232/4/4 231/4/4 233/4/4
f 234/5/4 235/5/4 238/5/4
f 238/5/4 235/5/4 239/5/4
f 239/5/4 235/5/4 240/5/4
f 236/5/4 237/5/4 241/5/4
f 241/5/4 237/5/4 242/5/4
f 236/5/4 241/5/4 243/5/4
f 241/6/4 242/6/4 244/6/4
f 243/5/4 241/5/4 244/5/4
f 244/6/4 242/6/4 245/6/4
f 246/5/4 247/5/4 249/5/4
f 247/6/4 248/6/4 249/6/4
f 249/6/4 248/6/4 250/6/4
f 246/5/4 249/5/4 251/5/4
f 249/5/4 250/5/4 251/5/4
f 251/5/4 250/5/4 252/5/4
f 254/5/4 255/5/4 257/5/4
f 253/5/4 254/5/4 257/5/4
f 257/5/4 255/5/4 258/5/4
f 259/3/4 260/3/4 261/3/4
f 261/3/4 260/3/4 262/3/4
f 257/8/4 258/8/4 263/8/4
f 256/8/4 257/8/4 263/8/4
f 258/8/4 259/8/4 263/8/4
f 259/3/4 261/3/4 264/3/4
f 263/8/4 259/8/4 264/8/4
f 264/3/4 261/3/4 265/3/4
f 265/3/4 261/3/4 266/3/4
f 262/3/4 260/3/4 267/3/4
f 267/3/4 260/3/4 268/3/4
f 269/5/4 270/5/4 273/5/4
f 273/5/4 270/5/4 274/5/4
f 270/2/4 271/2/4 275/2/4
f 274/5/4 270/5/4 275/5/4
f 275/2/4 271/2/4 276/2/4
f 276/2/4 271/2/4 277/2/4
f 271/4/4 272/4/4 278/4/4
f 277/2/4 271/2/4 278/2/4
f 278/4/4 272/4/4 279/4/4
f 279/4/4 272/4/4 280/4/4
f 273/2/4 274/2/4 282/2/4
f 274/5/4 275/5/4 283/5/4
f 282/2/4 274/2/4 283/2/4
f 275/6/4 276/6/4 284/6/4
f 276/2/4 277/2/4 285/2/4
f 284/6/4 276/6/4 285/6/4
f 277/9/4 278/9/4 286/9/4
f 278/9/4 279/9/4 286/9/4
f 286/9/4 279/9/4 287/9/4
f 282/5/4 283/5/4 288/5/4
f 283/5/4 275/5/4 289/5/4
f 288/5/4 283/5/4 289/5/4
f 275/6/4 284/6/4 290/6/4
f 289/5/4 275/5/4 290/5/4
f 284/7/4 285/7/4 291/7/4
f 290/6/4 284/6/4 291/6/4
f 285/2/4 277/2/4 292/2/4
f 291/7/4 285/7/4 292/7/4
f 277/9/4 286/9/4 293/9/4
f 286/10/4 287/10/4 293/10/4
f 287/9/4 279/9/4 294/9/4
f 293/10/4 287/10/4 294/10/4
f 280/4/4 281/4/4 295/4/4
f 294/9/4 279/9/4 295/9/4
f 279/4/4 280/4/4 295/4/4
f 288/2/4 289/2/4 296/2/4
f 290/5/4 291/5/4 297/5/4
f 296/2/4 289/2/4 297/2/4
f 289/5/4 290/5/4 297/5/4
f 297/5/4 291/5/4 298/5/4
f 291/6/4 292/6/4 299/6/4
f 298/5/4 291/5/4 299/5/4
f 292/2/4 277/2/4 300/2/4
f 299/6/4 292/6/4 300/6/4
f 293/9/4 294/9/4 301/9/4
f 277/9/4 293/9/4 301/9/4
f 294/4/4 295/4/4 302/4/4
f 301/9/4 294/9/4 302/9/4
f 295/4/4 281/4/4 303/4/4
f 302/4/4 295/4/4 303/4/4
f 297/5/4 298/5/4 304/5/4
f 296/5/4 297/5/4 304/5/4
f 304/5/4 298/5/4 305/5/4
f 299/7/4 300/7/4 306/7/4
f 298/6/4 299/6/4 306/6/4
f 300/2/4 277/2/4 307/2/4
f 306/7/4 300/7/4 307/7/4
f 301/10/4 302/10/4 308/10/4
f 277/9/4 301/9/4 308/9/4
f 302/9/4 303/9/4 309/9/4
f 308/10/4 302/10/4 309/10/4
f 304/2/4 305/2/4 310/2/4
f 305/5/4 298/5/4 311/5/4
f 310/2/4 305/2/4 311/2/4
f 298/6/4 306/6/4 312/6/4
f 311/5/4 298/5/4 312/5/4
f 306/6/4 307/6/4 312/6/4
f 307/2/4 277/2/4 313/2/4
f 312/6/4 307/6/4 313/6/4
f 308/9/4 309/9/4 314/9/4
f 313/2/4 277/2/4 314/2/4
f 277/9/4 308/9/4 314/9/4
f 314/9/4 309/9/4 315/9/4
f 303/4/4 281/4/4 316/4/4
f 315/9/4 309/9/4 316/9/4
f 309/9/4 303/9/4 316/9/4
f 316/4/4 281/4/4 317/4/4
f 317/4/4 281/4/4 318/4/4
f 311/5/4 312/5/4 319/5/4
f 310/5/4 311/5/4 319/5/4
f 312/2/4 313/2/4 320/2/4
f 319/5/4 312/5/4 320/5/4
f 314/2/4 315/2/4 320/2/4
f 313/2/4 314/2/4 320/2/4
f 316/4/4 317/4/4 321/4/4
f 320/2/4 315/2/4 321/2/4
f 315/4/4 316/4/4 321/4/4
f 321/4/4 317/4/4 322/4/4
f 327/5/5 324/5/5 323/5/5
f 328/5/5 324/5/5 327/5/5
f 329/5/5 326/5/5 325/5/5
f 330/5/5 326/5/5 329/5/5
f 333/4/5 332/4/5 331/4/5
f 334/4/5 332/4/5 333/4/5
f 337/8/5 336/8/5 335/8/5
f 338/8/5 336/8/5 337/8/5
f 347/5/5 340/5/5 339/5/5
f 348/2/5 341/2/5 340/2/5
f 348/5/5 340/5/5 347/5/5
f 349/5/5 342/5/5 341/5/5
f 349/2/5 341/2/5 348/2/5
f 350/2/5 343/2/5 342/2/5
f 350/5/5 342/5/5 349/5/5
f 351/5/5 344/5/5 343/5/5
f 351/2/5 343/2/5 350/2/5
f 352/2/5 345/2/5 344/2/5
f 352/5/5 344/5/5 351/5/5
f 353/5/5 346/5/5 345/5/5
f 353/2/5 345/2/5 352/2/5
f 354/5/5 346/5/5 353/5/5
f 357/5/5 352/5/5 351/5/5
f 357/5/5 351/5/5 350/5/5
f 357/5/5 350/5/5 349/5/5
f 358/5/5 352/5/5 357/5/5
f 359/5/5 352/5/5 358/5/5
f 360/5/5 352/5/5 359/5/5
f 363/5/5 356/5/5 355/5/5
f 364/2/5 357/2/5 356/2/5
f 364/5/5 356/5/5 363/5/5
f 365/5/5 358/5/5 357/5/5
f 365/2/5 357/2/5 364/2/5
f 366/2/5 359/2/5 358/2/5
f 366/5/5 358/5/5 365/5/5
f 367/5/5 360/5/5 359/5/5
f 367/2/5 359/2/5 366/2/5
f 368/2/5 361/2/5 360/2/5
f 368/5/5 360/5/5 367/5/5
f 369/5/5 362/5/5 361/5/5
f 369/2/5 361/2/5 368/2/5
f 370/5/5 362/5/5 369/5/5
f 375/5/5 372/5/5 371/5/5
f 376/5/5 372/5/5 375/5/5
f 377/5/5 374/5/5 373/5/5
f 378/5/5 374/5/5 377/5/5
f 381/4/5 380/4/5 379/4/5
f 382/4/5 380/4/5 381/4/5
f 385/3/5 384/3/5 383/3/5
f 386/3/5 384/3/5 385/3/5
f 389/4/5 388/4/5 387/4/5
f 390/4/5 388/4/5 389/4/5
f 395/4/5 392/4/5 391/4/5
f 396/4/5 392/4/5 395/4/5
f 397/4/5 394/4/5 393/4/5
f 398/4/5 394/4/5 397/4/5
f 401/3/5 400/3/5 399/3/5
f 402/3/5 400/3/5 401/3/5
f 403/4/6 404/4/6 407/4/6
f 407/4/6 404/4/6 408/4/6
f 405/4/6 406/4/6 409/4/6
f 409/4/6 406/4/6 410/4/6
f 411/4/6 412/4/6 415/4/6
f 415/4/6 412/4/6 416/4/6
f 413/4/6 414/4/6 417/4/6
f 417/4/6 414/4/6 418/4/6
f 419/4/6 420/4/6 421/4/6
f 421/4/6 420/4/6 422/4/6
f 423/5/6 424/5/6 427/5/6
f 427/5/6 424/5/6 428/5/6
f 425/5/6 426/5/6 429/5/6
f 429/5/6 426/5/6 430/5/6
f 431/3/6 432/3/6 433/3/6
f 433/3/6 432/3/6 434/3/6
f 435/4/6 436/4/6 439/4/6
f 439/4/6 436/4/6 440/4/6
f 437/4/6 438/4/6 441/4/6
f 441/4/6 438/4/6 442/4/6
f 443/4/6 444/4/6 446/4/6
f 446/4/6 444/4/6 447/4/6
f 449/3/6 450/3/6 451/3/6
f 451/3/6 450/3/6 452/3/6
f 445/4/6 446/4/6 453/4/6
f 446/4/6 447/4/6 453/4/6
f 447/4/6 448/4/6 453/4/6
f 453/4/6 448/4/6 454/4/6
