# MagicaVoxel @ Ephtracy

# material
mtllib hab1.8.mtl
usemtl palette

# normals
vn -1 0 0
vn 1 0 0
vn 0 0 1
vn 0 0 -1
vn 0 -1 0
vn 0 1 0

# texcoords
vt 0.0253906 0.5
vt 0.0292969 0.5
vt 0.0449219 0.5
vt 0.0488281 0.5
vt 0.0605469 0.5
vt 0.0761719 0.5
vt 0.0878906 0.5

# verts
v -63 0 31.5
v -63 0 -31.5
v -63 4 31.5
v -63 4 -31.5
v -63 12 31.5
v -63 12 -31.5
v -63 13 31.5
v -63 13 -31.5
v -40 5 15.5
v -40 5 13.5
v -40 5 -13.5
v -40 5 -15.5
v -40 12 15.5
v -40 12 13.5
v -40 12 -13.5
v -40 12 -15.5
v -40 13 15.5
v -40 13 13.5
v -40 13 -13.5
v -40 13 -15.5
v -39 5 13.5
v -39 5 -13.5
v -39 12 13.5
v -39 12 -13.5
v -39 13 13.5
v -39 13 -13.5
v -35 3 20.5
v -35 3 7.5
v -35 3 -7.5
v -35 3 -20.5
v -35 4 20.5
v -35 4 7.5
v -35 4 -7.5
v -35 4 -20.5
v -13 3 20.5
v -13 3 7.5
v -13 3 -7.5
v -13 3 -20.5
v -13 4 20.5
v -13 4 7.5
v -13 4 -7.5
v -13 4 -20.5
v -4 5 29.5
v -4 5 28.5
v -4 6 29.5
v -4 6 28.5
v 2 5 29.5
v 2 5 28.5
v 2 6 29.5
v 2 6 28.5
v 25 3 20.5
v 25 3 7.5
v 25 3 -7.5
v 25 3 -20.5
v 25 4 20.5
v 25 4 7.5
v 25 4 -7.5
v 25 4 -20.5
v 37 5 15.5
v 37 5 14.5
v 37 5 -14.5
v 37 5 -15.5
v 37 12 15.5
v 37 12 14.5
v 37 12 -14.5
v 37 12 -15.5
v 37 13 15.5
v 37 13 14.5
v 37 13 -14.5
v 37 13 -15.5
v 47 3 20.5
v 47 3 7.5
v 47 3 -7.5
v 47 3 -20.5
v 47 4 20.5
v 47 4 7.5
v 47 4 -7.5
v 47 4 -20.5
v 60 5 29.5
v 60 5 28.5
v 60 5 3.5
v 60 5 2.5
v 60 5 -2.5
v 60 5 -3.5
v 60 5 -28.5
v 60 5 -29.5
v 60 6 3.5
v 60 6 2.5
v 60 6 -2.5
v 60 6 -3.5
v 60 12 29.5
v 60 12 28.5
v 60 12 -28.5
v 60 12 -29.5
v 60 13 29.5
v 60 13 28.5
v 60 13 -28.5
v 60 13 -29.5
v 61 5 28.5
v 61 5 3.5
v 61 5 2.5
v 61 5 1.5
v 61 5 0.5
v 61 5 -0.5
v 61 5 -1.5
v 61 5 -2.5
v 61 5 -3.5
v 61 5 -28.5
v 61 6 3.5
v 61 6 2.5
v 61 6 -2.5
v 61 6 -3.5
v 61 7 -0.5
v 61 7 -1.5
v 61 8 -0.5
v 61 8 -1.5
v 61 10 2.5
v 61 10 1.5
v 61 10 0.5
v 61 10 -0.5
v 61 10 -1.5
v 61 10 -2.5
v 61 11 1.5
v 61 11 -1.5
v 61 12 28.5
v 61 12 -28.5
v 61 13 28.5
v 61 13 -28.5
v -61 5 28.5
v -61 5 -28.5
v -61 12 28.5
v -61 12 -28.5
v -61 13 28.5
v -61 13 -28.5
v -60 5 29.5
v -60 5 28.5
v -60 5 -28.5
v -60 5 -29.5
v -60 12 29.5
v -60 12 28.5
v -60 12 -28.5
v -60 12 -29.5
v -60 13 29.5
v -60 13 28.5
v -60 13 -28.5
v -60 13 -29.5
v -48 3 20.5
v -48 3 7.5
v -48 3 -7.5
v -48 3 -20.5
v -48 4 20.5
v -48 4 7.5
v -48 4 -7.5
v -48 4 -20.5
v -38 5 15.5
v -38 5 14.5
v -38 5 -14.5
v -38 5 -15.5
v -38 12 15.5
v -38 12 14.5
v -38 12 -14.5
v -38 12 -15.5
v -38 13 15.5
v -38 13 14.5
v -38 13 -14.5
v -38 13 -15.5
v -26 3 20.5
v -26 3 7.5
v -26 3 -7.5
v -26 3 -20.5
v -26 4 20.5
v -26 4 7.5
v -26 4 -7.5
v -26 4 -20.5
v -3 5 29.5
v -3 5 28.5
v -3 6 29.5
v -3 6 28.5
v 3 5 29.5
v 3 5 28.5
v 3 6 29.5
v 3 6 28.5
v 12 3 20.5
v 12 3 7.5
v 12 3 -7.5
v 12 3 -20.5
v 12 4 20.5
v 12 4 7.5
v 12 4 -7.5
v 12 4 -20.5
v 34 3 20.5
v 34 3 7.5
v 34 3 -7.5
v 34 3 -20.5
v 34 4 20.5
v 34 4 7.5
v 34 4 -7.5
v 34 4 -20.5
v 38 5 13.5
v 38 5 -13.5
v 38 12 13.5
v 38 12 -13.5
v 38 13 13.5
v 38 13 -13.5
v 39 5 15.5
v 39 5 13.5
v 39 5 -13.5
v 39 5 -15.5
v 39 12 15.5
v 39 12 13.5
v 39 12 -13.5
v 39 12 -15.5
v 39 13 15.5
v 39 13 13.5
v 39 13 -13.5
v 39 13 -15.5
v 63 0 31.5
v 63 0 -31.5
v 63 4 31.5
v 63 4 -31.5
v 63 12 31.5
v 63 12 -31.5
v 63 13 31.5
v 63 13 -31.5
v -63 0 31.5
v -63 4 31.5
v -63 12 31.5
v -63 13 31.5
v 63 0 31.5
v 63 4 31.5
v 63 12 31.5
v 63 13 31.5
v -40 5 15.5
v -40 12 15.5
v -40 13 15.5
v -38 5 15.5
v -38 12 15.5
v -38 13 15.5
v 37 5 15.5
v 37 12 15.5
v 37 13 15.5
v 39 5 15.5
v 39 12 15.5
v 39 13 15.5
v -38 5 14.5
v -38 12 14.5
v -38 13 14.5
v 37 5 14.5
v 37 12 14.5
v 37 13 14.5
v -48 3 7.5
v -48 4 7.5
v -35 3 7.5
v -35 4 7.5
v -26 3 7.5
v -26 4 7.5
v -13 3 7.5
v -13 4 7.5
v 12 3 7.5
v 12 4 7.5
v 25 3 7.5
v 25 4 7.5
v 34 3 7.5
v 34 4 7.5
v 47 3 7.5
v 47 4 7.5
v 60 5 3.5
v 60 6 3.5
v 61 5 3.5
v 61 6 3.5
v 60 5 -2.5
v 60 6 -2.5
v 61 5 -2.5
v 61 6 -2.5
v -40 5 -13.5
v -40 12 -13.5
v -40 13 -13.5
v -39 5 -13.5
v -39 12 -13.5
v -39 13 -13.5
v 38 5 -13.5
v 38 12 -13.5
v 38 13 -13.5
v 39 5 -13.5
v 39 12 -13.5
v 39 13 -13.5
v -48 3 -20.5
v -48 4 -20.5
v -35 3 -20.5
v -35 4 -20.5
v -26 3 -20.5
v -26 4 -20.5
v -13 3 -20.5
v -13 4 -20.5
v 12 3 -20.5
v 12 4 -20.5
v 25 3 -20.5
v 25 4 -20.5
v 34 3 -20.5
v 34 4 -20.5
v 47 3 -20.5
v 47 4 -20.5
v -61 5 -28.5
v -61 12 -28.5
v -61 13 -28.5
v -60 5 -28.5
v -60 12 -28.5
v -60 13 -28.5
v 60 5 -28.5
v 60 12 -28.5
v 60 13 -28.5
v 61 5 -28.5
v 61 12 -28.5
v 61 13 -28.5
v -60 5 -29.5
v -60 12 -29.5
v -60 13 -29.5
v 60 5 -29.5
v 60 12 -29.5
v 60 13 -29.5
v -60 5 29.5
v -60 12 29.5
v -60 13 29.5
v -4 5 29.5
v -4 6 29.5
v -3 5 29.5
v -3 6 29.5
v -3 10 29.5
v -2 5 29.5
v -2 10 29.5
v -2 11 29.5
v -1 5 29.5
v -1 10 29.5
v 0 5 29.5
v 0 7 29.5
v 0 8 29.5
v 0 10 29.5
v 1 5 29.5
v 1 7 29.5
v 1 8 29.5
v 1 10 29.5
v 1 11 29.5
v 2 5 29.5
v 2 6 29.5
v 2 10 29.5
v 3 5 29.5
v 3 6 29.5
v 60 5 29.5
v 60 12 29.5
v 60 13 29.5
v -61 5 28.5
v -61 12 28.5
v -61 13 28.5
v -60 5 28.5
v -60 12 28.5
v -60 13 28.5
v -4 5 28.5
v -4 6 28.5
v -3 5 28.5
v -3 6 28.5
v 2 5 28.5
v 2 6 28.5
v 3 5 28.5
v 3 6 28.5
v 60 5 28.5
v 60 12 28.5
v 60 13 28.5
v 61 5 28.5
v 61 12 28.5
v 61 13 28.5
v -48 3 20.5
v -48 4 20.5
v -35 3 20.5
v -35 4 20.5
v -26 3 20.5
v -26 4 20.5
v -13 3 20.5
v -13 4 20.5
v 12 3 20.5
v 12 4 20.5
v 25 3 20.5
v 25 4 20.5
v 34 3 20.5
v 34 4 20.5
v 47 3 20.5
v 47 4 20.5
v -40 5 13.5
v -40 12 13.5
v -40 13 13.5
v -39 5 13.5
v -39 12 13.5
v -39 13 13.5
v 38 5 13.5
v 38 12 13.5
v 38 13 13.5
v 39 5 13.5
v 39 12 13.5
v 39 13 13.5
v 60 5 2.5
v 60 6 2.5
v 61 5 2.5
v 61 6 2.5
v 60 5 -3.5
v 60 6 -3.5
v 61 5 -3.5
v 61 6 -3.5
v -48 3 -7.5
v -48 4 -7.5
v -35 3 -7.5
v -35 4 -7.5
v -26 3 -7.5
v -26 4 -7.5
v -13 3 -7.5
v -13 4 -7.5
v 12 3 -7.5
v 12 4 -7.5
v 25 3 -7.5
v 25 4 -7.5
v 34 3 -7.5
v 34 4 -7.5
v 47 3 -7.5
v 47 4 -7.5
v -38 5 -14.5
v -38 12 -14.5
v -38 13 -14.5
v 37 5 -14.5
v 37 12 -14.5
v 37 13 -14.5
v -40 5 -15.5
v -40 12 -15.5
v -40 13 -15.5
v -38 5 -15.5
v -38 12 -15.5
v -38 13 -15.5
v 37 5 -15.5
v 37 12 -15.5
v 37 13 -15.5
v 39 5 -15.5
v 39 12 -15.5
v 39 13 -15.5
v -63 0 -31.5
v -63 4 -31.5
v -63 12 -31.5
v -63 13 -31.5
v 63 0 -31.5
v 63 4 -31.5
v 63 12 -31.5
v 63 13 -31.5
v -63 0 31.5
v 63 0 31.5
v -63 0 -31.5
v 63 0 -31.5
v -48 4 20.5
v -35 4 20.5
v -26 4 20.5
v -13 4 20.5
v 12 4 20.5
v 25 4 20.5
v 34 4 20.5
v 47 4 20.5
v -48 4 7.5
v -35 4 7.5
v -26 4 7.5
v -13 4 7.5
v 12 4 7.5
v 25 4 7.5
v 34 4 7.5
v 47 4 7.5
v -48 4 -7.5
v -35 4 -7.5
v -26 4 -7.5
v -13 4 -7.5
v 12 4 -7.5
v 25 4 -7.5
v 34 4 -7.5
v 47 4 -7.5
v -48 4 -20.5
v -35 4 -20.5
v -26 4 -20.5
v -13 4 -20.5
v 12 4 -20.5
v 25 4 -20.5
v 34 4 -20.5
v 47 4 -20.5
v -48 3 20.5
v -35 3 20.5
v -26 3 20.5
v -13 3 20.5
v 12 3 20.5
v 25 3 20.5
v 34 3 20.5
v 47 3 20.5
v -48 3 7.5
v -35 3 7.5
v -26 3 7.5
v -13 3 7.5
v 12 3 7.5
v 25 3 7.5
v 34 3 7.5
v 47 3 7.5
v -48 3 -7.5
v -35 3 -7.5
v -26 3 -7.5
v -13 3 -7.5
v 12 3 -7.5
v 25 3 -7.5
v 34 3 -7.5
v 47 3 -7.5
v -48 3 -20.5
v -35 3 -20.5
v -26 3 -20.5
v -13 3 -20.5
v 12 3 -20.5
v 25 3 -20.5
v 34 3 -20.5
v 47 3 -20.5
v -60 5 29.5
v -4 5 29.5
v -3 5 29.5
v -2 5 29.5
v -1 5 29.5
v 0 5 29.5
v 1 5 29.5
v 2 5 29.5
v 3 5 29.5
v 60 5 29.5
v -61 5 28.5
v -60 5 28.5
v -4 5 28.5
v -3 5 28.5
v 2 5 28.5
v 3 5 28.5
v 60 5 28.5
v 61 5 28.5
v -40 5 15.5
v -38 5 15.5
v 37 5 15.5
v 39 5 15.5
v -38 5 14.5
v 37 5 14.5
v -40 5 13.5
v -39 5 13.5
v 38 5 13.5
v 39 5 13.5
v 60 5 3.5
v 61 5 3.5
v 60 5 2.5
v 61 5 2.5
v 61 5 1.5
v 61 5 0.5
v 61 5 -0.5
v 61 5 -1.5
v 60 5 -2.5
v 61 5 -2.5
v 60 5 -3.5
v 61 5 -3.5
v -40 5 -13.5
v -39 5 -13.5
v 38 5 -13.5
v 39 5 -13.5
v -38 5 -14.5
v 37 5 -14.5
v -40 5 -15.5
v -38 5 -15.5
v 37 5 -15.5
v 39 5 -15.5
v -61 5 -28.5
v -60 5 -28.5
v 60 5 -28.5
v 61 5 -28.5
v -60 5 -29.5
v 60 5 -29.5
v -4 6 29.5
v -3 6 29.5
v 2 6 29.5
v 3 6 29.5
v -4 6 28.5
v -3 6 28.5
v 2 6 28.5
v 3 6 28.5
v 60 6 3.5
v 61 6 3.5
v 60 6 2.5
v 61 6 2.5
v 60 6 -2.5
v 61 6 -2.5
v 60 6 -3.5
v 61 6 -3.5
v -63 13 31.5
v 63 13 31.5
v -60 13 29.5
v 60 13 29.5
v -61 13 28.5
v -60 13 28.5
v 60 13 28.5
v 61 13 28.5
v -40 13 15.5
v -38 13 15.5
v 37 13 15.5
v 39 13 15.5
v -38 13 14.5
v 37 13 14.5
v -40 13 13.5
v -39 13 13.5
v 38 13 13.5
v 39 13 13.5
v -40 13 -13.5
v -39 13 -13.5
v 38 13 -13.5
v 39 13 -13.5
v -38 13 -14.5
v 37 13 -14.5
v -40 13 -15.5
v -38 13 -15.5
v 37 13 -15.5
v 39 13 -15.5
v -61 13 -28.5
v -60 13 -28.5
v 60 13 -28.5
v 61 13 -28.5
v -60 13 -29.5
v 60 13 -29.5
v -63 13 -31.5
v 63 13 -31.5

# faces
f 3/7/1 2/7/1 1/7/1
f 4/7/1 2/7/1 3/7/1
f 5/3/1 4/3/1 3/3/1
f 6/3/1 4/3/1 5/3/1
f 7/4/1 6/4/1 5/4/1
f 8/4/1 6/4/1 7/4/1
f 13/3/1 10/3/1 9/3/1
f 14/3/1 10/3/1 13/3/1
f 15/3/1 12/3/1 11/3/1
f 16/3/1 12/3/1 15/3/1
f 17/4/1 14/4/1 13/4/1
f 18/4/1 14/4/1 17/4/1
f 19/4/1 16/4/1 15/4/1
f 20/4/1 16/4/1 19/4/1
f 23/3/1 22/3/1 21/3/1
f 24/3/1 22/3/1 23/3/1
f 25/4/1 24/4/1 23/4/1
f 26/4/1 24/4/1 25/4/1
f 31/7/1 28/7/1 27/7/1
f 32/7/1 28/7/1 31/7/1
f 33/7/1 30/7/1 29/7/1
f 34/7/1 30/7/1 33/7/1
f 39/7/1 36/7/1 35/7/1
f 40/7/1 36/7/1 39/7/1
f 41/7/1 38/7/1 37/7/1
f 42/7/1 38/7/1 41/7/1
f 45/3/1 44/3/1 43/3/1
f 46/3/1 44/3/1 45/3/1
f 49/3/1 48/3/1 47/3/1
f 50/3/1 48/3/1 49/3/1
f 55/7/1 52/7/1 51/7/1
f 56/7/1 52/7/1 55/7/1
f 57/7/1 54/7/1 53/7/1
f 58/7/1 54/7/1 57/7/1
f 63/3/1 60/3/1 59/3/1
f 64/3/1 60/3/1 63/3/1
f 65/3/1 62/3/1 61/3/1
f 66/3/1 62/3/1 65/3/1
f 67/4/1 64/4/1 63/4/1
f 68/4/1 64/4/1 67/4/1
f 69/4/1 66/4/1 65/4/1
f 70/4/1 66/4/1 69/4/1
f 75/7/1 72/7/1 71/7/1
f 76/7/1 72/7/1 75/7/1
f 77/7/1 74/7/1 73/7/1
f 78/7/1 74/7/1 77/7/1
f 87/3/1 82/3/1 81/3/1
f 88/3/1 82/3/1 87/3/1
f 89/3/1 84/3/1 83/3/1
f 90/3/1 84/3/1 89/3/1
f 91/3/1 80/3/1 79/3/1
f 92/3/1 80/3/1 91/3/1
f 93/3/1 86/3/1 85/3/1
f 94/3/1 86/3/1 93/3/1
f 95/4/1 92/4/1 91/4/1
f 96/4/1 92/4/1 95/4/1
f 97/4/1 94/4/1 93/4/1
f 98/4/1 94/4/1 97/4/1
f 109/3/1 100/3/1 99/3/1
f 110/2/1 102/2/1 101/2/1
f 111/2/1 106/2/1 105/2/1
f 112/3/1 108/3/1 107/3/1
f 113/2/1 104/2/1 103/2/1
f 113/1/1 105/1/1 104/1/1
f 114/2/1 111/2/1 105/2/1
f 114/1/1 105/1/1 113/1/1
f 115/2/1 113/2/1 103/2/1
f 115/6/1 114/6/1 113/6/1
f 116/2/1 111/2/1 114/2/1
f 116/6/1 114/6/1 115/6/1
f 117/3/1 110/3/1 109/3/1
f 117/2/1 102/2/1 110/2/1
f 118/1/1 103/1/1 102/1/1
f 118/2/1 102/2/1 117/2/1
f 119/2/1 115/2/1 103/2/1
f 119/1/1 103/1/1 118/1/1
f 120/1/1 116/1/1 115/1/1
f 120/2/1 115/2/1 119/2/1
f 121/2/1 111/2/1 116/2/1
f 121/1/1 116/1/1 120/1/1
f 122/3/1 112/3/1 111/3/1
f 122/2/1 111/2/1 121/2/1
f 123/3/1 118/3/1 117/3/1
f 123/2/1 121/2/1 120/2/1
f 123/2/1 120/2/1 119/2/1
f 123/2/1 119/2/1 118/2/1
f 124/3/1 122/3/1 121/3/1
f 124/2/1 121/2/1 123/2/1
f 125/3/1 109/3/1 99/3/1
f 125/3/1 117/3/1 109/3/1
f 125/3/1 124/3/1 123/3/1
f 125/3/1 123/3/1 117/3/1
f 126/3/1 112/3/1 122/3/1
f 126/3/1 124/3/1 125/3/1
f 126/3/1 122/3/1 124/3/1
f 126/3/1 108/3/1 112/3/1
f 127/4/1 126/4/1 125/4/1
f 128/4/1 126/4/1 127/4/1
f 129/3/2 130/3/2 131/3/2
f 131/3/2 130/3/2 132/3/2
f 131/4/2 132/4/2 133/4/2
f 133/4/2 132/4/2 134/4/2
f 135/3/2 136/3/2 139/3/2
f 139/3/2 136/3/2 140/3/2
f 137/3/2 138/3/2 141/3/2
f 141/3/2 138/3/2 142/3/2
f 139/4/2 140/4/2 143/4/2
f 143/4/2 140/4/2 144/4/2
f 141/4/2 142/4/2 145/4/2
f 145/4/2 142/4/2 146/4/2
f 147/7/2 148/7/2 151/7/2
f 151/7/2 148/7/2 152/7/2
f 149/7/2 150/7/2 153/7/2
f 153/7/2 150/7/2 154/7/2
f 155/3/2 156/3/2 159/3/2
f 159/3/2 156/3/2 160/3/2
f 157/3/2 158/3/2 161/3/2
f 161/3/2 158/3/2 162/3/2
f 159/4/2 160/4/2 163/4/2
f 163/4/2 160/4/2 164/4/2
f 161/4/2 162/4/2 165/4/2
f 165/4/2 162/4/2 166/4/2
f 167/7/2 168/7/2 171/7/2
f 171/7/2 168/7/2 172/7/2
f 169/7/2 170/7/2 173/7/2
f 173/7/2 170/7/2 174/7/2
f 175/3/2 176/3/2 177/3/2
f 177/3/2 176/3/2 178/3/2
f 179/3/2 180/3/2 181/3/2
f 181/3/2 180/3/2 182/3/2
f 183/7/2 184/7/2 187/7/2
f 187/7/2 184/7/2 188/7/2
f 185/7/2 186/7/2 189/7/2
f 189/7/2 186/7/2 190/7/2
f 191/7/2 192/7/2 195/7/2
f 195/7/2 192/7/2 196/7/2
f 193/7/2 194/7/2 197/7/2
f 197/7/2 194/7/2 198/7/2
f 199/3/2 200/3/2 201/3/2
f 201/3/2 200/3/2 202/3/2
f 201/4/2 202/4/2 203/4/2
f 203/4/2 202/4/2 204/4/2
f 205/3/2 206/3/2 209/3/2
f 209/3/2 206/3/2 210/3/2
f 207/3/2 208/3/2 211/3/2
f 211/3/2 208/3/2 212/3/2
f 209/4/2 210/4/2 213/4/2
f 213/4/2 210/4/2 214/4/2
f 211/4/2 212/4/2 215/4/2
f 215/4/2 212/4/2 216/4/2
f 217/7/2 218/7/2 219/7/2
f 219/7/2 218/7/2 220/7/2
f 219/3/2 220/3/2 221/3/2
f 221/3/2 220/3/2 222/3/2
f 221/4/2 222/4/2 223/4/2
f 223/4/2 222/4/2 224/4/2
f 229/7/3 226/7/3 225/7/3
f 230/3/3 227/3/3 226/3/3
f 230/7/3 226/7/3 229/7/3
f 231/4/3 228/4/3 227/4/3
f 231/3/3 227/3/3 230/3/3
f 232/4/3 228/4/3 231/4/3
f 236/3/3 234/3/3 233/3/3
f 237/4/3 235/4/3 234/4/3
f 237/3/3 234/3/3 236/3/3
f 238/4/3 235/4/3 237/4/3
f 242/3/3 240/3/3 239/3/3
f 243/4/3 241/4/3 240/4/3
f 243/3/3 240/3/3 242/3/3
f 244/4/3 241/4/3 243/4/3
f 248/3/3 246/3/3 245/3/3
f 249/4/3 247/4/3 246/4/3
f 249/3/3 246/3/3 248/3/3
f 250/4/3 247/4/3 249/4/3
f 253/7/3 252/7/3 251/7/3
f 254/7/3 252/7/3 253/7/3
f 257/7/3 256/7/3 255/7/3
f 258/7/3 256/7/3 257/7/3
f 261/7/3 260/7/3 259/7/3
f 262/7/3 260/7/3 261/7/3
f 265/7/3 264/7/3 263/7/3
f 266/7/3 264/7/3 265/7/3
f 269/3/3 268/3/3 267/3/3
f 270/3/3 268/3/3 269/3/3
f 273/3/3 272/3/3 271/3/3
f 274/3/3 272/3/3 273/3/3
f 278/3/3 276/3/3 275/3/3
f 279/4/3 277/4/3 276/4/3
f 279/3/3 276/3/3 278/3/3
f 280/4/3 277/4/3 279/4/3
f 284/3/3 282/3/3 281/3/3
f 285/4/3 283/4/3 282/4/3
f 285/3/3 282/3/3 284/3/3
f 286/4/3 283/4/3 285/4/3
f 289/7/3 288/7/3 287/7/3
f 290/7/3 288/7/3 289/7/3
f 293/7/3 292/7/3 291/7/3
f 294/7/3 292/7/3 293/7/3
f 297/7/3 296/7/3 295/7/3
f 298/7/3 296/7/3 297/7/3
f 301/7/3 300/7/3 299/7/3
f 302/7/3 300/7/3 301/7/3
f 306/3/3 304/3/3 303/3/3
f 307/4/3 305/4/3 304/4/3
f 307/3/3 304/3/3 306/3/3
f 308/4/3 305/4/3 307/4/3
f 312/3/3 310/3/3 309/3/3
f 313/4/3 311/4/3 310/4/3
f 313/3/3 310/3/3 312/3/3
f 314/4/3 311/4/3 313/4/3
f 318/3/3 316/3/3 315/3/3
f 319/4/3 317/4/3 316/4/3
f 319/3/3 316/3/3 318/3/3
f 320/4/3 317/4/3 319/4/3
f 321/3/4 322/3/4 324/3/4
f 324/3/4 322/3/4 325/3/4
f 325/3/4 322/3/4 327/3/4
f 327/3/4 322/3/4 328/3/4
f 326/2/4 327/2/4 329/2/4
f 327/2/4 328/2/4 329/2/4
f 328/3/4 322/3/4 330/3/4
f 329/2/4 328/2/4 330/2/4
f 330/3/4 322/3/4 331/3/4
f 329/1/4 330/1/4 332/1/4
f 330/2/4 331/2/4 333/2/4
f 332/1/4 330/1/4 333/1/4
f 332/2/4 333/2/4 334/2/4
f 334/2/4 333/2/4 335/2/4
f 335/2/4 333/2/4 336/2/4
f 333/2/4 331/2/4 337/2/4
f 336/2/4 333/2/4 337/2/4
f 334/1/4 335/1/4 338/1/4
f 335/6/4 336/6/4 339/6/4
f 338/1/4 335/1/4 339/1/4
f 336/1/4 337/1/4 340/1/4
f 339/6/4 336/6/4 340/6/4
f 337/2/4 331/2/4 341/2/4
f 340/1/4 337/1/4 341/1/4
f 331/3/4 322/3/4 342/3/4
f 341/2/4 331/2/4 342/2/4
f 340/2/4 341/2/4 343/2/4
f 339/2/4 340/2/4 343/2/4
f 338/2/4 339/2/4 343/2/4
f 343/2/4 341/2/4 344/2/4
f 341/3/4 342/3/4 345/3/4
f 344/2/4 341/2/4 345/2/4
f 344/3/4 345/3/4 347/3/4
f 346/3/4 347/3/4 348/3/4
f 322/4/4 323/4/4 349/4/4
f 348/3/4 347/3/4 349/3/4
f 342/3/4 322/3/4 349/3/4
f 347/3/4 345/3/4 349/3/4
f 345/3/4 342/3/4 349/3/4
f 349/4/4 323/4/4 350/4/4
f 351/3/4 352/3/4 354/3/4
f 352/4/4 353/4/4 355/4/4
f 354/3/4 352/3/4 355/3/4
f 355/4/4 353/4/4 356/4/4
f 357/3/4 358/3/4 359/3/4
f 359/3/4 358/3/4 360/3/4
f 361/3/4 362/3/4 363/3/4
f 363/3/4 362/3/4 364/3/4
f 365/3/4 366/3/4 368/3/4
f 366/4/4 367/4/4 369/4/4
f 368/3/4 366/3/4 369/3/4
f 369/4/4 367/4/4 370/4/4
f 371/7/4 372/7/4 373/7/4
f 373/7/4 372/7/4 374/7/4
f 375/7/4 376/7/4 377/7/4
f 377/7/4 376/7/4 378/7/4
f 379/7/4 380/7/4 381/7/4
f 381/7/4 380/7/4 382/7/4
f 383/7/4 384/7/4 385/7/4
f 385/7/4 384/7/4 386/7/4
f 387/3/4 388/3/4 390/3/4
f 388/4/4 389/4/4 391/4/4
f 390/3/4 388/3/4 391/3/4
f 391/4/4 389/4/4 392/4/4
f 393/3/4 394/3/4 396/3/4
f 394/4/4 395/4/4 397/4/4
f 396/3/4 394/3/4 397/3/4
f 397/4/4 395/4/4 398/4/4
f 399/3/4 400/3/4 401/3/4
f 401/3/4 400/3/4 402/3/4
f 403/3/4 404/3/4 405/3/4
f 405/3/4 404/3/4 406/3/4
f 407/7/4 408/7/4 409/7/4
f 409/7/4 408/7/4 410/7/4
f 411/7/4 412/7/4 413/7/4
f 413/7/4 412/7/4 414/7/4
f 415/7/4 416/7/4 417/7/4
f 417/7/4 416/7/4 418/7/4
f 419/7/4 420/7/4 421/7/4
f 421/7/4 420/7/4 422/7/4
f 423/3/4 424/3/4 426/3/4
f 424/4/4 425/4/4 427/4/4
f 426/3/4 424/3/4 427/3/4
f 427/4/4 425/4/4 428/4/4
f 429/3/4 430/3/4 432/3/4
f 430/4/4 431/4/4 433/4/4
f 432/3/4 430/3/4 433/3/4
f 433/4/4 431/4/4 434/4/4
f 435/3/4 436/3/4 438/3/4
f 436/4/4 437/4/4 439/4/4
f 438/3/4 436/3/4 439/3/4
f 439/4/4 437/4/4 440/4/4
f 441/7/4 442/7/4 445/7/4
f 442/3/4 443/3/4 446/3/4
f 445/7/4 442/7/4 446/7/4
f 443/4/4 444/4/4 447/4/4
f 446/3/4 443/3/4 447/3/4
f 447/4/4 444/4/4 448/4/4
f 451/7/5 450/7/5 449/7/5
f 452/7/5 450/7/5 451/7/5
f 461/5/5 454/5/5 453/5/5
f 462/5/5 454/5/5 461/5/5
f 463/5/5 456/5/5 455/5/5
f 464/5/5 456/5/5 463/5/5
f 465/5/5 458/5/5 457/5/5
f 466/5/5 458/5/5 465/5/5
f 467/5/5 460/5/5 459/5/5
f 468/5/5 460/5/5 467/5/5
f 477/5/5 470/5/5 469/5/5
f 478/5/5 470/5/5 477/5/5
f 479/5/5 472/5/5 471/5/5
f 480/5/5 472/5/5 479/5/5
f 481/5/5 474/5/5 473/5/5
f 482/5/5 474/5/5 481/5/5
f 483/5/5 476/5/5 475/5/5
f 484/5/5 476/5/5 483/5/5
f 485/7/6 486/7/6 493/7/6
f 493/7/6 486/7/6 494/7/6
f 487/7/6 488/7/6 495/7/6
f 495/7/6 488/7/6 496/7/6
f 489/7/6 490/7/6 497/7/6
f 497/7/6 490/7/6 498/7/6
f 491/7/6 492/7/6 499/7/6
f 499/7/6 492/7/6 500/7/6
f 501/7/6 502/7/6 509/7/6
f 509/7/6 502/7/6 510/7/6
f 503/7/6 504/7/6 511/7/6
f 511/7/6 504/7/6 512/7/6
f 505/7/6 506/7/6 513/7/6
f 513/7/6 506/7/6 514/7/6
f 507/7/6 508/7/6 515/7/6
f 515/7/6 508/7/6 516/7/6
f 517/5/6 518/5/6 528/5/6
f 528/5/6 518/5/6 529/5/6
f 519/5/6 520/5/6 530/5/6
f 520/5/6 521/5/6 530/5/6
f 521/5/6 522/5/6 530/5/6
f 522/5/6 523/5/6 530/5/6
f 523/5/6 524/5/6 530/5/6
f 530/5/6 524/5/6 531/5/6
f 525/5/6 526/5/6 532/5/6
f 532/5/6 526/5/6 533/5/6
f 530/5/6 531/5/6 535/5/6
f 533/5/6 534/5/6 535/5/6
f 532/5/6 533/5/6 535/5/6
f 531/5/6 532/5/6 535/5/6
f 528/5/6 529/5/6 535/5/6
f 529/5/6 530/5/6 535/5/6
f 527/5/6 528/5/6 535/5/6
f 535/5/6 534/5/6 536/5/6
f 536/5/6 534/5/6 537/5/6
f 537/5/6 534/5/6 538/5/6
f 536/5/6 537/5/6 539/5/6
f 539/5/6 537/5/6 540/5/6
f 527/5/6 535/5/6 541/5/6
f 538/5/6 534/5/6 544/5/6
f 544/5/6 534/5/6 545/5/6
f 543/5/6 544/5/6 545/5/6
f 545/5/6 534/5/6 546/5/6
f 543/5/6 545/5/6 547/5/6
f 547/5/6 548/5/6 549/5/6
f 547/5/6 549/5/6 550/5/6
f 547/5/6 550/5/6 551/5/6
f 547/5/6 551/5/6 552/5/6
f 543/5/6 547/5/6 553/5/6
f 547/5/6 552/5/6 553/5/6
f 553/5/6 552/5/6 554/5/6
f 543/5/6 553/5/6 555/5/6
f 541/5/6 542/5/6 557/5/6
f 527/5/6 541/5/6 557/5/6
f 557/5/6 542/5/6 558/5/6
f 555/5/6 556/5/6 559/5/6
f 543/5/6 555/5/6 559/5/6
f 559/5/6 556/5/6 560/5/6
f 527/5/6 557/5/6 563/5/6
f 561/5/6 562/5/6 564/5/6
f 564/5/6 562/5/6 565/5/6
f 560/5/6 556/5/6 566/5/6
f 564/5/6 565/5/6 567/5/6
f 565/5/6 566/5/6 567/5/6
f 527/5/6 563/5/6 567/5/6
f 563/5/6 564/5/6 567/5/6
f 567/5/6 566/5/6 568/5/6
f 566/5/6 556/5/6 569/5/6
f 568/5/6 566/5/6 569/5/6
f 569/5/6 556/5/6 570/5/6
f 568/5/6 569/5/6 571/5/6
f 571/5/6 569/5/6 572/5/6
f 573/3/6 574/3/6 577/3/6
f 577/3/6 574/3/6 578/3/6
f 575/3/6 576/3/6 579/3/6
f 579/3/6 576/3/6 580/3/6
f 581/3/6 582/3/6 583/3/6
f 583/3/6 582/3/6 584/3/6
f 585/3/6 586/3/6 587/3/6
f 587/3/6 586/3/6 588/3/6
f 589/4/6 590/4/6 591/4/6
f 591/4/6 590/4/6 592/4/6
f 589/4/6 591/4/6 593/4/6
f 593/4/6 591/4/6 594/4/6
f 592/4/6 590/4/6 595/4/6
f 595/4/6 590/4/6 596/4/6
f 597/4/6 598/4/6 601/4/6
f 599/4/6 600/4/6 602/4/6
f 597/4/6 601/4/6 603/4/6
f 601/4/6 602/4/6 603/4/6
f 603/4/6 602/4/6 604/4/6
f 602/4/6 600/4/6 605/4/6
f 604/4/6 602/4/6 605/4/6
f 605/4/6 600/4/6 606/4/6
f 604/4/6 605/4/6 608/4/6
f 608/4/6 605/4/6 609/4/6
f 607/4/6 608/4/6 611/4/6
f 609/4/6 610/4/6 611/4/6
f 608/4/6 609/4/6 611/4/6
f 611/4/6 610/4/6 612/4/6
f 607/4/6 611/4/6 613/4/6
f 613/4/6 611/4/6 614/4/6
f 612/4/6 610/4/6 615/4/6
f 615/4/6 610/4/6 616/4/6
f 589/4/6 593/4/6 617/4/6
f 596/4/6 590/4/6 620/4/6
f 617/4/6 618/4/6 621/4/6
f 619/4/6 620/4/6 622/4/6
f 617/4/6 621/4/6 623/4/6
f 621/4/6 622/4/6 623/4/6
f 589/4/6 617/4/6 623/4/6
f 622/4/6 620/4/6 624/4/6
f 623/4/6 622/4/6 624/4/6
f 620/4/6 590/4/6 624/4/6
