# MagicaVoxel @ Ephtracy

# material
mtllib torreta.mtl
usemtl palette

# normals
vn -1 0 0
vn 1 0 0
vn 0 0 1
vn 0 0 -1
vn 0 -1 0
vn 0 1 0

# texcoords
vt 0.00195313 0.5
vt 0.0175781 0.5
vt 0.0214844 0.5
vt 0.0449219 0.5
vt 0.0488281 0.5

# verts
v -3 4 -6
v -3 4 -7
v -3 6 -5
v -3 6 -6
v -3 7 -3
v -3 7 -4
v -3 7 -5
v -3 7 -6
v -3 7 -7
v -3 8 -1
v -3 8 -3
v -3 8 -4
v -3 8 -6
v -3 9 -2
v -3 9 -3
v -3 9 -4
v -3 10 -1
v -3 10 -2
v -3 10 -3
v -3 11 2
v -3 11 -4
v -3 12 3
v -3 12 2
v -3 12 -4
v -3 12 -5
v -3 13 1
v -3 13 -3
v -3 14 -0
v -3 14 -2
v -3 16 -0
v -3 16 -2
v -3 17 1
v -3 17 -3
v -3 18 3
v -3 18 2
v -3 18 -4
v -3 18 -5
v -3 19 2
v -3 19 -4
v -2 11 3
v -2 11 2
v -2 11 -4
v -2 11 -5
v -2 12 3
v -2 12 2
v -2 12 -4
v -2 12 -5
v -2 18 3
v -2 18 2
v -2 18 -4
v -2 18 -5
v -2 19 3
v -2 19 2
v -2 19 -4
v -2 19 -5
v -1 9 1
v -1 9 -1
v -1 10 -1
v -1 10 -2
v -1 10 -3
v -1 11 1
v -1 11 -3
v 0 4 7
v 0 4 6
v 0 6 6
v 0 6 5
v 0 7 7
v 0 7 6
v 0 7 5
v 0 7 3
v 0 8 6
v 0 8 5
v 0 8 4
v 0 8 3
v 0 8 1
v 0 9 4
v 0 9 3
v 0 9 2
v 0 9 1
v 0 10 3
v 0 10 2
v 0 10 1
v 3 4 -6
v 3 4 -7
v 3 6 -5
v 3 6 -6
v 3 7 -3
v 3 7 -4
v 3 7 -5
v 3 7 -6
v 3 7 -7
v 3 8 -1
v 3 8 -3
v 3 8 -4
v 3 8 -6
v 3 9 -1
v 3 9 -2
v 3 9 -3
v 3 9 -4
v -1 4 -6
v -1 4 -7
v -1 6 -5
v -1 6 -6
v -1 7 -3
v -1 7 -4
v -1 7 -5
v -1 7 -6
v -1 7 -7
v -1 8 -1
v -1 8 -3
v -1 8 -4
v -1 8 -6
v -1 9 -1
v -1 9 -2
v -1 9 -3
v -1 9 -4
v 2 4 7
v 2 4 6
v 2 6 6
v 2 6 5
v 2 7 7
v 2 7 6
v 2 7 5
v 2 7 3
v 2 8 6
v 2 8 5
v 2 8 4
v 2 8 3
v 2 8 1
v 2 9 4
v 2 9 3
v 2 9 2
v 2 9 1
v 2 10 3
v 2 10 2
v 2 10 1
v 3 9 1
v 3 9 -1
v 3 10 -1
v 3 10 -2
v 3 10 -3
v 3 11 1
v 3 11 -3
v 4 11 3
v 4 11 2
v 4 11 -4
v 4 11 -5
v 4 12 3
v 4 12 2
v 4 12 -4
v 4 12 -5
v 4 18 3
v 4 18 2
v 4 18 -4
v 4 18 -5
v 4 19 3
v 4 19 2
v 4 19 -4
v 4 19 -5
v 5 4 -6
v 5 4 -7
v 5 6 -5
v 5 6 -6
v 5 7 -3
v 5 7 -4
v 5 7 -5
v 5 7 -6
v 5 7 -7
v 5 8 -1
v 5 8 -3
v 5 8 -4
v 5 8 -6
v 5 9 -2
v 5 9 -3
v 5 9 -4
v 5 10 -1
v 5 10 -2
v 5 10 -3
v 5 11 2
v 5 11 -4
v 5 12 3
v 5 12 2
v 5 12 -4
v 5 12 -5
v 5 13 1
v 5 13 -3
v 5 14 -0
v 5 14 -2
v 5 16 -0
v 5 16 -2
v 5 17 1
v 5 17 -3
v 5 18 3
v 5 18 2
v 5 18 -4
v 5 18 -5
v 5 19 2
v 5 19 -4
v 0 4 7
v 0 7 7
v 2 4 7
v 2 7 7
v 0 7 6
v 0 8 6
v 2 7 6
v 2 8 6
v 0 8 4
v 0 9 4
v 2 8 4
v 2 9 4
v -3 12 3
v -3 18 3
v -2 11 3
v -2 12 3
v -2 18 3
v -2 19 3
v -1 13 3
v -1 17 3
v 0 9 3
v 0 10 3
v 0 14 3
v 0 16 3
v 2 9 3
v 2 10 3
v 2 14 3
v 2 16 3
v 3 13 3
v 3 17 3
v 4 11 3
v 4 12 3
v 4 18 3
v 4 19 3
v 5 12 3
v 5 18 3
v -3 11 2
v -3 12 2
v -3 18 2
v -3 19 2
v -2 11 2
v -2 12 2
v -2 18 2
v -2 19 2
v 4 11 2
v 4 12 2
v 4 18 2
v 4 19 2
v 5 11 2
v 5 12 2
v 5 18 2
v 5 19 2
v -1 9 1
v -1 11 1
v 0 9 1
v 0 10 1
v 2 9 1
v 2 10 1
v 3 9 1
v 3 11 1
v -3 8 -1
v -3 10 -1
v -1 8 -1
v -1 9 -1
v -1 10 -1
v 3 8 -1
v 3 9 -1
v 3 10 -1
v 5 8 -1
v 5 10 -1
v -3 7 -3
v -3 8 -3
v -1 7 -3
v -1 8 -3
v 3 7 -3
v 3 8 -3
v 5 7 -3
v 5 8 -3
v -3 6 -5
v -3 7 -5
v -1 6 -5
v -1 7 -5
v 3 6 -5
v 3 7 -5
v 5 6 -5
v 5 7 -5
v -3 4 -6
v -3 6 -6
v -1 4 -6
v -1 6 -6
v 3 4 -6
v 3 6 -6
v 5 4 -6
v 5 6 -6
v 0 4 6
v 0 6 6
v 2 4 6
v 2 6 6
v 0 6 5
v 0 7 5
v 2 6 5
v 2 7 5
v 0 7 3
v 0 8 3
v 2 7 3
v 2 8 3
v 0 8 1
v 0 9 1
v 2 8 1
v 2 9 1
v -3 9 -3
v -3 10 -3
v -1 9 -3
v -1 10 -3
v -1 11 -3
v 3 9 -3
v 3 10 -3
v 3 11 -3
v 5 9 -3
v 5 10 -3
v -3 8 -4
v -3 9 -4
v -3 11 -4
v -3 12 -4
v -3 18 -4
v -3 19 -4
v -2 11 -4
v -2 12 -4
v -2 18 -4
v -2 19 -4
v -1 8 -4
v -1 9 -4
v 3 8 -4
v 3 9 -4
v 4 11 -4
v 4 12 -4
v 4 18 -4
v 4 19 -4
v 5 8 -4
v 5 9 -4
v 5 11 -4
v 5 12 -4
v 5 18 -4
v 5 19 -4
v -3 12 -5
v -3 18 -5
v -2 11 -5
v -2 12 -5
v -2 18 -5
v -2 19 -5
v -1 13 -5
v -1 17 -5
v 0 14 -5
v 0 16 -5
v 2 14 -5
v 2 16 -5
v 3 13 -5
v 3 17 -5
v 4 11 -5
v 4 12 -5
v 4 18 -5
v 4 19 -5
v 5 12 -5
v 5 18 -5
v -3 7 -6
v -3 8 -6
v -1 7 -6
v -1 8 -6
v 3 7 -6
v 3 8 -6
v 5 7 -6
v 5 8 -6
v -3 4 -7
v -3 7 -7
v -1 4 -7
v -1 7 -7
v 3 4 -7
v 3 7 -7
v 5 4 -7
v 5 7 -7
v 0 4 7
v 2 4 7
v 0 4 6
v 2 4 6
v -3 4 -6
v -1 4 -6
v 3 4 -6
v 5 4 -6
v -3 4 -7
v -1 4 -7
v 3 4 -7
v 5 4 -7
v 0 6 6
v 2 6 6
v 0 6 5
v 2 6 5
v -3 6 -5
v -1 6 -5
v 3 6 -5
v 5 6 -5
v -3 6 -6
v -1 6 -6
v 3 6 -6
v 5 6 -6
v 0 7 5
v 2 7 5
v 0 7 3
v 2 7 3
v -3 7 -3
v -1 7 -3
v 3 7 -3
v 5 7 -3
v -3 7 -4
v -1 7 -4
v 3 7 -4
v 5 7 -4
v -3 7 -5
v -1 7 -5
v 3 7 -5
v 5 7 -5
v 0 8 3
v 2 8 3
v 0 8 1
v 2 8 1
v -3 8 -1
v -1 8 -1
v 3 8 -1
v 5 8 -1
v -3 8 -3
v -1 8 -3
v 3 8 -3
v 5 8 -3
v -1 9 1
v 0 9 1
v 2 9 1
v 3 9 1
v -1 9 -1
v 0 9 -1
v 2 9 -1
v 3 9 -1
v -1 9 -2
v 3 9 -2
v -1 9 -3
v 3 9 -3
v -2 11 3
v 4 11 3
v -3 11 2
v -2 11 2
v 4 11 2
v 5 11 2
v -1 11 1
v 3 11 1
v -1 11 -3
v 3 11 -3
v -3 11 -4
v -2 11 -4
v 4 11 -4
v 5 11 -4
v -2 11 -5
v 4 11 -5
v -3 12 3
v -2 12 3
v 4 12 3
v 5 12 3
v -3 12 2
v -2 12 2
v 4 12 2
v 5 12 2
v -3 12 -4
v -2 12 -4
v 4 12 -4
v 5 12 -4
v -3 12 -5
v -2 12 -5
v 4 12 -5
v 5 12 -5
v 0 7 7
v 2 7 7
v 0 7 6
v 2 7 6
v -3 7 -6
v -1 7 -6
v 3 7 -6
v 5 7 -6
v -3 7 -7
v -1 7 -7
v 3 7 -7
v 5 7 -7
v 0 8 6
v 2 8 6
v 0 8 5
v 2 8 5
v 0 8 4
v 2 8 4
v -3 8 -4
v -1 8 -4
v 3 8 -4
v 5 8 -4
v -3 8 -6
v -1 8 -6
v 3 8 -6
v 5 8 -6
v 0 9 4
v 2 9 4
v 0 9 3
v 2 9 3
v -3 9 -3
v -1 9 -3
v 3 9 -3
v 5 9 -3
v -3 9 -4
v -1 9 -4
v 3 9 -4
v 5 9 -4
v 0 10 3
v 2 10 3
v 0 10 2
v 2 10 2
v 0 10 1
v 2 10 1
v -3 10 -1
v -1 10 -1
v 3 10 -1
v 5 10 -1
v -3 10 -2
v -1 10 -2
v 3 10 -2
v 5 10 -2
v -3 10 -3
v -1 10 -3
v 3 10 -3
v 5 10 -3
v -3 18 3
v -2 18 3
v 4 18 3
v 5 18 3
v -3 18 2
v -2 18 2
v 4 18 2
v 5 18 2
v -3 18 -4
v -2 18 -4
v 4 18 -4
v 5 18 -4
v -3 18 -5
v -2 18 -5
v 4 18 -5
v 5 18 -5
v -2 19 3
v 4 19 3
v -3 19 2
v -2 19 2
v 4 19 2
v 5 19 2
v -1 19 1
v 3 19 1
v 0 19 -0
v 2 19 -0
v 0 19 -2
v 2 19 -2
v -1 19 -3
v 3 19 -3
v -3 19 -4
v -2 19 -4
v 4 19 -4
v 5 19 -4
v -2 19 -5
v 4 19 -5

# faces
f 4/5/1 2/5/1 1/5/1
f 7/4/1 4/4/1 3/4/1
f 8/5/1 2/5/1 4/5/1
f 8/4/1 4/4/1 7/4/1
f 9/5/1 2/5/1 8/5/1
f 11/4/1 6/4/1 5/4/1
f 12/5/1 7/5/1 6/5/1
f 12/5/1 8/5/1 7/5/1
f 12/4/1 6/4/1 11/4/1
f 13/5/1 8/5/1 12/5/1
f 14/4/1 11/4/1 10/4/1
f 15/5/1 12/5/1 11/5/1
f 15/4/1 11/4/1 14/4/1
f 16/5/1 12/5/1 15/5/1
f 17/4/1 14/4/1 10/4/1
f 18/5/1 15/5/1 14/5/1
f 18/4/1 14/4/1 17/4/1
f 19/5/1 15/5/1 18/5/1
f 23/5/1 21/5/1 20/5/1
f 24/5/1 21/5/1 23/5/1
f 26/5/1 24/5/1 23/5/1
f 26/5/1 25/5/1 24/5/1
f 26/5/1 23/5/1 22/5/1
f 27/5/1 25/5/1 26/5/1
f 28/2/1 27/2/1 26/2/1
f 29/2/1 27/2/1 28/2/1
f 30/2/1 28/2/1 26/2/1
f 30/3/1 29/3/1 28/3/1
f 31/2/1 27/2/1 29/2/1
f 31/3/1 29/3/1 30/3/1
f 32/5/1 26/5/1 22/5/1
f 32/2/1 30/2/1 26/2/1
f 32/2/1 31/2/1 30/2/1
f 33/2/1 27/2/1 31/2/1
f 33/2/1 31/2/1 32/2/1
f 33/5/1 25/5/1 27/5/1
f 34/5/1 32/5/1 22/5/1
f 34/5/1 33/5/1 32/5/1
f 35/5/1 33/5/1 34/5/1
f 36/5/1 25/5/1 33/5/1
f 36/5/1 33/5/1 35/5/1
f 37/5/1 25/5/1 36/5/1
f 38/5/1 36/5/1 35/5/1
f 39/5/1 36/5/1 38/5/1
f 44/5/1 41/5/1 40/5/1
f 45/5/1 41/5/1 44/5/1
f 46/5/1 43/5/1 42/5/1
f 47/5/1 43/5/1 46/5/1
f 52/5/1 49/5/1 48/5/1
f 53/5/1 49/5/1 52/5/1
f 54/5/1 51/5/1 50/5/1
f 55/5/1 51/5/1 54/5/1
f 58/4/1 57/4/1 56/4/1
f 61/4/1 58/4/1 56/4/1
f 61/4/1 60/4/1 59/4/1
f 61/4/1 59/4/1 58/4/1
f 62/4/1 60/4/1 61/4/1
f 65/5/1 64/5/1 63/5/1
f 67/5/1 65/5/1 63/5/1
f 68/4/1 66/4/1 65/4/1
f 68/5/1 65/5/1 67/5/1
f 69/4/1 66/4/1 68/4/1
f 71/5/1 69/5/1 68/5/1
f 72/4/1 70/4/1 69/4/1
f 72/5/1 69/5/1 71/5/1
f 73/4/1 70/4/1 72/4/1
f 74/4/1 70/4/1 73/4/1
f 76/5/1 74/5/1 73/5/1
f 77/4/1 75/4/1 74/4/1
f 77/5/1 74/5/1 76/5/1
f 78/4/1 75/4/1 77/4/1
f 79/4/1 75/4/1 78/4/1
f 80/5/1 78/5/1 77/5/1
f 81/4/1 79/4/1 78/4/1
f 81/5/1 78/5/1 80/5/1
f 82/4/1 79/4/1 81/4/1
f 86/5/1 84/5/1 83/5/1
f 89/4/1 86/4/1 85/4/1
f 90/5/1 84/5/1 86/5/1
f 90/4/1 86/4/1 89/4/1
f 91/5/1 84/5/1 90/5/1
f 93/4/1 88/4/1 87/4/1
f 94/5/1 89/5/1 88/5/1
f 94/5/1 90/5/1 89/5/1
f 94/4/1 88/4/1 93/4/1
f 95/5/1 90/5/1 94/5/1
f 96/4/1 93/4/1 92/4/1
f 97/4/1 93/4/1 96/4/1
f 98/5/1 94/5/1 93/5/1
f 98/4/1 93/4/1 97/4/1
f 99/5/1 94/5/1 98/5/1
f 100/5/2 101/5/2 103/5/2
f 102/4/2 103/4/2 106/4/2
f 103/5/2 101/5/2 107/5/2
f 106/4/2 103/4/2 107/4/2
f 107/5/2 101/5/2 108/5/2
f 104/4/2 105/4/2 110/4/2
f 105/5/2 106/5/2 111/5/2
f 106/5/2 107/5/2 111/5/2
f 110/4/2 105/4/2 111/4/2
f 111/5/2 107/5/2 112/5/2
f 109/4/2 110/4/2 113/4/2
f 113/4/2 110/4/2 114/4/2
f 110/5/2 111/5/2 115/5/2
f 114/4/2 110/4/2 115/4/2
f 115/5/2 111/5/2 116/5/2
f 117/5/2 118/5/2 119/5/2
f 117/5/2 119/5/2 121/5/2
f 119/4/2 120/4/2 122/4/2
f 121/5/2 119/5/2 122/5/2
f 122/4/2 120/4/2 123/4/2
f 122/5/2 123/5/2 125/5/2
f 123/4/2 124/4/2 126/4/2
f 125/5/2 123/5/2 126/5/2
f 126/4/2 124/4/2 127/4/2
f 127/4/2 124/4/2 128/4/2
f 127/5/2 128/5/2 130/5/2
f 128/4/2 129/4/2 131/4/2
f 130/5/2 128/5/2 131/5/2
f 131/4/2 129/4/2 132/4/2
f 132/4/2 129/4/2 133/4/2
f 131/5/2 132/5/2 134/5/2
f 132/4/2 133/4/2 135/4/2
f 134/5/2 132/5/2 135/5/2
f 135/4/2 133/4/2 136/4/2
f 137/4/2 138/4/2 139/4/2
f 137/4/2 139/4/2 142/4/2
f 140/4/2 141/4/2 142/4/2
f 139/4/2 140/4/2 142/4/2
f 142/4/2 141/4/2 143/4/2
f 144/5/2 145/5/2 148/5/2
f 148/5/2 145/5/2 149/5/2
f 146/5/2 147/5/2 150/5/2
f 150/5/2 147/5/2 151/5/2
f 152/5/2 153/5/2 156/5/2
f 156/5/2 153/5/2 157/5/2
f 154/5/2 155/5/2 158/5/2
f 158/5/2 155/5/2 159/5/2
f 160/5/2 161/5/2 163/5/2
f 162/4/2 163/4/2 166/4/2
f 163/5/2 161/5/2 167/5/2
f 166/4/2 163/4/2 167/4/2
f 167/5/2 161/5/2 168/5/2
f 164/4/2 165/4/2 170/4/2
f 165/5/2 166/5/2 171/5/2
f 166/5/2 167/5/2 171/5/2
f 170/4/2 165/4/2 171/4/2
f 171/5/2 167/5/2 172/5/2
f 169/4/2 170/4/2 173/4/2
f 170/5/2 171/5/2 174/5/2
f 173/4/2 170/4/2 174/4/2
f 174/5/2 171/5/2 175/5/2
f 169/4/2 173/4/2 176/4/2
f 173/5/2 174/5/2 177/5/2
f 176/4/2 173/4/2 177/4/2
f 177/5/2 174/5/2 178/5/2
f 179/5/2 180/5/2 182/5/2
f 182/5/2 180/5/2 183/5/2
f 182/5/2 183/5/2 185/5/2
f 183/5/2 184/5/2 185/5/2
f 181/5/2 182/5/2 185/5/2
f 185/5/2 184/5/2 186/5/2
f 185/2/2 186/2/2 187/2/2
f 187/2/2 186/2/2 188/2/2
f 185/2/2 187/2/2 189/2/2
f 187/3/2 188/3/2 189/3/2
f 188/2/2 186/2/2 190/2/2
f 189/3/2 188/3/2 190/3/2
f 181/5/2 185/5/2 191/5/2
f 185/2/2 189/2/2 191/2/2
f 189/2/2 190/2/2 191/2/2
f 190/2/2 186/2/2 192/2/2
f 191/2/2 190/2/2 192/2/2
f 186/5/2 184/5/2 192/5/2
f 181/5/2 191/5/2 193/5/2
f 191/5/2 192/5/2 193/5/2
f 193/5/2 192/5/2 194/5/2
f 192/5/2 184/5/2 195/5/2
f 194/5/2 192/5/2 195/5/2
f 195/5/2 184/5/2 196/5/2
f 194/5/2 195/5/2 197/5/2
f 197/5/2 195/5/2 198/5/2
f 201/5/3 200/5/3 199/5/3
f 202/5/3 200/5/3 201/5/3
f 205/5/3 204/5/3 203/5/3
f 206/5/3 204/5/3 205/5/3
f 209/5/3 208/5/3 207/5/3
f 210/5/3 208/5/3 209/5/3
f 214/5/3 212/5/3 211/5/3
f 215/5/3 212/5/3 214/5/3
f 217/5/3 214/5/3 213/5/3
f 217/5/3 216/5/3 215/5/3
f 217/5/3 215/5/3 214/5/3
f 218/5/3 216/5/3 217/5/3
f 221/2/3 218/2/3 217/2/3
f 222/2/3 218/2/3 221/2/3
f 223/5/3 220/5/3 219/5/3
f 224/5/3 220/5/3 223/5/3
f 225/2/3 221/2/3 217/2/3
f 225/3/3 222/3/3 221/3/3
f 226/2/3 218/2/3 222/2/3
f 226/3/3 222/3/3 225/3/3
f 227/5/3 217/5/3 213/5/3
f 227/2/3 225/2/3 217/2/3
f 227/2/3 226/2/3 225/2/3
f 228/2/3 218/2/3 226/2/3
f 228/2/3 226/2/3 227/2/3
f 228/5/3 216/5/3 218/5/3
f 229/5/3 227/5/3 213/5/3
f 229/5/3 228/5/3 227/5/3
f 230/5/3 228/5/3 229/5/3
f 231/5/3 216/5/3 228/5/3
f 231/5/3 228/5/3 230/5/3
f 232/5/3 216/5/3 231/5/3
f 233/5/3 231/5/3 230/5/3
f 234/5/3 231/5/3 233/5/3
f 239/5/3 236/5/3 235/5/3
f 240/5/3 236/5/3 239/5/3
f 241/5/3 238/5/3 237/5/3
f 242/5/3 238/5/3 241/5/3
f 247/5/3 244/5/3 243/5/3
f 248/5/3 244/5/3 247/5/3
f 249/5/3 246/5/3 245/5/3
f 250/5/3 246/5/3 249/5/3
f 253/4/3 252/4/3 251/4/3
f 254/4/3 252/4/3 253/4/3
f 256/4/3 252/4/3 254/4/3
f 257/4/3 256/4/3 255/4/3
f 258/4/3 252/4/3 256/4/3
f 258/4/3 256/4/3 257/4/3
f 261/4/3 260/4/3 259/4/3
f 262/4/3 260/4/3 261/4/3
f 263/4/3 260/4/3 262/4/3
f 267/4/3 265/4/3 264/4/3
f 267/4/3 266/4/3 265/4/3
f 268/4/3 266/4/3 267/4/3
f 271/4/3 270/4/3 269/4/3
f 272/4/3 270/4/3 271/4/3
f 275/4/3 274/4/3 273/4/3
f 276/4/3 274/4/3 275/4/3
f 279/4/3 278/4/3 277/4/3
f 280/4/3 278/4/3 279/4/3
f 283/4/3 282/4/3 281/4/3
f 284/4/3 282/4/3 283/4/3
f 287/5/3 286/5/3 285/5/3
f 288/5/3 286/5/3 287/5/3
f 291/5/3 290/5/3 289/5/3
f 292/5/3 290/5/3 291/5/3
f 293/5/4 294/5/4 295/5/4
f 295/5/4 294/5/4 296/5/4
f 297/4/4 298/4/4 299/4/4
f 299/4/4 298/4/4 300/4/4
f 301/4/4 302/4/4 303/4/4
f 303/4/4 302/4/4 304/4/4
f 305/4/4 306/4/4 307/4/4
f 307/4/4 306/4/4 308/4/4
f 309/5/4 310/5/4 311/5/4
f 311/5/4 310/5/4 312/5/4
f 311/4/4 312/4/4 314/4/4
f 312/4/4 313/4/4 314/4/4
f 314/4/4 313/4/4 315/4/4
f 315/4/4 313/4/4 316/4/4
f 314/5/4 315/5/4 317/5/4
f 317/5/4 315/5/4 318/5/4
f 321/5/4 322/5/4 325/5/4
f 325/5/4 322/5/4 326/5/4
f 323/5/4 324/5/4 327/5/4
f 327/5/4 324/5/4 328/5/4
f 319/5/4 320/5/4 329/5/4
f 329/5/4 320/5/4 330/5/4
f 331/5/4 332/5/4 337/5/4
f 337/5/4 332/5/4 338/5/4
f 333/5/4 334/5/4 339/5/4
f 339/5/4 334/5/4 340/5/4
f 335/5/4 336/5/4 341/5/4
f 341/5/4 336/5/4 342/5/4
f 343/5/4 344/5/4 346/5/4
f 346/5/4 344/5/4 347/5/4
f 345/5/4 346/5/4 349/5/4
f 347/5/4 348/5/4 349/5/4
f 346/5/4 347/5/4 349/5/4
f 349/5/4 348/5/4 350/5/4
f 349/2/4 350/2/4 351/2/4
f 351/2/4 350/2/4 352/2/4
f 349/2/4 351/2/4 353/2/4
f 351/3/4 352/3/4 353/3/4
f 352/2/4 350/2/4 354/2/4
f 353/3/4 352/3/4 354/3/4
f 345/5/4 349/5/4 355/5/4
f 349/2/4 353/2/4 355/2/4
f 353/2/4 354/2/4 355/2/4
f 354/2/4 350/2/4 356/2/4
f 355/2/4 354/2/4 356/2/4
f 350/5/4 348/5/4 356/5/4
f 345/5/4 355/5/4 357/5/4
f 355/5/4 356/5/4 357/5/4
f 357/5/4 356/5/4 358/5/4
f 356/5/4 348/5/4 359/5/4
f 358/5/4 356/5/4 359/5/4
f 359/5/4 348/5/4 360/5/4
f 358/5/4 359/5/4 361/5/4
f 361/5/4 359/5/4 362/5/4
f 363/5/4 364/5/4 365/5/4
f 365/5/4 364/5/4 366/5/4
f 367/5/4 368/5/4 369/5/4
f 369/5/4 368/5/4 370/5/4
f 371/5/4 372/5/4 373/5/4
f 373/5/4 372/5/4 374/5/4
f 375/5/4 376/5/4 377/5/4
f 377/5/4 376/5/4 378/5/4
f 381/5/5 380/5/5 379/5/5
f 382/5/5 380/5/5 381/5/5
f 387/5/5 384/5/5 383/5/5
f 388/5/5 384/5/5 387/5/5
f 389/5/5 386/5/5 385/5/5
f 390/5/5 386/5/5 389/5/5
f 393/4/5 392/4/5 391/4/5
f 394/4/5 392/4/5 393/4/5
f 399/4/5 396/4/5 395/4/5
f 400/4/5 396/4/5 399/4/5
f 401/4/5 398/4/5 397/4/5
f 402/4/5 398/4/5 401/4/5
f 405/4/5 404/4/5 403/4/5
f 406/4/5 404/4/5 405/4/5
f 411/4/5 408/4/5 407/4/5
f 412/4/5 408/4/5 411/4/5
f 413/4/5 410/4/5 409/4/5
f 414/4/5 410/4/5 413/4/5
f 415/5/5 412/5/5 411/5/5
f 416/5/5 412/5/5 415/5/5
f 417/5/5 414/5/5 413/5/5
f 418/5/5 414/5/5 417/5/5
f 421/4/5 420/4/5 419/4/5
f 422/4/5 420/4/5 421/4/5
f 427/4/5 424/4/5 423/4/5
f 428/4/5 424/4/5 427/4/5
f 429/4/5 426/4/5 425/4/5
f 430/4/5 426/4/5 429/4/5
f 435/4/5 432/4/5 431/4/5
f 436/1/5 433/1/5 432/1/5
f 436/4/5 432/4/5 435/4/5
f 437/4/5 434/4/5 433/4/5
f 437/1/5 433/1/5 436/1/5
f 438/4/5 434/4/5 437/4/5
f 439/1/5 436/1/5 435/1/5
f 439/1/5 437/1/5 436/1/5
f 439/1/5 438/1/5 437/1/5
f 440/1/5 438/1/5 439/1/5
f 441/4/5 440/4/5 439/4/5
f 442/4/5 440/4/5 441/4/5
f 446/5/5 444/5/5 443/5/5
f 447/5/5 444/5/5 446/5/5
f 449/5/5 446/5/5 445/5/5
f 449/5/5 448/5/5 447/5/5
f 449/5/5 447/5/5 446/5/5
f 450/5/5 448/5/5 449/5/5
f 451/5/5 449/5/5 445/5/5
f 452/5/5 448/5/5 450/5/5
f 453/5/5 451/5/5 445/5/5
f 453/5/5 452/5/5 451/5/5
f 454/5/5 452/5/5 453/5/5
f 455/5/5 448/5/5 452/5/5
f 455/5/5 452/5/5 454/5/5
f 456/5/5 448/5/5 455/5/5
f 457/5/5 455/5/5 454/5/5
f 458/5/5 455/5/5 457/5/5
f 463/5/5 460/5/5 459/5/5
f 464/5/5 460/5/5 463/5/5
f 465/5/5 462/5/5 461/5/5
f 466/5/5 462/5/5 465/5/5
f 471/5/5 468/5/5 467/5/5
f 472/5/5 468/5/5 471/5/5
f 473/5/5 470/5/5 469/5/5
f 474/5/5 470/5/5 473/5/5
f 475/5/6 476/5/6 477/5/6
f 477/5/6 476/5/6 478/5/6
f 479/5/6 480/5/6 483/5/6
f 483/5/6 480/5/6 484/5/6
f 481/5/6 482/5/6 485/5/6
f 485/5/6 482/5/6 486/5/6
f 487/5/6 488/5/6 489/5/6
f 489/5/6 488/5/6 490/5/6
f 489/4/6 490/4/6 491/4/6
f 491/4/6 490/4/6 492/4/6
f 493/5/6 494/5/6 497/5/6
f 497/5/6 494/5/6 498/5/6
f 495/5/6 496/5/6 499/5/6
f 499/5/6 496/5/6 500/5/6
f 501/5/6 502/5/6 503/5/6
f 503/5/6 502/5/6 504/5/6
f 505/5/6 506/5/6 509/5/6
f 509/5/6 506/5/6 510/5/6
f 507/5/6 508/5/6 511/5/6
f 511/5/6 508/5/6 512/5/6
f 513/5/6 514/5/6 515/5/6
f 515/5/6 514/5/6 516/5/6
f 515/4/6 516/4/6 517/4/6
f 517/4/6 516/4/6 518/4/6
f 519/4/6 520/4/6 523/4/6
f 523/4/6 520/4/6 524/4/6
f 521/4/6 522/4/6 525/4/6
f 525/4/6 522/4/6 526/4/6
f 523/5/6 524/5/6 527/5/6
f 527/5/6 524/5/6 528/5/6
f 525/5/6 526/5/6 529/5/6
f 529/5/6 526/5/6 530/5/6
f 531/5/6 532/5/6 535/5/6
f 535/5/6 532/5/6 536/5/6
f 533/5/6 534/5/6 537/5/6
f 537/5/6 534/5/6 538/5/6
f 539/5/6 540/5/6 543/5/6
f 543/5/6 540/5/6 544/5/6
f 541/5/6 542/5/6 545/5/6
f 545/5/6 542/5/6 546/5/6
f 547/5/6 548/5/6 550/5/6
f 550/5/6 548/5/6 551/5/6
f 549/5/6 550/5/6 553/5/6
f 551/5/6 552/5/6 553/5/6
f 550/5/6 551/5/6 553/5/6
f 553/5/6 552/5/6 554/5/6
f 553/2/6 554/2/6 555/2/6
f 555/2/6 554/2/6 556/2/6
f 553/2/6 555/2/6 557/2/6
f 555/3/6 556/3/6 557/3/6
f 556/2/6 554/2/6 558/2/6
f 557/3/6 556/3/6 558/3/6
f 549/5/6 553/5/6 559/5/6
f 553/2/6 557/2/6 559/2/6
f 557/2/6 558/2/6 559/2/6
f 558/2/6 554/2/6 560/2/6
f 559/2/6 558/2/6 560/2/6
f 554/5/6 552/5/6 560/5/6
f 549/5/6 559/5/6 561/5/6
f 559/5/6 560/5/6 561/5/6
f 561/5/6 560/5/6 562/5/6
f 560/5/6 552/5/6 563/5/6
f 562/5/6 560/5/6 563/5/6
f 563/5/6 552/5/6 564/5/6
f 562/5/6 563/5/6 565/5/6
f 565/5/6 563/5/6 566/5/6
